SplineFontDB: 3.0
FontName: Funstella
FullName: Funstella
FamilyName: Funstella
Weight: Regular
Copyright: Remade by Sik in 2015, 2016\nFeel free to use and modify as you wish
UComments: "2015-12-9: Created." 
FontLog: "1.23 - Tweaked +MAIA and +MAEACgAA-1.22 - Changed font name and copyright+AAoA-1.21 - Line height fix+AAoA-1.2 - Proper lowercase letters (based on lowercase mod)+AAoA-1.1 - Revision including missing characters+AAoA-1.0 - Original font missing many characters" 
Version: 1.23
ItalicAngle: 0
UnderlinePosition: -2
UnderlineWidth: 2
Ascent: 20
Descent: 6
LayerCount: 2
Layer: 0 0 "Atr+AOEA-s"  1
Layer: 1 0 "Fore"  0
XUID: [1021 571 375086453 15831306]
FSType: 8
OS2Version: 0
OS2_WeightWidthSlopeOnly: 0
OS2_UseTypoMetrics: 1
CreationTime: 1449662317
ModificationTime: 1470711202
PfmFamily: 33
TTFWeight: 500
TTFWidth: 5
LineGap: 0
VLineGap: 0
OS2TypoAscent: 6
OS2TypoAOffset: 1
OS2TypoDescent: 0
OS2TypoDOffset: 1
OS2TypoLinegap: 0
OS2WinAscent: 6
OS2WinAOffset: 1
OS2WinDescent: 0
OS2WinDOffset: 1
HheadAscent: 26
HheadAOffset: 0
HheadDescent: -6
HheadDOffset: 0
OS2FamilyClass: 2063
OS2Vendor: 'Sik '
MarkAttachClasses: 1
DEI: 91125
Encoding: UnicodeBmp
UnicodeInterp: none
NameList: Adobe Glyph List
DisplaySize: -48
AntiAlias: 1
FitToEm: 1
WinInfo: 12285 27 9
BeginPrivate: 0
EndPrivate
Grid
-26 25.8211 m 0
 52 25.8211 l 0
EndSplineSet
BeginChars: 65536 547

StartChar: I
Encoding: 73 73 0
Width: 13
VWidth: 0
Flags: HW
LayerCount: 2
Fore
SplineSet
9 20 m 25
 9 0 l 25
 4 0 l 25
 6 20 l 25
 9 20 l 25
3 20 m 25
 11 20 l 25
 11 18 l 25
 3 17 l 25
 3 20 l 25
2 0 m 25
 2 2 l 25
 11 4 l 25
 11 0 l 25
 2 0 l 25
EndSplineSet
EndChar

StartChar: i
Encoding: 105 105 1
Width: 13
VWidth: 0
Flags: HW
LayerCount: 2
Fore
SplineSet
9 18 m 25
 5 18 l 25
 5 22 l 25
 9 22 l 25
 9 18 l 25
EndSplineSet
Refer: 45 305 N 1 0 0 1 0 0 2
EndChar

StartChar: T
Encoding: 84 84 2
Width: 17
VWidth: 0
Flags: HW
LayerCount: 2
Fore
SplineSet
15 20 m 25
 15 16 l 25
 2 16 l 25
 2 19 l 25
 15 20 l 25
10 18 m 25
 10 0 l 25
 5 0 l 25
 7 18 l 25
 10 18 l 25
EndSplineSet
EndChar

StartChar: E
Encoding: 69 69 3
Width: 17
VWidth: 0
Flags: HW
LayerCount: 2
Fore
SplineSet
15 0 m 29
 2 0 l 25
 3 3 l 25
 15 4 l 29
 15 0 l 29
13 13 m 29
 13 10 l 29
 5 10 l 25
 5 13 l 25
 13 13 l 29
2 0 m 25
 4 20 l 25
 7 20 l 25
 7 0 l 25
 2 0 l 25
2 20 m 25
 15 20 l 29
 15 16 l 29
 2 18 l 25
 2 20 l 25
EndSplineSet
EndChar

StartChar: F
Encoding: 70 70 4
Width: 17
VWidth: 0
Flags: HW
LayerCount: 2
Fore
SplineSet
13 13 m 29
 13 10 l 29
 5 10 l 25
 5 13 l 25
 13 13 l 29
2 0 m 25
 4 20 l 25
 7 20 l 25
 7 0 l 25
 2 0 l 25
2 20 m 25
 15 20 l 29
 15 16 l 29
 2 18 l 25
 2 20 l 25
EndSplineSet
EndChar

StartChar: L
Encoding: 76 76 5
Width: 17
VWidth: 0
Flags: HW
LayerCount: 2
Fore
SplineSet
15 0 m 29
 2 0 l 25
 2 3 l 25
 15 4 l 29
 15 0 l 29
2 0 m 25
 2 20 l 25
 7 20 l 25
 5 0 l 25
 2 0 l 25
EndSplineSet
EndChar

StartChar: O
Encoding: 79 79 6
Width: 18
VWidth: 0
Flags: HW
LayerCount: 2
Fore
SplineSet
10 17 m 0
 8 17 6 14 6 11 c 0
 6 9 7 6 9 6 c 0
 11 6 13 8 13 12 c 0
 13 15 12 17 10 17 c 0
9 0 m 0
 5 0 2 4 2 9 c 0
 2 15 6 20 10 20 c 0
 14 20 16 15 16 9 c 0
 16 5 14 0 9 0 c 0
EndSplineSet
EndChar

StartChar: o
Encoding: 111 111 7
Width: 18
VWidth: 0
Flags: HW
LayerCount: 2
Fore
SplineSet
10 13 m 0
 7 13 6 11 6 9 c 0
 6 7 7 5 9 5 c 0
 11 5 13 6 13 9 c 0
 13 12 12 13 10 13 c 0
9 0 m 0
 5 0 2 2 2 7 c 0
 2 13 6 16 10 16 c 0
 14 16 16 13 16 7 c 0
 16 3 14 0 9 0 c 0
EndSplineSet
EndChar

StartChar: Z
Encoding: 90 90 8
Width: 17
VWidth: 0
Flags: HW
LayerCount: 2
Fore
SplineSet
2 2 m 25
 11 18 l 29
 15 18 l 29
 6 2 l 25
 2 2 l 25
2 0 m 25
 2 2 l 25
 15 5 l 29
 15 0 l 29
 2 0 l 25
2 20 m 25
 15 20 l 29
 15 18 l 29
 2 15 l 25
 2 20 l 25
EndSplineSet
EndChar

StartChar: z
Encoding: 122 122 9
Width: 17
VWidth: 0
Flags: HW
LayerCount: 2
Fore
SplineSet
2 2 m 25
 11 14 l 25
 15 14 l 25
 6 2 l 25
 2 2 l 25
2 0 m 25
 2 2 l 25
 15 5 l 25
 15 0 l 25
 2 0 l 25
2 16 m 25
 15 16 l 25
 15 14 l 25
 2 11 l 25
 2 16 l 25
EndSplineSet
EndChar

StartChar: K
Encoding: 75 75 10
Width: 17
VWidth: 0
Flags: HW
LayerCount: 2
Fore
SplineSet
12 0 m 25
 5 9 l 25
 6 11 l 29
 15 3 l 25
 12 0 l 25
11 20 m 25
 15 16 l 25
 4 8 l 25
 3 9 l 25
 11 20 l 25
2 0 m 25
 2 20 l 25
 6 20 l 25
 5 0 l 25
 2 0 l 25
EndSplineSet
EndChar

StartChar: k
Encoding: 107 107 11
Width: 17
VWidth: 0
Flags: HW
LayerCount: 2
Fore
SplineSet
12 0 m 25
 5 7 l 25
 6 9 l 25
 15 3 l 25
 12 0 l 25
11 16 m 25
 15 12 l 25
 4 6 l 25
 3 7 l 25
 11 16 l 25
2 0 m 25
 2 20 l 25
 6 20 l 25
 5 0 l 25
 2 0 l 25
EndSplineSet
EndChar

StartChar: Q
Encoding: 81 81 12
Width: 18
VWidth: 0
Flags: HW
LayerCount: 2
Fore
SplineSet
15 -2 m 25
 11 -4 l 25
 8 2 l 29
 11 3 l 25
 15 -2 l 25
10 17 m 0
 8 17 6 14 6 11 c 0
 6 9 7 6 9 6 c 0
 11 6 13 8 13 12 c 0
 13 15 12 17 10 17 c 0
8 0 m 0
 4 0 2 4 2 9 c 0
 2 15 6 20 10 20 c 0
 14 20 16 16 16 10 c 0
 16 6 13 0 8 0 c 0
EndSplineSet
EndChar

StartChar: V
Encoding: 86 86 13
Width: 18
VWidth: 0
Flags: HW
LayerCount: 2
Fore
SplineSet
12 20 m 25
 16 19 l 25
 12 0 l 25
 9 0 l 29
 12 20 l 25
7 20 m 25
 11 0 l 25
 6 0 l 25
 2 18 l 25
 7 20 l 25
EndSplineSet
EndChar

StartChar: v
Encoding: 118 118 14
Width: 18
VWidth: 0
Flags: HW
LayerCount: 2
Fore
SplineSet
12 16 m 25
 16 15 l 25
 12 0 l 25
 9 0 l 29
 12 16 l 25
7 16 m 25
 11 0 l 25
 6 0 l 25
 2 14 l 25
 7 16 l 25
EndSplineSet
EndChar

StartChar: N
Encoding: 78 78 15
Width: 17
VWidth: 0
Flags: HW
LayerCount: 2
Fore
SplineSet
12 0 m 25
 4 18 l 25
 7 20 l 25
 15 1 l 25
 12 0 l 25
2 20 m 25
 6 20 l 25
 6 18 l 25
 2 17 l 25
 2 20 l 25
2 0 m 25
 4 20 l 25
 7 20 l 25
 7 0 l 25
 2 0 l 25
15 1 m 25
 12 0 l 25
 11 20 l 25
 15 20 l 25
 15 1 l 25
EndSplineSet
EndChar

StartChar: H
Encoding: 72 72 16
Width: 17
VWidth: 0
Flags: HW
LayerCount: 2
Fore
SplineSet
5 12 m 25
 13 12 l 25
 13 9 l 25
 5 9 l 25
 5 12 l 25
2 20 m 25
 6 20 l 25
 6 18 l 25
 2 17 l 25
 2 20 l 25
2 0 m 25
 4 20 l 25
 7 20 l 25
 7 0 l 25
 2 0 l 25
15 0 m 25
 11 0 l 25
 11 20 l 25
 14 20 l 29
 15 0 l 25
EndSplineSet
EndChar

StartChar: q
Encoding: 113 113 17
Width: 18
VWidth: 0
Flags: HW
LayerCount: 2
Fore
SplineSet
16 16 m 25
 16 -4 l 25
 12 -4 l 25
 13 16 l 25
 16 16 l 25
9 13 m 0
 7 13 5 11 5 9 c 0
 5 7 6 5 8 5 c 0
 10 5 12 6 12 9 c 0
 12 12 11 13 9 13 c 0
8 0 m 0
 3 0 2 5 2 8 c 0
 2 13 6 16 9 16 c 0
 13 16 15 13 15 9 c 0
 15 5 11 0 8 0 c 0
EndSplineSet
EndChar

StartChar: b
Encoding: 98 98 18
Width: 18
VWidth: 0
Flags: HW
LayerCount: 2
Fore
SplineSet
2 0 m 25
 2 20 l 25
 6 20 l 25
 4 0 l 25
 2 0 l 25
11 13 m 0
 8 13 6 10 6 8 c 0
 6 6 7 5 9 5 c 0
 11 5 13 7 13 9 c 0
 13 11 13 13 11 13 c 0
11 16 m 0
 15 16 16 11 16 8 c 0
 16 3 13 0 10 0 c 0
 6 0 3 3 3 7 c 0
 3 11 8 16 11 16 c 0
EndSplineSet
EndChar

StartChar: h
Encoding: 104 104 19
Width: 17
VWidth: 0
Flags: HW
LayerCount: 2
Fore
SplineSet
14 -1 m 13
 10 0 l 17
 11 3 12 6 12 8 c 0
 12 12 10 12 9 12 c 0
 7 12 6 10 6 8 c 9
 3 9 l 17
 3 11 6 15 9 15 c 0
 13 15 15 12.1621 15 9 c 4
 15 5 15 3 14 -1 c 13
2 0 m 25
 2 20 l 25
 5 20 l 25
 7 0 l 25
 2 0 l 25
EndSplineSet
EndChar

StartChar: X
Encoding: 88 88 20
Width: 17
VWidth: 0
Flags: HW
LayerCount: 2
Fore
SplineSet
7 20 m 25
 9 13 l 25
 12 20 l 25
 15 17 l 25
 11 10 l 25
 15 3 l 25
 12 0 l 25
 9 7 l 25
 7 0 l 25
 2 3 l 25
 7 10 l 25
 2 17 l 25
 7 20 l 25
EndSplineSet
EndChar

StartChar: x
Encoding: 120 120 21
Width: 17
VWidth: 0
Flags: HW
LayerCount: 2
Fore
SplineSet
7 0 m 25
 2 2 l 25
 7 9 l 25
 2 14 l 25
 6 16 l 25
 9 11 l 25
 12 16 l 25
 15 13 l 29
 11 9 l 25
 15 2 l 25
 11 0 l 25
 9 6 l 25
 7 0 l 25
EndSplineSet
EndChar

StartChar: n
Encoding: 110 110 22
Width: 17
VWidth: 0
Flags: HW
LayerCount: 2
Fore
SplineSet
14 -1 m 13
 10 0 l 17
 11 3 12 6 12 8 c 0
 12 12 11 12 10 12 c 0
 8 12 6 9 6 7 c 9
 3 8 l 17
 3 10 7 15 10 15 c 0
 14 15 15 12.1621 15 9 c 4
 15 5 15 3 14 -1 c 13
2 0 m 25
 2 15 l 25
 5 15 l 25
 7 0 l 25
 2 0 l 25
EndSplineSet
EndChar

StartChar: M
Encoding: 77 77 23
Width: 22
VWidth: 0
Flags: HW
LayerCount: 2
Fore
SplineSet
7 -1 m 25
 2 0 l 25
 4 20 l 25
 8 20 l 25
 12 10 l 25
 15 20 l 25
 18 20 l 25
 20 0 l 25
 16 -1 l 25
 15 12 l 25
 12 2 l 25
 8 12 l 25
 7 -1 l 25
EndSplineSet
EndChar

StartChar: u
Encoding: 117 117 24
Width: 17
VWidth: 0
Flags: HW
LayerCount: 2
Fore
SplineSet
3 16 m 13
 8 15 l 21
 6 12 5 8 5 6 c 4
 5 4 7 3 8 3 c 4
 10 3 12 6 12 8 c 13
 15 7 l 21
 15 5 11 0 8 0 c 4
 3 0 2 3.83789 2 7 c 4
 2 9 2 12 3 16 c 13
15 15 m 25
 15 0 l 25
 12 0 l 25
 11 15 l 25
 15 15 l 25
EndSplineSet
EndChar

StartChar: a
Encoding: 97 97 25
Width: 18
VWidth: 0
Flags: HW
LayerCount: 2
Fore
SplineSet
13 13 m 1
 10 13 7 11 6 8 c 0
 5.36719 6.10254 6.10263 4.36754 8 5 c 0
 11 6 13 10 13 13 c 1
15 12 m 17
 15 7 11 1 7 0 c 0
 4.08957 -0.727607 1.60742 2.8623 2 6 c 0
 3 14 9 16 14 16 c 9
 15 12 l 17
16 0 m 25
 12 0 l 25
 14 16 l 25
 16 16 l 25
 16 0 l 25
EndSplineSet
EndChar

StartChar: r
Encoding: 114 114 26
Width: 15
VWidth: 0
Flags: HW
LayerCount: 2
Fore
SplineSet
14 13 m 13
 11 10 l 21
 10 12 9 13 8 13 c 4
 6 13 5 9 5 7 c 13
 3 8 l 21
 3 13 4 15 8 16 c 4
 10.1691 16.5423 13 15 14 13 c 13
2 0 m 25
 2 15 l 25
 4 16 l 25
 7 0 l 25
 2 0 l 25
EndSplineSet
EndChar

StartChar: P
Encoding: 80 80 27
Width: 17
VWidth: 0
Flags: HW
LayerCount: 2
Fore
SplineSet
7 17 m 9
 7 10 l 17
 9 10 12 11 12 14 c 0
 12 17 9 17 7 17 c 9
1 18 m 17
 3 19 6 20 8 20 c 0
 12.4721 20 15 17.1231 15 13 c 0
 15 8 9 7 5 7 c 9
 5 16 l 25
 2 15 l 25
 1 18 l 17
2 0 m 25
 4 18 l 25
 7 18 l 25
 7 0 l 25
 2 0 l 25
EndSplineSet
EndChar

StartChar: B
Encoding: 66 66 28
Width: 17
VWidth: 0
Flags: HW
LayerCount: 2
Fore
SplineSet
7 10 m 9
 7 4 l 17
 9 4 12 4 12 7 c 0
 12 9 9 10 7 10 c 9
6 12 m 17
 10 12 15 11 15 6 c 0
 15 2 12 0 7 0 c 9
 6 12 l 17
7 17 m 9
 7 12 l 17
 9 12 10 13 10 15 c 0
 10 17 9 17 7 17 c 9
1 18 m 17
 3 19 6 20 8 20 c 0
 11 20 13 18 13 15 c 0
 13 11 9 9 5 9 c 9
 5 16 l 25
 2 15 l 25
 1 18 l 17
2 0 m 25
 4 18 l 25
 7 18 l 25
 7 0 l 25
 2 0 l 25
EndSplineSet
EndChar

StartChar: D
Encoding: 68 68 29
Width: 18
VWidth: 0
Flags: HW
LayerCount: 2
Fore
SplineSet
7 17 m 9
 7 5 l 17
 9 5 13 6 13 11 c 0
 13 15 9 17 7 17 c 9
1 18 m 17
 3 19 5 20 7 20 c 0
 13 20 16 15 16 9 c 0
 16 4 11 0 7 0 c 9
 5 16 l 25
 2 15 l 25
 1 18 l 17
2 0 m 25
 4 18 l 25
 7 18 l 25
 7 0 l 25
 2 0 l 25
EndSplineSet
EndChar

StartChar: p
Encoding: 112 112 30
Width: 18
VWidth: 0
Flags: HW
LayerCount: 2
Fore
SplineSet
7 12 m 9
 7 5 l 17
 11 2 13 6 13 9 c 0
 13 13 9 13 7 12 c 9
1 13 m 17
 3 14 6 16 9 16 c 0
 13 16 16 13.123 16 9 c 0
 16 1 9 -2 5 2 c 9
 5 12 l 25
 2 10 l 25
 1 13 l 17
2 -4 m 25
 4 14 l 25
 7 14 l 25
 7 -4 l 25
 2 -4 l 25
EndSplineSet
EndChar

StartChar: R
Encoding: 82 82 31
Width: 17
VWidth: 0
Flags: HW
LayerCount: 2
Fore
SplineSet
15 1 m 25
 11 -1 l 25
 8 8 l 25
 10 9 l 25
 15 1 l 25
7 17 m 9
 7 10 l 17
 9 10 12 11 12 14 c 0
 12 17 9 17 7 17 c 9
1 18 m 17
 3 19 6 20 8 20 c 0
 12.4721 20 15 17.1231 15 13 c 0
 15 8 9 7 5 7 c 9
 5 16 l 25
 2 15 l 25
 1 18 l 17
2 0 m 25
 4 18 l 25
 7 18 l 25
 7 0 l 25
 2 0 l 25
EndSplineSet
EndChar

StartChar: C
Encoding: 67 67 32
Width: 17
VWidth: 0
Flags: HW
LayerCount: 2
Fore
SplineSet
15 19 m 9
 14 15 l 17
 13 16 12 17 10 17 c 0
 8 17 6 14 6 11 c 24
 6 8 6.76367 5 9 5 c 0
 11 5 12 5 14 7 c 9
 15 1 l 17
 12 0 10 0 8 0 c 0
 4 0 2 5 2 10 c 0
 2 16 7 20 10 20 c 0
 12 20 13 20 15 19 c 9
EndSplineSet
EndChar

StartChar: c
Encoding: 99 99 33
Width: 17
VWidth: 0
Flags: HW
LayerCount: 2
Fore
SplineSet
15 15 m 9
 14 11 l 17
 13 12 12 13 10 13 c 0
 8 13 6 11 6 9 c 24
 6 7 6.76367 5 9 5 c 0
 11 5 12 5 14 6 c 9
 15 1 l 17
 12 0 10 0 8 0 c 0
 4 0 2 3 2 8 c 0
 2 14 7 16 10 16 c 0
 12 16 13 16 15 15 c 9
EndSplineSet
EndChar

StartChar: W
Encoding: 87 87 34
Width: 21
VWidth: 0
Flags: HW
LayerCount: 2
Fore
SplineSet
5 0 m 25
 2 19 l 25
 7 20 l 25
 9 7 l 25
 12 16 l 25
 15 7 l 25
 16 20 l 25
 19 19 l 25
 17 0 l 25
 14 0 l 25
 12 7 l 25
 10 0 l 25
 5 0 l 25
EndSplineSet
EndChar

StartChar: w
Encoding: 119 119 35
Width: 21
VWidth: 0
Flags: HW
LayerCount: 2
Fore
SplineSet
5 0 m 25
 2 15 l 25
 7 16 l 25
 9 7 l 25
 12 14 l 25
 15 7 l 25
 16 16 l 25
 19 15 l 25
 17 0 l 25
 14 0 l 25
 12 7 l 25
 10 0 l 25
 5 0 l 25
EndSplineSet
EndChar

StartChar: G
Encoding: 71 71 36
Width: 17
VWidth: 0
Flags: HW
LayerCount: 2
Fore
SplineSet
9 11 m 25
 15 12 l 25
 16 1 l 25
 13 0 l 25
 13 9 l 25
 9 9 l 25
 9 11 l 25
15 19 m 9
 14 15 l 17
 13 16 12 17 10 17 c 0
 8 17 6 14 6 11 c 24
 6 8 6.76367 5 9 5 c 0
 11 5 12 6 13 8 c 9
 15 3 l 17
 13 1 10 0 8 0 c 0
 4 0 2 5 2 10 c 0
 2 16 7 20 10 20 c 0
 12 20 13 20 15 19 c 9
EndSplineSet
EndChar

StartChar: U
Encoding: 85 85 37
Width: 17
VWidth: 0
Flags: HW
LayerCount: 2
Fore
SplineSet
3 20 m 9
 8 19 l 17
 7 15 6 10 6 8 c 0
 6 6 7 4 9 4 c 24
 11 4 13 6 13 8 c 0
 13 12 13 15 12 19 c 9
 15 20 l 17
 16 15 16 11 16 8 c 0
 16 3 13 0 9 0 c 24
 5 0 2 3.87689 2 8 c 0
 2 12 2 15 3 20 c 9
EndSplineSet
EndChar

StartChar: f
Encoding: 102 102 38
Width: 15
VWidth: 0
Flags: HW
LayerCount: 2
Fore
SplineSet
2 12 m 25
 12 12 l 25
 12 9 l 25
 2 8 l 25
 2 12 l 25
4 0 m 17
 4 5 4 7 4 13 c 0
 4 16.1621 5.83789 20 9 20 c 0
 10 20 11 20 14 19 c 9
 12 15 l 17
 11 16 10 17 9 17 c 0
 7 17 7 14 7 13 c 0
 7 11 8 5 9 0 c 9
 4 0 l 17
EndSplineSet
EndChar

StartChar: t
Encoding: 116 116 39
Width: 15
VWidth: 0
Flags: HW
LayerCount: 2
Fore
SplineSet
4 12 m 25
 4 15 l 25
 11 16 l 25
 12 12 l 25
 4 12 l 25
2 19 m 9
 7 20 l 17
 5 10 5 9 5 7 c 0
 5 6 6 4 8 4 c 0
 9 4 10 4 12 6 c 9
 14 2 l 17
 12 0 8 0 7 0 c 0
 3.83789 0 2 3.83789 2 7 c 0
 2 13 2 14 2 19 c 9
EndSplineSet
EndChar

StartChar: d
Encoding: 100 100 40
Width: 17
VWidth: 0
Flags: HW
LayerCount: 2
Fore
SplineSet
14 15 m 9
 14 12 l 17
 11 12 6 11 6 7 c 24
 6 4 11 4 14 5 c 9
 10 0 l 17
 7 0 2 2 2 6 c 0
 2 12 8 14 14 15 c 9
15 0 m 25
 10 0 l 25
 12 20 l 25
 15 20 l 25
 15 0 l 25
EndSplineSet
EndChar

StartChar: m
Encoding: 109 109 41
Width: 22
VWidth: 0
Flags: HW
LayerCount: 2
Fore
SplineSet
13 4 m 9
 10 4 l 17
 10 7 10 7 10 8 c 0
 10 9 10 12 9 12 c 0
 7 12 6 7 6 5 c 9
 3 5 l 17
 3 7 5 15 9 15 c 0
 12.1621 15 12 10 12 9 c 0
 12 6.76367 13 7 13 4 c 9
19 -1 m 9
 15 0 l 17
 16 3 17 6 17 8 c 0
 17 10 17 12 16 12 c 0
 14 12 13 6 13 4 c 9
 10 4 l 17
 10 6 11 15 16 15 c 0
 19 15 20 12.1621 20 9 c 0
 20 5 20 3 19 -1 c 9
2 0 m 25
 2 15 l 25
 5 15 l 25
 7 0 l 25
 2 0 l 25
EndSplineSet
EndChar

StartChar: Y
Encoding: 89 89 42
Width: 17
VWidth: 0
Flags: HW
LayerCount: 2
Fore
SplineSet
5 0 m 25
 7 10 l 25
 2 18 l 25
 7 20 l 25
 9 13 l 25
 12 20 l 25
 15 18 l 25
 10 9 l 29
 11 0 l 25
 5 0 l 25
EndSplineSet
EndChar

StartChar: J
Encoding: 74 74 43
Width: 17
VWidth: 0
Flags: HW
LayerCount: 2
Fore
SplineSet
14 20 m 17
 15 13 15 9 15 7 c 0
 15 3.83789 15 0 10 0 c 0
 7 0 4 2 2 5 c 9
 6 8 l 17
 7 6 9 4 10 4 c 0
 11 4 12 4 12 6 c 0
 12 8 11 13 9 19 c 9
 14 20 l 17
EndSplineSet
EndChar

StartChar: j
Encoding: 106 106 44
Width: 15
VWidth: 0
Flags: HW
LayerCount: 2
Fore
SplineSet
10 18 m 25
 6 18 l 25
 6 22 l 25
 10 22 l 25
 10 18 l 25
3 15 m 25
 12 16 l 25
 12 14 l 25
 4 11 l 25
 3 15 l 25
12 16 m 21
 13 9 13 4 13 2 c 4
 13 -1.16211 12 -4 9 -4 c 4
 7 -4 6 -4 2 -3 c 13
 4 2 l 21
 5 1 7 0 8 0 c 4
 9 0 10 1 10 3 c 4
 10 5 9 9 7 15 c 13
 12 16 l 21
EndSplineSet
EndChar

StartChar: dotlessi
Encoding: 305 305 45
Width: 13
VWidth: 0
Flags: HW
LayerCount: 2
Fore
SplineSet
2 16 m 25
 9 16 l 25
 9 14 l 25
 2 12 l 29
 2 16 l 25
9 16 m 25
 9 0 l 25
 5 0 l 25
 6 16 l 25
 9 16 l 25
2 0 m 25
 2 2 l 25
 11 4 l 25
 11 0 l 25
 2 0 l 25
EndSplineSet
EndChar

StartChar: y
Encoding: 121 121 46
Width: 17
VWidth: 0
Flags: HW
LayerCount: 2
Fore
SplineSet
15 15 m 17
 15 8 15 4 15 2 c 0
 15 -1.16211 14 -4 11 -4 c 0
 9 -4 7 -4 3 -3 c 9
 4 1 l 17
 5 0 7 -1 9 -1 c 0
 12 -1 12 1 12 3 c 0
 12 5 12 8 11 14 c 9
 15 15 l 17
3 16 m 9
 8 15 l 21
 6 12 5 10 5 8 c 0
 5 6 6 5 8 5 c 0
 10 5 12 8 12 10 c 9
 15 9 l 17
 15 7 11 2 8 2 c 0
 3 2 2 5.83789 2 9 c 0
 2 11 2 12 3 16 c 9
EndSplineSet
EndChar

StartChar: l
Encoding: 108 108 47
Width: 14
VWidth: 0
Flags: HW
LayerCount: 2
Fore
SplineSet
3 21 m 9
 8 20 l 17
 6 14 5 9 5 7 c 0
 5 5 6 4 7 4 c 0
 8 4 9 5 10 6 c 9
 12 1 l 17
 9 0 8 0 6 0 c 0
 3 0 2 2.83789 2 6 c 0
 2 8 2 14 3 21 c 9
EndSplineSet
EndChar

StartChar: A
Encoding: 65 65 48
Width: 18
VWidth: 0
Flags: HW
LayerCount: 2
Fore
SplineSet
5 6 m 25
 5 9 l 25
 12 9 l 25
 12 6 l 25
 5 6 l 25
3 20 m 29
 12 21 l 25
 12 19 l 25
 4 16 l 29
 3 20 l 29
16 1 m 25
 11 0 l 25
 8 19 l 25
 12 21 l 25
 16 1 l 25
5 0 m 25
 2 1 l 25
 7 20 l 25
 9 20 l 25
 5 0 l 25
EndSplineSet
EndChar

StartChar: g
Encoding: 103 103 49
Width: 17
VWidth: 0
Flags: HW
LayerCount: 2
Fore
SplineSet
9 13 m 0
 7 13 5 12 5 10 c 0
 5 8 7 7 9 7 c 0
 10 7 12 8 12 10 c 24
 12 12 10 13 9 13 c 0
8 16 m 0
 11 16 14 13 14 10 c 0
 14 6 11 4 8 4 c 24
 5 4 2 6 2 10 c 0
 2 13 4 16 8 16 c 0
15 16 m 17
 15 9 15 4 15 2 c 0
 15 -1.16211 14 -4 11 -4 c 0
 9 -4 7 -4 3 -3 c 9
 4 2 l 17
 5 1 7 0 9 0 c 0
 11 0 12 1 12 3 c 0
 12 5 12 10 11 16 c 9
 15 16 l 17
EndSplineSet
EndChar

StartChar: e
Encoding: 101 101 50
Width: 18
VWidth: 0
Flags: HW
LayerCount: 2
Fore
SplineSet
15 6 m 9
 17 1 l 17
 14 0 12 0 9 0 c 0
 4.52832 0 2 3 2 7 c 0
 2 12 4 16 10 16 c 0
 15 16 17 12 17 8 c 9
 13 8 l 17
 13 11 13 13 10 13 c 0
 7.76367 13 6 12 6 9 c 0
 6 6 7 4 10 4 c 0
 12 4 13 4 15 6 c 9
14 8 m 25
 5 8 l 25
 5 11 l 25
 14 11 l 25
 14 8 l 25
EndSplineSet
EndChar

StartChar: S
Encoding: 83 83 51
Width: 17
VWidth: 0
Flags: HW
LayerCount: 2
Fore
SplineSet
15 19 m 9
 14 14 l 17
 12 16 11 16 8 16 c 0
 7 16 6 15 6 14 c 0
 6 12 8.58594 11 10 11 c 0
 12 11 15 9 15 5 c 0
 15 2 11 0 8 0 c 0
 6 0 4 0 2 1 c 9
 3 6 l 17
 5 4 7 4 9 4 c 24
 10 4 11 5 11 6 c 0
 11 8 8.41406 9 7 9 c 0
 5 9 2 11 2 15 c 0
 2 18 5.83772 20 9 20 c 0
 11 20 13 20 15 19 c 9
EndSplineSet
EndChar

StartChar: s
Encoding: 115 115 52
Width: 17
VWidth: 0
Flags: HW
LayerCount: 2
Fore
SplineSet
15 14 m 9
 14 10 l 17
 11 12 9 12 8 12 c 0
 7 12 6 12 6 11 c 0
 6 10 8.58594 9 10 9 c 0
 12 9 15 7 15 4 c 0
 15 1 11 0 8 0 c 0
 6 0 4 1 2 2 c 9
 3 6 l 17
 6 4 8 4 9 4 c 0
 10 4 11 4 11 5 c 0
 11 6 8.41406 7 7 7 c 0
 5 7 2 9 2 12 c 0
 2 15 5.83789 16 9 16 c 0
 11 16 13 15 15 14 c 9
EndSplineSet
EndChar

StartChar: agrave
Encoding: 224 224 53
Width: 18
VWidth: 0
Flags: HW
LayerCount: 2
Fore
SplineSet
10 18 m 29
 6 22 l 29
 11 23 l 29
 14 18 l 29
 10 18 l 29
EndSplineSet
Refer: 25 97 N 1 0 0 1 0 0 2
EndChar

StartChar: aacute
Encoding: 225 225 54
Width: 18
VWidth: 0
Flags: HW
LayerCount: 2
Fore
SplineSet
14 18 m 29
 10 18 l 29
 13 23 l 29
 18 22 l 29
 14 18 l 29
EndSplineSet
Refer: 25 97 N 1 0 0 1 0 0 2
EndChar

StartChar: acircumflex
Encoding: 226 226 55
Width: 18
VWidth: 0
Flags: HW
LayerCount: 2
Fore
SplineSet
12 17 m 29
 10 21 l 29
 8 17 l 29
 5 19 l 29
 9 23 l 29
 12 23 l 29
 16 19 l 29
 12 17 l 29
EndSplineSet
Refer: 25 97 N 1 0 0 1 0 0 2
EndChar

StartChar: atilde
Encoding: 227 227 56
Width: 18
VWidth: 0
Flags: HW
LayerCount: 2
Fore
SplineSet
4 16 m 13
 2 19 l 21
 3 20 6 22 9 21 c 4
 10.8975 20.3672 11 19 12 19 c 4
 13 19 15 21 15 22 c 13
 17 19 l 21
 16 18 13 16 10 17 c 4
 8.10254 17.6328 8 19 7 19 c 4
 6 19 4 17 4 16 c 13
EndSplineSet
Refer: 25 97 N 1 0 0 1 0 0 2
EndChar

StartChar: adieresis
Encoding: 228 228 57
Width: 18
VWidth: 0
Flags: HW
LayerCount: 2
Fore
SplineSet
9 18 m 25
 5 18 l 25
 5 22 l 25
 9 22 l 25
 9 18 l 25
16 18 m 25
 12 18 l 25
 12 22 l 25
 16 22 l 25
 16 18 l 25
EndSplineSet
Refer: 25 97 N 1 0 0 1 0 0 2
EndChar

StartChar: aring
Encoding: 229 229 58
Width: 18
VWidth: 0
Flags: HW
LayerCount: 2
Fore
SplineSet
11 20 m 4
 10 20 10 20 10 19 c 28
 10 18 10 18 11 18 c 28
 12 18 12 18 12 19 c 28
 12 20 12 20 11 20 c 4
11 22 m 4
 13 22 14 20 14 19 c 4
 14 18 13 16 11 16 c 4
 9 16 8 18 8 19 c 4
 8 20 9 22 11 22 c 4
EndSplineSet
Refer: 25 97 N 1 0 0 1 0 0 2
EndChar

StartChar: egrave
Encoding: 232 232 59
Width: 18
VWidth: 0
Flags: HW
LayerCount: 2
Fore
SplineSet
8 18 m 29
 4 22 l 29
 9 23 l 29
 12 18 l 29
 8 18 l 29
EndSplineSet
Refer: 50 101 N 1 0 0 1 0 0 2
EndChar

StartChar: eacute
Encoding: 233 233 60
Width: 18
VWidth: 0
Flags: HW
LayerCount: 2
Fore
SplineSet
12 18 m 29
 8 18 l 29
 11 23 l 29
 16 22 l 29
 12 18 l 29
EndSplineSet
Refer: 50 101 N 1 0 0 1 0 0 2
EndChar

StartChar: ecircumflex
Encoding: 234 234 61
Width: 18
VWidth: 0
Flags: HW
LayerCount: 2
Fore
SplineSet
11 17 m 29
 9 21 l 29
 7 17 l 29
 4 19 l 29
 8 23 l 29
 11 23 l 29
 15 19 l 29
 11 17 l 29
EndSplineSet
Refer: 50 101 N 1 0 0 1 0 0 2
EndChar

StartChar: edieresis
Encoding: 235 235 62
Width: 18
VWidth: 0
Flags: HW
LayerCount: 2
Fore
SplineSet
9 18 m 29
 5 18 l 29
 5 22 l 29
 9 22 l 29
 9 18 l 29
16 18 m 29
 12 18 l 29
 12 22 l 29
 16 22 l 29
 16 18 l 29
EndSplineSet
Refer: 50 101 N 1 0 0 1 0 0 2
EndChar

StartChar: igrave
Encoding: 236 236 63
Width: 13
VWidth: 0
Flags: HW
LayerCount: 2
Fore
SplineSet
5 18 m 29
 1 22 l 29
 6 23 l 29
 9 18 l 29
 5 18 l 29
EndSplineSet
Refer: 45 305 N 1 0 0 1 0 0 2
EndChar

StartChar: iacute
Encoding: 237 237 64
Width: 13
VWidth: 0
Flags: HW
LayerCount: 2
Fore
SplineSet
9 18 m 29
 5 18 l 29
 8 23 l 29
 13 22 l 29
 9 18 l 29
EndSplineSet
Refer: 45 305 N 1 0 0 1 0 0 2
EndChar

StartChar: icircumflex
Encoding: 238 238 65
Width: 13
VWidth: 0
Flags: HW
LayerCount: 2
Fore
SplineSet
8 17 m 29
 6 21 l 29
 4 17 l 29
 1 19 l 29
 5 23 l 29
 8 23 l 29
 12 19 l 29
 8 17 l 29
EndSplineSet
Refer: 45 305 N 1 0 0 1 0 0 2
EndChar

StartChar: idieresis
Encoding: 239 239 66
Width: 13
VWidth: 0
Flags: HW
LayerCount: 2
Fore
SplineSet
5 18 m 25
 2 18 l 25
 2 22 l 25
 5 22 l 25
 5 18 l 25
11 18 m 25
 7 18 l 25
 7 22 l 25
 11 22 l 25
 11 18 l 25
EndSplineSet
Refer: 45 305 N 1 0 0 1 0 0 2
EndChar

StartChar: ograve
Encoding: 242 242 67
Width: 18
VWidth: 0
Flags: HW
LayerCount: 2
Fore
SplineSet
8 18 m 29
 4 22 l 29
 9 23 l 29
 12 18 l 29
 8 18 l 29
EndSplineSet
Refer: 7 111 N 1 0 0 1 0 0 2
EndChar

StartChar: oacute
Encoding: 243 243 68
Width: 18
VWidth: 0
Flags: HW
LayerCount: 2
Fore
SplineSet
12 18 m 29
 8 18 l 29
 11 23 l 29
 16 22 l 29
 12 18 l 29
EndSplineSet
Refer: 7 111 N 1 0 0 1 0 0 2
EndChar

StartChar: ocircumflex
Encoding: 244 244 69
Width: 18
VWidth: 0
Flags: HW
LayerCount: 2
Fore
SplineSet
11 17 m 29
 9 21 l 29
 7 17 l 29
 4 19 l 29
 8 23 l 29
 11 23 l 29
 15 19 l 29
 11 17 l 29
EndSplineSet
Refer: 7 111 N 1 0 0 1 0 0 2
EndChar

StartChar: otilde
Encoding: 245 245 70
Width: 18
VWidth: 0
Flags: HW
LayerCount: 2
Fore
SplineSet
4 16 m 13
 2 19 l 21
 3 20 6 22 9 21 c 4
 10.8975 20.3672 11 19 12 19 c 4
 13 19 15 21 15 22 c 13
 17 19 l 21
 16 18 13 16 10 17 c 4
 8.10254 17.6328 8 19 7 19 c 4
 6 19 4 17 4 16 c 13
EndSplineSet
Refer: 7 111 N 1 0 0 1 0 0 2
EndChar

StartChar: odieresis
Encoding: 246 246 71
Width: 18
VWidth: 0
Flags: HW
LayerCount: 2
Fore
SplineSet
8 18 m 29
 4 18 l 29
 4 22 l 29
 8 22 l 29
 8 18 l 29
15 18 m 29
 11 18 l 29
 11 22 l 29
 15 22 l 29
 15 18 l 29
EndSplineSet
Refer: 7 111 N 1 0 0 1 0 0 2
EndChar

StartChar: ugrave
Encoding: 249 249 72
Width: 17
VWidth: 0
Flags: HW
LayerCount: 2
Fore
SplineSet
8 18 m 29
 4 22 l 29
 9 23 l 29
 12 18 l 29
 8 18 l 29
EndSplineSet
Refer: 24 117 N 1 0 0 1 0 0 2
EndChar

StartChar: uacute
Encoding: 250 250 73
Width: 17
VWidth: 0
Flags: HW
LayerCount: 2
Fore
SplineSet
12 18 m 29
 8 18 l 29
 11 23 l 29
 16 22 l 29
 12 18 l 29
EndSplineSet
Refer: 24 117 N 1 0 0 1 0 0 2
EndChar

StartChar: ucircumflex
Encoding: 251 251 74
Width: 17
VWidth: 0
Flags: HW
LayerCount: 2
Fore
SplineSet
11 17 m 29
 9 21 l 29
 7 17 l 29
 4 19 l 29
 8 23 l 29
 11 23 l 29
 15 19 l 29
 11 17 l 29
EndSplineSet
Refer: 24 117 N 1 0 0 1 0 0 2
EndChar

StartChar: udieresis
Encoding: 252 252 75
Width: 17
VWidth: 0
Flags: HW
LayerCount: 2
Fore
SplineSet
8 18 m 29
 4 18 l 29
 4 22 l 29
 8 22 l 29
 8 18 l 29
15 18 m 29
 11 18 l 29
 11 22 l 29
 15 22 l 29
 15 18 l 29
EndSplineSet
Refer: 24 117 N 1 0 0 1 0 0 2
EndChar

StartChar: Ugrave
Encoding: 217 217 76
Width: 17
VWidth: 0
Flags: HW
LayerCount: 2
Fore
SplineSet
8 22 m 29
 4 26 l 29
 9 27 l 29
 12 22 l 29
 8 22 l 29
EndSplineSet
Refer: 37 85 N 1 0 0 1 0 0 2
EndChar

StartChar: Uacute
Encoding: 218 218 77
Width: 17
VWidth: 0
Flags: HW
LayerCount: 2
Fore
SplineSet
12 22 m 29
 8 22 l 29
 11 27 l 29
 16 26 l 29
 12 22 l 29
EndSplineSet
Refer: 37 85 N 1 0 0 1 0 0 2
EndChar

StartChar: Ucircumflex
Encoding: 219 219 78
Width: 17
VWidth: 0
Flags: HW
LayerCount: 2
Fore
SplineSet
11 21 m 29
 9 25 l 29
 7 21 l 29
 4 23 l 29
 8 27 l 29
 11 27 l 29
 15 23 l 29
 11 21 l 29
EndSplineSet
Refer: 37 85 N 1 0 0 1 0 0 2
EndChar

StartChar: Udieresis
Encoding: 220 220 79
Width: 17
VWidth: 0
Flags: HW
LayerCount: 2
Fore
SplineSet
8 22 m 29
 4 22 l 29
 4 26 l 29
 8 26 l 29
 8 22 l 29
15 22 m 29
 11 22 l 29
 11 26 l 29
 15 26 l 29
 15 22 l 29
EndSplineSet
Refer: 37 85 N 1 0 0 1 0 0 2
EndChar

StartChar: Ograve
Encoding: 210 210 80
Width: 18
VWidth: 0
Flags: HW
LayerCount: 2
Fore
SplineSet
8 22 m 29
 4 26 l 29
 9 27 l 29
 12 22 l 29
 8 22 l 29
EndSplineSet
Refer: 6 79 N 1 0 0 1 0 0 2
EndChar

StartChar: Oacute
Encoding: 211 211 81
Width: 18
VWidth: 0
Flags: HW
LayerCount: 2
Fore
SplineSet
12 22 m 29
 8 22 l 29
 11 27 l 29
 16 26 l 29
 12 22 l 29
EndSplineSet
Refer: 6 79 N 1 0 0 1 0 0 2
EndChar

StartChar: Ocircumflex
Encoding: 212 212 82
Width: 18
VWidth: 0
Flags: HW
LayerCount: 2
Fore
SplineSet
11 21 m 29
 9 25 l 29
 7 21 l 29
 4 23 l 29
 8 27 l 29
 11 27 l 29
 15 23 l 29
 11 21 l 29
EndSplineSet
Refer: 6 79 N 1 0 0 1 0 0 2
EndChar

StartChar: Otilde
Encoding: 213 213 83
Width: 18
VWidth: 0
Flags: HW
LayerCount: 2
Fore
SplineSet
4 20 m 13
 2 23 l 21
 3 24 6 26 9 25 c 4
 10.8975 24.3672 11 23 12 23 c 4
 13 23 15 25 15 26 c 13
 17 23 l 21
 16 22 13 20 10 21 c 4
 8.10254 21.6328 8 23 7 23 c 4
 6 23 4 21 4 20 c 13
EndSplineSet
Refer: 6 79 N 1 0 0 1 0 0 2
EndChar

StartChar: Odieresis
Encoding: 214 214 84
Width: 18
VWidth: 0
Flags: HW
LayerCount: 2
Fore
SplineSet
8 22 m 29
 4 22 l 29
 4 26 l 29
 8 26 l 29
 8 22 l 29
15 22 m 29
 11 22 l 29
 11 26 l 29
 15 26 l 29
 15 22 l 29
EndSplineSet
Refer: 6 79 N 1 0 0 1 0 0 2
EndChar

StartChar: Igrave
Encoding: 204 204 85
Width: 13
VWidth: 0
Flags: HW
LayerCount: 2
Fore
SplineSet
5 22 m 29
 1 26 l 29
 6 27 l 29
 9 22 l 29
 5 22 l 29
EndSplineSet
Refer: 0 73 N 1 0 0 1 0 0 2
EndChar

StartChar: Iacute
Encoding: 205 205 86
Width: 13
VWidth: 0
Flags: HW
LayerCount: 2
Fore
SplineSet
9 22 m 29
 5 22 l 29
 8 27 l 29
 13 26 l 29
 9 22 l 29
EndSplineSet
Refer: 0 73 N 1 0 0 1 0 0 2
EndChar

StartChar: Icircumflex
Encoding: 206 206 87
Width: 13
VWidth: 0
Flags: HW
LayerCount: 2
Fore
SplineSet
8 21 m 29
 6 25 l 29
 4 21 l 29
 1 23 l 29
 5 27 l 29
 8 27 l 29
 12 23 l 29
 8 21 l 29
EndSplineSet
Refer: 0 73 N 1 0 0 1 0 0 2
EndChar

StartChar: Idieresis
Encoding: 207 207 88
Width: 13
VWidth: 0
Flags: HW
LayerCount: 2
Fore
SplineSet
5 22 m 25
 2 22 l 25
 2 26 l 25
 5 26 l 25
 5 22 l 25
11 22 m 25
 7 22 l 25
 7 26 l 25
 11 26 l 25
 11 22 l 25
EndSplineSet
Refer: 0 73 N 1 0 0 1 0 0 2
EndChar

StartChar: Egrave
Encoding: 200 200 89
Width: 17
VWidth: 0
Flags: HW
LayerCount: 2
Fore
SplineSet
8 22 m 29
 4 26 l 29
 9 27 l 29
 12 22 l 29
 8 22 l 29
EndSplineSet
Refer: 3 69 N 1 0 0 1 0 0 2
EndChar

StartChar: Eacute
Encoding: 201 201 90
Width: 17
VWidth: 0
Flags: HW
LayerCount: 2
Fore
SplineSet
12 22 m 29
 8 22 l 29
 11 27 l 29
 16 26 l 29
 12 22 l 29
EndSplineSet
Refer: 3 69 N 1 0 0 1 0 0 2
EndChar

StartChar: Ecircumflex
Encoding: 202 202 91
Width: 17
VWidth: 0
Flags: HW
LayerCount: 2
Fore
SplineSet
10 21 m 29
 8 25 l 29
 6 21 l 29
 3 23 l 29
 7 27 l 29
 10 27 l 29
 14 23 l 29
 10 21 l 29
EndSplineSet
Refer: 3 69 N 1 0 0 1 0 0 2
EndChar

StartChar: Edieresis
Encoding: 203 203 92
Width: 17
VWidth: 0
Flags: HW
LayerCount: 2
Fore
SplineSet
7 22 m 29
 3 22 l 29
 3 26 l 29
 7 26 l 29
 7 22 l 29
14 22 m 29
 10 22 l 29
 10 26 l 29
 14 26 l 29
 14 22 l 29
EndSplineSet
Refer: 3 69 N 1 0 0 1 0 0 2
EndChar

StartChar: Agrave
Encoding: 192 192 93
Width: 18
VWidth: 0
Flags: HW
LayerCount: 2
Fore
SplineSet
8 23 m 29
 4 27 l 29
 9 28 l 29
 12 23 l 29
 8 23 l 29
EndSplineSet
Refer: 48 65 N 1 0 0 1 0 0 2
EndChar

StartChar: Aacute
Encoding: 193 193 94
Width: 18
VWidth: 0
Flags: HW
LayerCount: 2
Fore
SplineSet
12 22 m 29
 8 22 l 29
 11 27 l 29
 16 26 l 29
 12 22 l 29
EndSplineSet
Refer: 48 65 N 1 0 0 1 0 0 2
EndChar

StartChar: Acircumflex
Encoding: 194 194 95
Width: 18
VWidth: 0
Flags: HW
LayerCount: 2
Fore
SplineSet
11 21 m 29
 9 25 l 29
 7 21 l 29
 4 23 l 29
 8 27 l 29
 11 27 l 29
 15 23 l 29
 11 21 l 29
EndSplineSet
Refer: 48 65 N 1 0 0 1 0 0 2
EndChar

StartChar: Atilde
Encoding: 195 195 96
Width: 18
VWidth: 0
Flags: HW
LayerCount: 2
Fore
SplineSet
4 20 m 13
 2 23 l 21
 3 24 6 26 9 25 c 4
 10.8975 24.3672 11 23 12 23 c 4
 13 23 15 25 15 26 c 13
 17 23 l 21
 16 22 13 20 10 21 c 4
 8.10254 21.6328 8 23 7 23 c 4
 6 23 4 21 4 20 c 13
EndSplineSet
Refer: 48 65 N 1 0 0 1 0 0 2
EndChar

StartChar: Adieresis
Encoding: 196 196 97
Width: 18
VWidth: 0
Flags: HW
LayerCount: 2
Fore
SplineSet
7 22 m 29
 3 22 l 29
 3 26 l 29
 7 26 l 29
 7 22 l 29
14 22 m 29
 10 22 l 29
 10 26 l 29
 14 26 l 29
 14 22 l 29
EndSplineSet
Refer: 48 65 N 1 0 0 1 0 0 2
EndChar

StartChar: Aring
Encoding: 197 197 98
Width: 18
VWidth: 0
Flags: HW
LayerCount: 2
Fore
SplineSet
9 24 m 4
 8 24 8 24 8 23 c 28
 8 22 8 22 9 22 c 28
 10 22 10 22 10 23 c 28
 10 24 10 24 9 24 c 4
9 26 m 4
 11 26 12 24 12 23 c 4
 12 22 11 20 9 20 c 4
 7 20 6 22 6 23 c 4
 6 24 7 26 9 26 c 4
EndSplineSet
Refer: 48 65 N 1 0 0 1 0 0 2
EndChar

StartChar: Ntilde
Encoding: 209 209 99
Width: 17
VWidth: 0
Flags: HW
LayerCount: 2
Fore
SplineSet
3 20 m 13
 1 23 l 21
 2 24 5 26 8 25 c 4
 9.89746 24.3672 10 23 11 23 c 4
 12 23 14 25 14 26 c 13
 16 23 l 21
 15 22 12 20 9 21 c 4
 7.10254 21.6328 7 23 6 23 c 4
 5 23 3 21 3 20 c 13
EndSplineSet
Refer: 15 78 N 1 0 0 1 0 0 2
EndChar

StartChar: ntilde
Encoding: 241 241 100
Width: 17
VWidth: 0
Flags: HW
LayerCount: 2
Fore
SplineSet
3 16 m 13
 1 19 l 21
 2 20 5 22 8 21 c 4
 9.89746 20.3672 10 19 11 19 c 4
 12 19 14 21 14 22 c 13
 16 19 l 21
 15 18 12 16 9 17 c 4
 7.10254 17.6328 7 19 6 19 c 4
 5 19 3 17 3 16 c 13
EndSplineSet
Refer: 22 110 N 1 0 0 1 0 0 2
EndChar

StartChar: Yacute
Encoding: 221 221 101
Width: 17
VWidth: 0
Flags: HW
LayerCount: 2
Fore
SplineSet
11 22 m 29
 7 22 l 29
 10 27 l 29
 15 26 l 29
 11 22 l 29
EndSplineSet
Refer: 42 89 N 1 0 0 1 0 0 2
EndChar

StartChar: yacute
Encoding: 253 253 102
Width: 17
VWidth: 0
Flags: HW
LayerCount: 2
Fore
SplineSet
12 18 m 29
 8 18 l 29
 11 23 l 29
 16 22 l 29
 12 18 l 29
EndSplineSet
Refer: 46 121 N 1 0 0 1 0 0 2
EndChar

StartChar: ydieresis
Encoding: 255 255 103
Width: 17
VWidth: 0
Flags: HW
LayerCount: 2
Fore
SplineSet
8 18 m 29
 4 18 l 29
 4 22 l 29
 8 22 l 29
 8 18 l 29
15 18 m 29
 11 18 l 29
 11 22 l 29
 15 22 l 29
 15 18 l 29
EndSplineSet
Refer: 46 121 N 1 0 0 1 0 0 2
EndChar

StartChar: zero
Encoding: 48 48 105
Width: 18
VWidth: 0
Flags: HW
LayerCount: 2
Fore
SplineSet
10 17 m 0
 8 17 5 15 5 10 c 0
 5 6 7 5 9 5 c 4
 11 5 13 6 13 11 c 0
 13 15 12 17 10 17 c 0
9 0 m 0
 5 0 2 4 2 9 c 0
 2 15 6 20 10 20 c 0
 14 20 16 15 16 9 c 0
 16 5 14 0 9 0 c 0
EndSplineSet
EndChar

StartChar: seven
Encoding: 55 55 106
Width: 18
VWidth: 0
Flags: HW
LayerCount: 2
Fore
SplineSet
2 20 m 29
 16 20 l 21
 14 14 13 8 13 0 c 9
 7 1 l 17
 7 6 10 13 13 17 c 9
 3 15 l 25
 2 20 l 29
EndSplineSet
EndChar

StartChar: one
Encoding: 49 49 107
Width: 18
VWidth: 0
Flags: HW
LayerCount: 2
Fore
SplineSet
10 21 m 9
 13 20 l 25
 13 0 l 25
 6 0 l 25
 9 16 l 17
 8 14 5 13 4 13 c 9
 3 16 l 17
 5 16 9 19 10 21 c 9
EndSplineSet
EndChar

StartChar: three
Encoding: 51 51 108
Width: 18
VWidth: 0
Flags: HW
LayerCount: 2
Fore
SplineSet
2 0 m 9
 3 6 l 17
 4 5 6 4 8 4 c 0
 10 4 12 4.76393 12 7 c 0
 12 9 9 10 6 10 c 9
 8 12 l 17
 12 13 16 12 16 7 c 0
 16 2.87689 14 1 11 0 c 0
 8 -1 5 -1 2 0 c 9
6 10 m 25
 11 19 l 25
 16 20 l 25
 10 11 l 25
 6 10 l 25
2 20 m 25
 16 20 l 25
 14 18 l 25
 3 15 l 25
 2 20 l 25
EndSplineSet
EndChar

StartChar: four
Encoding: 52 52 109
Width: 18
VWidth: 0
Flags: HW
LayerCount: 2
Fore
SplineSet
16 7 m 25
 2 7 l 25
 5 9 l 25
 16 10 l 25
 16 7 l 25
2 7 m 17
 5 10 9 17 9 20 c 1
 12 20 l 1
 12 19 l 1
 11 17 8 11 5 8 c 9
 2 7 l 17
14 0 m 25
 9 0 l 25
 11 20 l 25
 14 20 l 25
 14 0 l 25
EndSplineSet
EndChar

StartChar: eight
Encoding: 56 56 110
Width: 18
VWidth: 0
Flags: HW
LayerCount: 2
Fore
SplineSet
5 7 m 0
 5 5 7 4 9 4 c 0
 11 4 13 5 13 7 c 0
 13 9 11 10 9 10 c 0
 7 10 5 9 5 7 c 0
9 17 m 24
 8 17 7 16 7 15 c 24
 7 14 8 13 9 13 c 24
 10 13 11 14 11 15 c 24
 11 16 10 17 9 17 c 24
9 20 m 24
 12 20 14 18 14 15 c 24
 14 12 12 10 9 10 c 24
 6 10 4 12 4 15 c 24
 4 18 6 20 9 20 c 24
9 0 m 24
 5 0 2 2 2 6 c 24
 2 10 5 12 9 12 c 24
 13 12 16 10 16 6 c 24
 16 2 13 0 9 0 c 24
EndSplineSet
EndChar

StartChar: two
Encoding: 50 50 111
Width: 18
VWidth: 0
Flags: HW
LayerCount: 2
Fore
SplineSet
2 18 m 17
 4 19 5.83772 20 9 20 c 0
 12 20 16 19 16 15 c 0
 16 9 9 3 2 0 c 13
 2 2 l 17
 6 5 9 7 11 12 c 24
 12 14 11 17 9 17 c 24
 7 17 5 15 4 13 c 9
 2 18 l 17
16 0 m 25
 2 0 l 25
 2 2 l 25
 16 5 l 25
 16 0 l 25
EndSplineSet
EndChar

StartChar: six
Encoding: 54 54 112
Width: 18
VWidth: 0
Flags: HW
LayerCount: 2
Fore
SplineSet
6 9 m 1
 6 6 7 4 9 4 c 0
 11 4 13 5 12 8 c 0
 11.293 10.1211 9 10 6 9 c 1
16 19 m 9
 15 15 l 17
 12 18 6 16 6 12 c 1
 10 13 16 13 16 6 c 0
 16 2.83772 13 0 9 0 c 0
 3.90098 0 2 5 2 10 c 24
 2 15 7 20 10 20 c 0
 13 20 13 20 16 19 c 9
EndSplineSet
EndChar

StartChar: nine
Encoding: 57 57 113
Width: 18
VWidth: 0
Flags: HW
LayerCount: 2
Fore
SplineSet
12 12 m 1
 12 14 12 17 10 17 c 24
 8 17 6 16 6 13 c 0
 6 10 10 11 12 12 c 1
9 20 m 0
 16 20 16 15 16 10 c 0
 16 4 12 1 7 -1 c 9
 5 2 l 17
 8 3 12 5 12 9 c 5
 8 7 3 6 3 13 c 0
 3 16 5.83772 20 9 20 c 0
EndSplineSet
EndChar

StartChar: five
Encoding: 53 53 114
Width: 18
VWidth: 0
Flags: HW
LayerCount: 2
Fore
SplineSet
2 1 m 9
 3 6 l 25
 5 5 6 4 8 4 c 24
 10 4 12.707 5.87891 12 8 c 0
 11 11 7 11 2 10 c 9
 3 13 l 17
 9 14 16 13 16 7 c 0
 16 2.87695 13.4717 0 9 0 c 0
 6 0 5 0 2 1 c 9
2 20 m 25
 16 20 l 25
 15 15 l 25
 6 17 l 25
 5 12 l 25
 2 10 l 25
 2 20 l 25
EndSplineSet
EndChar

StartChar: period
Encoding: 46 46 115
Width: 10
VWidth: 0
Flags: HW
LayerCount: 2
Fore
SplineSet
2 0 m 29
 2 6 l 29
 8 6 l 29
 8 0 l 29
 2 0 l 29
EndSplineSet
EndChar

StartChar: comma
Encoding: 44 44 116
Width: 10
VWidth: 0
Flags: HW
LayerCount: 2
Fore
SplineSet
2 -2 m 29
 3 6 l 25
 8 4 l 25
 4 -3 l 25
 2 -2 l 29
EndSplineSet
EndChar

StartChar: hyphen
Encoding: 45 45 117
Width: 16
VWidth: 0
Flags: HW
LayerCount: 2
Fore
SplineSet
13 12 m 29
 14 8 l 29
 2 8 l 29
 2 10 l 29
 13 12 l 29
EndSplineSet
EndChar

StartChar: plus
Encoding: 43 43 119
Width: 16
VWidth: 0
Flags: HW
LayerCount: 2
Fore
SplineSet
6 4 m 25
 7 16 l 25
 10 16 l 25
 10 4 l 25
 6 4 l 25
14 11 m 25
 14 9 l 25
 2 8 l 25
 2 12 l 25
 14 11 l 25
EndSplineSet
EndChar

StartChar: quotesingle
Encoding: 39 39 120
Width: 10
VWidth: 0
Flags: HW
LayerCount: 2
Fore
SplineSet
2 13 m 25
 3 21 l 25
 8 20 l 25
 4 13 l 25
 2 13 l 25
EndSplineSet
EndChar

StartChar: grave
Encoding: 96 96 121
Width: 10
VWidth: 0
Flags: HW
LayerCount: 2
Fore
SplineSet
8 13 m 29
 6 13 l 29
 2 20 l 29
 7 21 l 29
 8 13 l 29
EndSplineSet
EndChar

StartChar: quotedbl
Encoding: 34 34 122
Width: 16
VWidth: 0
Flags: HW
LayerCount: 2
Fore
SplineSet
8 13 m 25
 9 21 l 25
 14 20 l 25
 10 13 l 25
 8 13 l 25
2 13 m 25
 3 21 l 25
 8 20 l 25
 4 13 l 25
 2 13 l 25
EndSplineSet
EndChar

StartChar: exclam
Encoding: 33 33 123
Width: 10
VWidth: 0
Flags: HW
LayerCount: 2
Fore
SplineSet
6 8 m 25
 3 8 l 25
 3 21 l 25
 9 20 l 25
 6 8 l 25
2 0 m 25
 2 5 l 25
 7 5 l 25
 7 0 l 25
 2 0 l 25
EndSplineSet
EndChar

StartChar: equal
Encoding: 61 61 124
Width: 16
VWidth: 0
Flags: HW
LayerCount: 2
Fore
SplineSet
3 11 m 29
 2 15 l 29
 14 15 l 29
 14 13 l 29
 3 11 l 29
13 10 m 29
 14 6 l 29
 2 6 l 29
 2 8 l 29
 13 10 l 29
EndSplineSet
EndChar

StartChar: colon
Encoding: 58 58 125
Width: 10
VWidth: 0
Flags: HW
LayerCount: 2
Fore
SplineSet
3 11 m 25
 3 16 l 25
 8 16 l 25
 8 11 l 25
 3 11 l 25
2 1 m 25
 2 6 l 25
 8 6 l 29
 8 1 l 29
 2 1 l 25
EndSplineSet
EndChar

StartChar: semicolon
Encoding: 59 59 126
Width: 10
VWidth: 0
Flags: HW
LayerCount: 2
Fore
SplineSet
3 11 m 29
 3 16 l 29
 8 16 l 29
 8 11 l 29
 3 11 l 29
2 -2 m 25
 3 6 l 25
 8 4 l 25
 4 -3 l 25
 2 -2 l 25
EndSplineSet
EndChar

StartChar: underscore
Encoding: 95 95 127
Width: 16
VWidth: 0
Flags: HW
LayerCount: 2
Fore
SplineSet
13 3 m 25
 14 -1 l 25
 2 -1 l 25
 2 1 l 25
 13 3 l 25
EndSplineSet
EndChar

StartChar: macron
Encoding: 175 175 128
Width: 16
VWidth: 0
Flags: HW
LayerCount: 2
Fore
SplineSet
3 17 m 29
 2 21 l 29
 14 21 l 29
 14 19 l 29
 3 17 l 29
EndSplineSet
EndChar

StartChar: less
Encoding: 60 60 129
Width: 20
VWidth: 0
Flags: HW
LayerCount: 2
Fore
SplineSet
2 10 m 25
 13 22 l 25
 18 17 l 25
 6 10 l 25
 18 3 l 25
 13 -2 l 25
 2 10 l 25
EndSplineSet
EndChar

StartChar: greater
Encoding: 62 62 130
Width: 20
VWidth: 0
Flags: HW
LayerCount: 2
Fore
SplineSet
18 10 m 29
 7 -2 l 29
 2 3 l 29
 14 10 l 29
 2 17 l 29
 7 22 l 29
 18 10 l 29
EndSplineSet
EndChar

StartChar: guillemotleft
Encoding: 171 171 131
Width: 24
VWidth: 0
Flags: HW
LayerCount: 2
Fore
SplineSet
11 10 m 29
 18 18 l 29
 22 14 l 29
 15 10 l 29
 22 6 l 29
 18 2 l 29
 11 10 l 29
2 10 m 29
 9 18 l 29
 13 14 l 29
 6 10 l 29
 13 6 l 29
 9 2 l 29
 2 10 l 29
EndSplineSet
EndChar

StartChar: guillemotright
Encoding: 187 187 132
Width: 24
VWidth: 0
Flags: HW
LayerCount: 2
Fore
SplineSet
13 10 m 29
 6 2 l 29
 2 6 l 29
 9 10 l 29
 2 14 l 29
 6 18 l 29
 13 10 l 29
22 10 m 29
 15 2 l 29
 11 6 l 29
 18 10 l 29
 11 14 l 29
 15 18 l 29
 22 10 l 29
EndSplineSet
EndChar

StartChar: logicalnot
Encoding: 172 172 133
Width: 16
VWidth: 0
Flags: HW
LayerCount: 2
Fore
SplineSet
3 9 m 13
 2 13 l 29
 14 13 l 29
 14 5 l 21
 10 5 l 5
 11 10 l 5
 3 9 l 13
EndSplineSet
EndChar

StartChar: plusminus
Encoding: 177 177 134
Width: 16
VWidth: 0
Flags: HW
LayerCount: 2
Fore
SplineSet
13 6 m 29
 14 2 l 29
 2 2 l 29
 2 4 l 29
 13 6 l 29
6 7 m 29
 7 19 l 29
 10 19 l 29
 10 7 l 29
 6 7 l 29
14 14 m 29
 14 12 l 29
 2 11 l 29
 2 15 l 29
 14 14 l 29
EndSplineSet
EndChar

StartChar: bracketleft
Encoding: 91 91 135
Width: 12
VWidth: 0
Flags: HW
LayerCount: 2
Fore
SplineSet
2 -4 m 25
 2 24 l 25
 10 24 l 25
 10 20 l 25
 5 21 l 25
 6 0 l 25
 10 1 l 25
 10 -4 l 25
 2 -4 l 25
EndSplineSet
EndChar

StartChar: bracketright
Encoding: 93 93 136
Width: 12
VWidth: 0
Flags: HW
LayerCount: 2
Fore
SplineSet
10 -4 m 29
 2 -4 l 29
 2 1 l 29
 6 0 l 29
 7 21 l 29
 2 20 l 29
 2 24 l 29
 10 24 l 29
 10 -4 l 29
EndSplineSet
EndChar

StartChar: parenleft
Encoding: 40 40 137
Width: 12
VWidth: 0
Flags: HW
LayerCount: 2
Fore
SplineSet
9 24 m 9
 11 20 l 17
 8 18 5 15 5 10 c 24
 5 5 8 2 11 0 c 9
 8 -4 l 17
 5 -1 2 4 2 10 c 24
 2 16 5 21 9 24 c 9
EndSplineSet
EndChar

StartChar: parenright
Encoding: 41 41 138
Width: 12
VWidth: 0
Flags: HW
LayerCount: 2
Fore
SplineSet
3 -4 m 13
 1 0 l 21
 4 2 7 5 7 10 c 28
 7 15 4 18 1 20 c 13
 4 24 l 21
 7 21 10 16 10 10 c 28
 10 4 7 -1 3 -4 c 13
EndSplineSet
EndChar

StartChar: dollar
Encoding: 36 36 139
Width: 17
VWidth: 0
Flags: HW
LayerCount: 2
Fore
SplineSet
6 -4 m 29
 7 1 l 29
 10 1 l 29
 10 -4 l 29
 6 -4 l 29
7 19 m 29
 7 24 l 29
 11 24 l 29
 10 19 l 29
 7 19 l 29
15 19 m 9
 14 14 l 17
 12 16 11 16 8 16 c 0
 7 16 6 15 6 14 c 0
 6 12 8.58594 11 10 11 c 0
 12 11 15 9 15 5 c 0
 15 2 11 0 8 0 c 0
 6 0 4 0 2 1 c 9
 3 6 l 17
 5 4 7 4 9 4 c 24
 10 4 11 5 11 6 c 0
 11 8 8.41406 9 7 9 c 0
 5 9 2 11 2 15 c 0
 2 18 5.83772 20 9 20 c 0
 11 20 13 20 15 19 c 9
EndSplineSet
EndChar

StartChar: question
Encoding: 63 63 140
Width: 18
VWidth: 0
Flags: HW
LayerCount: 2
Fore
SplineSet
2 19 m 17
 4 20 7 21 10 21 c 0
 14 21 16 20 16 16 c 0
 16 12 14 10 11 7 c 9
 6 8 l 17
 9 10 12 13 12 15 c 0
 12 17 11 18 9 18 c 0
 7 18 5 16 3 14 c 9
 2 19 l 17
6 0 m 25
 6 5 l 25
 11 5 l 25
 11 0 l 25
 6 0 l 25
EndSplineSet
EndChar

StartChar: uni0000
Encoding: 0 0 141
Width: 18
VWidth: 0
Flags: HW
LayerCount: 2
Fore
SplineSet
0 26 m 29
 18 26 l 25
 18 -6 l 25
 0 -6 l 25
 0 26 l 29
2 19 m 9
 3 14 l 17
 5 16 7 18 9 18 c 0
 11 18 12 17 12 15 c 0
 12 13 9 10 6 8 c 9
 11 7 l 17
 14 10 16 12 16 16 c 0
 16 20 14 21 10 21 c 0
 7 21 4 20 2 19 c 9
6 0 m 25
 11 0 l 25
 11 5 l 25
 6 5 l 25
 6 0 l 25
EndSplineSet
EndChar

StartChar: slash
Encoding: 47 47 144
Width: 16
VWidth: 0
Flags: HW
LayerCount: 2
Fore
SplineSet
6 -1 m 9
 2 1 l 17
 6 9 8 13 10 21 c 9
 14 19 l 17
 10 11 8 7 6 -1 c 9
EndSplineSet
EndChar

StartChar: backslash
Encoding: 92 92 145
Width: 16
VWidth: 0
Flags: HW
LayerCount: 2
Fore
SplineSet
10 -1 m 21
 8 7 6 11 2 19 c 13
 6 21 l 21
 8 13 10 9 14 1 c 13
 10 -1 l 21
EndSplineSet
EndChar

StartChar: numbersign
Encoding: 35 35 146
Width: 21
VWidth: 0
Flags: HW
LayerCount: 2
Fore
SplineSet
17 21 m 25
 14 0 l 25
 11 0 l 25
 13 21 l 25
 17 21 l 25
4 0 m 25
 7 21 l 25
 10 21 l 25
 8 0 l 25
 4 0 l 25
4 17 m 25
 19 16 l 25
 19 14 l 25
 4 13 l 25
 4 17 l 25
17 3 m 25
 2 4 l 25
 2 6 l 25
 17 7 l 25
 17 3 l 25
EndSplineSet
EndChar

StartChar: percent
Encoding: 37 37 147
Width: 22
VWidth: 0
Flags: HW
LayerCount: 2
Fore
SplineSet
8 -1 m 9
 4 1 l 17
 9 9 11 13 14 21 c 9
 18 19 l 17
 13 11 11 7 8 -1 c 9
15 6 m 24
 14 6 13 5 13 4 c 24
 13 3 13 2 15 2 c 0
 16 2 17 3 17 4 c 0
 17 6 16 6 15 6 c 24
15 -1 m 24
 12 -1 10 0 10 4 c 0
 10 6 12 9 15 9 c 0
 19 9 20 7 20 4 c 24
 20 1 18 -1 15 -1 c 24
7 18 m 24
 6 18 5 17 5 16 c 24
 5 15 5 14 7 14 c 0
 8 14 9 15 9 16 c 0
 9 18 8 18 7 18 c 24
7 11 m 24
 4 11 2 12 2 16 c 0
 2 18 4 21 7 21 c 0
 11 21 12 19 12 16 c 24
 12 13 10 11 7 11 c 24
EndSplineSet
EndChar

StartChar: multiply
Encoding: 215 215 148
Width: 16
VWidth: 0
Flags: HW
LayerCount: 2
Fore
SplineSet
2 13 m 25
 5 16 l 25
 8 11 l 25
 11 16 l 25
 14 13 l 25
 10 10 l 25
 14 5 l 29
 10 2 l 25
 8 8 l 25
 6 2 l 25
 2 5 l 29
 6 10 l 25
 2 13 l 25
EndSplineSet
EndChar

StartChar: divide
Encoding: 247 247 149
Width: 16
VWidth: 0
Flags: HW
LayerCount: 2
Fore
SplineSet
10 13 m 25
 6 13 l 25
 6 17 l 25
 10 17 l 25
 10 13 l 25
6 6 m 25
 10 6 l 25
 10 2 l 25
 6 2 l 25
 6 6 l 25
13 12 m 25
 14 8 l 25
 2 8 l 25
 2 10 l 25
 13 12 l 25
EndSplineSet
EndChar

StartChar: periodcentered
Encoding: 183 183 151
Width: 10
VWidth: 0
Flags: HW
LayerCount: 2
Fore
SplineSet
2 6 m 25
 2 12 l 25
 8 12 l 25
 8 6 l 25
 2 6 l 25
EndSplineSet
EndChar

StartChar: asterisk
Encoding: 42 42 152
Width: 20
VWidth: 0
Flags: HW
LayerCount: 2
Fore
SplineSet
10 7 m 25
 7 1 l 25
 3 3 l 25
 8 8 l 25
 2 9 l 25
 3 15 l 25
 8 11 l 25
 7 19 l 25
 14 18 l 25
 10 10 l 25
 16 15 l 25
 18 9 l 25
 12 8 l 25
 17 3 l 25
 13 1 l 25
 10 7 l 25
EndSplineSet
EndChar

StartChar: asciicircum
Encoding: 94 94 153
Width: 17
VWidth: 0
Flags: HW
LayerCount: 2
Fore
SplineSet
6 21 m 9
 11 22 l 17
 11 18.6668 12 15 15 12 c 9
 12 9 l 17
 10 12 9 15 9 19 c 1
 8.58398 14.248 8 12 6 9 c 9
 2 12 l 17
 4 14 5.85352 15.6885 6 21 c 9
EndSplineSet
EndChar

StartChar: brokenbar
Encoding: 166 166 154
Width: 8
VWidth: 0
Flags: HW
LayerCount: 2
Fore
SplineSet
5 12 m 25
 3 11 l 25
 2 24 l 25
 6 23 l 25
 5 12 l 25
6 -4 m 25
 2 -3 l 25
 3 8 l 25
 5 9 l 25
 6 -4 l 25
EndSplineSet
EndChar

StartChar: cent
Encoding: 162 162 156
Width: 17
VWidth: 0
Flags: HW
LayerCount: 2
Fore
SplineSet
6 -2 m 29
 7 3 l 29
 10 3 l 29
 10 -2 l 29
 6 -2 l 29
7 17 m 25
 7 22 l 25
 11 22 l 25
 10 17 l 25
 7 17 l 25
EndSplineSet
Refer: 33 99 N 1 0 0 1 0 2 2
EndChar

StartChar: yen
Encoding: 165 165 157
Width: 17
VWidth: 0
Flags: HW
LayerCount: 2
Fore
SplineSet
15 7 m 29
 2 8 l 25
 2 10 l 25
 15 11 l 25
 15 7 l 29
EndSplineSet
Refer: 42 89 N 1 0 0 1 0 0 2
EndChar

StartChar: ampersand
Encoding: 38 38 158
Width: 19
VWidth: 0
Flags: HW
LayerCount: 2
Fore
SplineSet
14 12 m 9
 17 10 l 17
 15 6 12.3852 0 7 0 c 0
 4 0 2 2.83772 2 6 c 0
 2 8 3 10 5 11 c 9
 7 10 l 17
 6 9 5 7 5 5 c 24
 5 4 5.58579 3 7 3 c 0
 8 3 12 7 14 12 c 9
17 3 m 9
 14 0 l 17
 10 5 3 11 3 14 c 0
 3 19 6 20 8 20 c 0
 10 20 11 20 14 18 c 9
 11 15 l 17
 10 17 9 17 8 17 c 0
 7 17 6 16 6 14 c 0
 6 12 12 7 17 3 c 9
EndSplineSet
EndChar

StartChar: at
Encoding: 64 64 159
Width: 26
VWidth: 0
Flags: HW
LayerCount: 2
Fore
SplineSet
15 14 m 9
 17 15 l 17
 17 13 17.5859 9 19 9 c 0
 20 9 21 10 21 11 c 0
 21 16 18 18 14 18 c 24
 10 18 7 15 6 11 c 0
 4.54492 5.17871 9.83789 2 13 2 c 0
 15 2 16 2 18 3 c 9
 19 -1 l 17
 16 -2 16 -2 13 -2 c 0
 7.16895 -2 1.13977 3.97837 2 10 c 0
 3 17 8 22 14 22 c 0
 21 22 24 17 24 11 c 0
 24 8.76367 22 6 19 6 c 0
 15.8379 6 15 11 15 14 c 9
15 13 m 1
 14 13 12 12 11 10 c 0
 10.5527 9.10547 11.5859 8 13 8 c 0
 15 8 15 11 15 13 c 1
17 15 m 1
 18 9 16 5 13 5 c 0
 10.7637 5 7 6 8 10 c 0
 8.7666 13.0674 13 16 17 15 c 1
EndSplineSet
EndChar

StartChar: ccedilla
Encoding: 231 231 160
Width: 17
VWidth: 0
Flags: HW
LayerCount: 2
Fore
SplineSet
8 2 m 29
 15 -1 l 29
 13 -4 l 29
 7 1 l 29
 8 2 l 29
15 -1 m 29
 13 -4 l 29
 4 -3 l 29
 4 -1 l 29
 15 -1 l 29
EndSplineSet
Refer: 33 99 N 1 0 0 1 0 0 2
EndChar

StartChar: Ccedilla
Encoding: 199 199 161
Width: 17
VWidth: 0
Flags: HW
LayerCount: 2
Fore
SplineSet
8 2 m 25
 15 -1 l 25
 13 -4 l 29
 7 1 l 25
 8 2 l 25
15 -1 m 25
 13 -4 l 29
 4 -3 l 25
 4 -1 l 25
 15 -1 l 25
EndSplineSet
Refer: 32 67 N 1 0 0 1 0 0 2
EndChar

StartChar: ae
Encoding: 230 230 162
Width: 25
VWidth: 0
Flags: HW
LayerCount: 2
Fore
SplineSet
21 6 m 9
 23 2 l 17
 20 0 20 0 17 0 c 0
 12.5283 0 11 2 11 6 c 0
 11 11 14 16 18 16 c 0
 23 16 24 11 22 8 c 9
 19 8 l 17
 21 11 19 13 17 13 c 0
 16 13 14 12 14 9 c 0
 14 6 15 4 17 4 c 0
 19 4 20 5 21 6 c 9
20 8 m 25
 14 8 l 25
 14 11 l 25
 20 11 l 25
 20 8 l 25
11 13 m 1
 9 13 7 11 6 8 c 0
 5 5 6.10263 4.36754 8 5 c 0
 11 6 11 11 11 13 c 1
14 16 m 17
 15 9 11 1 7 0 c 0
 4.08957 -0.727607 1.5528 2.86962 2 6 c 0
 3 13 8 16 13 16 c 9
 14 16 l 17
EndSplineSet
EndChar

StartChar: AE
Encoding: 198 198 163
Width: 21
VWidth: 0
Flags: HW
LayerCount: 2
Fore
SplineSet
19 0 m 25
 9 0 l 25
 10 3 l 25
 19 4 l 25
 19 0 l 25
17 13 m 25
 17 10 l 25
 11 10 l 25
 11 13 l 25
 17 13 l 25
9 0 m 25
 11 20 l 25
 13 20 l 25
 13 0 l 25
 9 0 l 25
9 20 m 25
 19 20 l 25
 19 16 l 25
 9 18 l 25
 9 20 l 25
5 6 m 25
 5 9 l 25
 11 9 l 25
 11 6 l 25
 5 6 l 25
3 20 m 25
 12 20 l 25
 12 19 l 25
 4 16 l 25
 3 20 l 25
13 1 m 25
 9 0 l 25
 9 19 l 25
 12 20 l 25
 13 1 l 25
5 0 m 25
 2 1 l 25
 8 20 l 25
 10 20 l 25
 5 0 l 25
EndSplineSet
EndChar

StartChar: Oslash
Encoding: 216 216 164
Width: 18
VWidth: 0
Flags: HW
LayerCount: 2
Fore
SplineSet
7 -3 m 9
 3 -1 l 17
 7 7 9 15 11 23 c 13
 15 21 l 21
 11 13 9 5 7 -3 c 9
10 17 m 0
 8 17 6 14 6 11 c 0
 6 9 7 6 9 6 c 0
 11 6 13 8 13 12 c 0
 13 15 12 17 10 17 c 0
9 0 m 0
 5 0 2 4 2 9 c 0
 2 15 6 20 10 20 c 0
 14 20 16 15 16 9 c 0
 16 5 14 0 9 0 c 0
EndSplineSet
EndChar

StartChar: oslash
Encoding: 248 248 165
Width: 18
VWidth: 0
Flags: HW
LayerCount: 2
Fore
SplineSet
7 -3 m 9
 3 -1 l 17
 7 7 9 11 11 19 c 9
 15 17 l 17
 11 9 9 5 7 -3 c 9
10 13 m 0
 7 13 6 11 6 9 c 0
 6 7 7 5 9 5 c 0
 11 5 13 6 13 9 c 0
 13 12 12 13 10 13 c 0
9 0 m 0
 5 0 2 2 2 7 c 0
 2 13 6 16 10 16 c 0
 14 16 16 13 16 7 c 0
 16 3 14 0 9 0 c 0
EndSplineSet
EndChar

StartChar: germandbls
Encoding: 223 223 166
Width: 17
VWidth: 0
Flags: HW
LayerCount: 2
Fore
SplineSet
3 -1 m 17
 2 3 2 5 2 9 c 0
 2 14.099 5 19 9 20 c 0
 11.1693 20.5423 15 19 15 16 c 0
 15 13.7637 14 12 12 10 c 1
 14 9 16 8 16 4 c 4
 16 0.837891 12 0 9 0 c 9
 8 5 l 17
 10 5 12 5 12 7 c 24
 12 9 10 9 8 10 c 1
 10 12 12 13 12 16 c 24
 12 17 10.2649 17.6325 9 17 c 0
 7 16 6 13 6 9 c 0
 6 6 6 4 7 0 c 9
 3 -1 l 17
EndSplineSet
EndChar

StartChar: Thorn
Encoding: 222 222 167
Width: 17
VWidth: 0
Flags: HW
LayerCount: 2
Fore
SplineSet
3 16 m 21
 9 16 15 15 15 8 c 4
 15 1 9 2 6 2 c 13
 3 7 l 21
 6 6 11 5 11 9 c 4
 11 14 6 13 3 13 c 13
 3 16 l 21
2 0 m 25
 2 20 l 25
 5 20 l 25
 7 0 l 25
 2 0 l 25
EndSplineSet
EndChar

StartChar: thorn
Encoding: 254 254 168
Width: 18
VWidth: 0
Flags: HW
LayerCount: 2
Fore
SplineSet
2 -3 m 29
 2 12 l 25
 4 12 l 25
 6 -3 l 25
 2 -3 l 29
2 0 m 25
 2 20 l 25
 6 20 l 25
 4 0 l 25
 2 0 l 25
11 13 m 0
 8 13 6 10 6 8 c 0
 6 6 7 5 9 5 c 0
 11 5 13 7 13 9 c 0
 13 11 13 13 11 13 c 0
11 16 m 0
 15 16 16 11 16 8 c 0
 16 3 13 0 10 0 c 0
 6 0 3 3 3 7 c 0
 3 11 8 16 11 16 c 0
EndSplineSet
EndChar

StartChar: Eth
Encoding: 208 208 169
Width: 18
VWidth: 0
Flags: HW
LayerCount: 2
Fore
SplineSet
1 12 m 25
 10 11 l 29
 9 8 l 29
 1 10 l 25
 1 12 l 25
7 17 m 9
 7 5 l 17
 9 5 13 6 13 11 c 0
 13 15 9 17 7 17 c 9
1 18 m 17
 3 19 5 20 7 20 c 0
 13 20 16 15 16 9 c 0
 16 4 11 0 7 0 c 9
 5 16 l 25
 2 15 l 25
 1 18 l 17
2 0 m 25
 4 18 l 25
 7 18 l 25
 7 0 l 25
 2 0 l 25
EndSplineSet
EndChar

StartChar: eth
Encoding: 240 240 170
Width: 17
VWidth: 0
Flags: HW
LayerCount: 2
Fore
SplineSet
4 18 m 25
 14 18 l 25
 14 16 l 25
 5 14 l 25
 4 18 l 25
14 13 m 9
 14 10 l 17
 11 10 6 10 6 7 c 24
 6 4 11 4 14 5 c 9
 10 0 l 17
 7 0 2 2 2 6 c 0
 2 12 8 13 14 13 c 9
15 0 m 25
 10 0 l 25
 12 20 l 25
 15 20 l 25
 15 0 l 25
EndSplineSet
EndChar

StartChar: paragraph
Encoding: 182 182 171
Width: 17
VWidth: 0
Flags: HW
LayerCount: 2
Fore
SplineSet
9 16 m 29
 9 0 l 29
 11 0 l 29
 10 16 l 29
 9 16 l 29
15 18 m 13
 14 15 l 29
 8 17 l 29
 9 7 l 21
 7 7 1 8 1 13 c 4
 1 17.123 3.52832 20 8 20 c 4
 10 20 13 19 15 18 c 13
14 0 m 29
 5 0 l 29
 6 18 l 29
 12 18 l 29
 14 0 l 29
EndSplineSet
EndChar

StartChar: uni00B5
Encoding: 181 181 172
Width: 17
VWidth: 0
Flags: HW
LayerCount: 2
Fore
SplineSet
2 -4 m 25
 2 16 l 25
 7 15 l 25
 5 -4 l 25
 2 -4 l 25
2 16 m 9
 7 15 l 17
 6 12 5 10 5 8 c 0
 5 6 7 5 8 5 c 0
 10 5 12 8 12 10 c 9
 15 9 l 17
 15 7 11 2 8 2 c 0
 3 2 2 5.83789 2 9 c 0
 2 11 2 12 2 16 c 9
15 15 m 25
 15 0 l 25
 12 0 l 25
 11 15 l 25
 15 15 l 25
EndSplineSet
EndChar

StartChar: cedilla
Encoding: 184 184 173
Width: 13
VWidth: 0
Flags: HW
LayerCount: 2
Fore
SplineSet
7 4 m 29
 11 -1 l 25
 9 -4 l 25
 5 2 l 25
 7 4 l 29
11 -1 m 25
 9 -4 l 25
 2 -3 l 25
 2 -1 l 25
 11 -1 l 25
EndSplineSet
EndChar

StartChar: uni00B9
Encoding: 185 185 174
Width: 14
VWidth: 0
Flags: HW
LayerCount: 2
Fore
SplineSet
8 23 m 9
 11 22 l 25
 11 8 l 25
 5 8 l 29
 7 19 l 17
 6 17 5 17 4 17 c 9
 3 20 l 17
 5 20 7 21 8 23 c 9
EndSplineSet
EndChar

StartChar: uni00B2
Encoding: 178 178 175
Width: 14
VWidth: 0
Flags: HW
LayerCount: 2
Fore
SplineSet
2 21 m 17
 5 22 6 22 8 22 c 0
 10 22 12 21 12 18 c 0
 12 15 8 10 2 8 c 9
 2 10 l 17
 6 13 7 14 8 16 c 0
 8.99995 17.9999 9 19 8 19 c 0
 7 19 5 18 3 15 c 9
 2 21 l 17
12 8 m 25
 2 8 l 25
 2 10 l 25
 12 12 l 25
 12 8 l 25
EndSplineSet
EndChar

StartChar: uni00B3
Encoding: 179 179 176
Width: 14
VWidth: 0
Flags: HW
LayerCount: 2
Fore
SplineSet
2 9 m 13
 3 14 l 21
 5 11 6 11 7 11 c 4
 8 11 9.58105 11.4189 8 13 c 4
 7 14 7 14 5 15 c 13
 7 16 l 21
 8 16 12 15 12 12 c 4
 12 9 10 8 8 8 c 4
 6 8 5 8 2 9 c 13
2 21 m 21
 5 22 6 22 8 22 c 4
 10 22 12 21 12 18 c 4
 12 15 9 15 8 15 c 13
 5 15 l 21
 7 16 7 16 8 17 c 4
 9.58105 18.5811 8 19 7 19 c 4
 6 19 5 19 3 17 c 13
 2 21 l 21
EndSplineSet
EndChar

StartChar: onehalf
Encoding: 189 189 177
Width: 20
VWidth: 0
Flags: HW
LayerCount: 2
Fore
SplineSet
2 9 m 17
 3 9 13 12 17 14 c 9
 18 11 l 17
 17 11 7 8 3 6 c 9
 2 9 l 17
8 7 m 17
 11 8 12 8 14 8 c 0
 16 8 18 7 18 4 c 0
 18 1 14 -4 8 -6 c 9
 8 -4 l 17
 12 -1 13 0 14 2 c 0
 15 4 15 5 14 5 c 0
 13 5 11 4 9 1 c 9
 8 7 l 17
18 -6 m 25
 8 -6 l 25
 8 -4 l 25
 18 -2 l 25
 18 -6 l 25
8 27 m 9
 11 26 l 25
 11 12 l 25
 5 12 l 25
 7 23 l 17
 6 21 5 21 4 21 c 9
 3 24 l 17
 5 24 7 25 8 27 c 9
EndSplineSet
EndChar

StartChar: threequarters
Encoding: 190 190 178
Width: 20
VWidth: 0
Flags: HW
LayerCount: 2
Fore
SplineSet
16 1 m 29
 18 1 l 29
 18 -2 l 29
 16 -2 l 29
 16 1 l 29
11 1 m 13
 14 1 l 29
 14 6 l 21
 13 4 12.0625 2.1123 11 1 c 13
13 -6 m 29
 14 7 l 29
 17 8 l 29
 17 -6 l 29
 13 -6 l 29
16 -2 m 5
 7 -2 l 5
 7 1 l 5
 9 2 12 7 13 9 c 13
 17 8 l 29
 17 -6 l 29
 15 -6 l 29
 16 -2 l 5
2 13 m 9
 3 18 l 17
 5 15 6 15 7 15 c 0
 8 15 9.58105 15.4189 8 17 c 0
 7 18 7 18 5 19 c 9
 7 20 l 17
 8 20 12 19 12 16 c 0
 12 13 10 12 8 12 c 0
 6 12 5 12 2 13 c 9
2 25 m 17
 5 26 6 26 8 26 c 0
 10 26 12 25 12 22 c 0
 12 19 9 19 8 19 c 9
 5 19 l 17
 7 20 7 20 8 21 c 0
 9.58105 22.5811 8 23 7 23 c 0
 6 23 5 23 3 21 c 9
 2 25 l 17
2 9 m 17
 3 9 13 12 17 14 c 9
 18 11 l 17
 17 11 7 8 3 6 c 9
 2 9 l 17
EndSplineSet
EndChar

StartChar: onequarter
Encoding: 188 188 179
Width: 20
VWidth: 0
Flags: HW
LayerCount: 2
Fore
SplineSet
16 1 m 29
 18 1 l 29
 18 -2 l 29
 16 -2 l 29
 16 1 l 29
11 1 m 13
 14 1 l 29
 14 6 l 21
 13 4 12.0625 2.1123 11 1 c 13
13 -6 m 29
 14 7 l 29
 17 8 l 29
 17 -6 l 29
 13 -6 l 29
16 -2 m 5
 7 -2 l 5
 7 1 l 5
 9 2 12 7 13 9 c 13
 17 8 l 29
 17 -6 l 29
 15 -6 l 29
 16 -2 l 5
2 9 m 17
 3 9 13 12 17 14 c 9
 18 11 l 17
 17 11 7 8 3 6 c 9
 2 9 l 17
8 27 m 9
 11 26 l 25
 11 12 l 25
 5 12 l 25
 7 23 l 17
 6 21 5 21 4 21 c 9
 3 24 l 17
 5 24 7 25 8 27 c 9
EndSplineSet
EndChar

StartChar: copyright
Encoding: 169 169 180
Width: 28
VWidth: 0
Flags: HW
LayerCount: 2
Fore
SplineSet
15 19 m 0
 11 19 5 16 5 10 c 0
 5 4.90098 9 1 13 1 c 0
 19 1 23 5 23 11 c 0
 23 16 20 19 15 19 c 0
2 10 m 24
 2 17 8 22 15 22 c 0
 21 22 26 16 26 10 c 24
 26 3 21 -2 14 -2 c 24
 7 -2 2 3 2 10 c 24
EndSplineSet
Refer: 32 67 N 0.769231 0 0 0.7 7.46154 3 2
EndChar

StartChar: registered
Encoding: 174 174 181
Width: 28
VWidth: 0
Flags: HW
LayerCount: 2
Fore
SplineSet
15 19 m 0
 11 19 5 16 5 10 c 0
 5 4.90098 9 1 13 1 c 0
 19 1 23 5 23 11 c 0
 23 16 20 19 15 19 c 0
2 10 m 24
 2 17 8 22 15 22 c 0
 21 22 26 16 26 10 c 24
 26 3 21 -2 14 -2 c 24
 7 -2 2 3 2 10 c 24
EndSplineSet
Refer: 31 82 S 0.714286 0 0 0.666667 8.28571 3.66667 2
EndChar

StartChar: dieresis
Encoding: 168 168 183
Width: 17
VWidth: 0
Flags: HW
LayerCount: 2
Fore
SplineSet
7 18 m 29
 3 18 l 29
 3 22 l 29
 7 22 l 29
 7 18 l 29
14 18 m 29
 10 18 l 29
 10 22 l 29
 14 22 l 29
 14 18 l 29
EndSplineSet
EndChar

StartChar: ordmasculine
Encoding: 186 186 185
Width: 14
VWidth: 0
Flags: HW
LayerCount: 2
Fore
SplineSet
8 20 m 4
 7 20 5 19 5 17 c 28
 5 16 6 15 7 15 c 28
 8 15 9 16 9 17 c 4
 9 18 9 20 8 20 c 4
8 22 m 4
 11 22 12 19 12 17 c 28
 12 14 10 12 7 12 c 28
 5 12 2 13 2 16 c 4
 2 19 5 22 8 22 c 4
EndSplineSet
EndChar

StartChar: ordfeminine
Encoding: 170 170 186
Width: 14
VWidth: 0
Flags: HW
LayerCount: 2
Fore
SplineSet
5 14 m 25
 5 16 l 25
 9 16 l 25
 9 14 l 25
 5 14 l 25
5 12 m 25
 2 13 l 25
 6 22 l 25
 8 22 l 25
 5 12 l 25
9 22 m 25
 12 13 l 25
 9 12 l 25
 6 22 l 25
 9 22 l 25
EndSplineSet
EndChar

StartChar: braceleft
Encoding: 123 123 187
Width: 17
VWidth: 0
Flags: HW
LayerCount: 2
Fore
SplineSet
15 -3 m 17
 12 -4 11 -4 9 -4 c 0
 5.83789 -4 4 0 5 2 c 0
 5.89453 3.78906 6 7 5 8 c 0
 4.29297 8.70703 4 9 2 8 c 9
 2 12 l 17
 4 11 8 10 9 8 c 0
 10 6 9 4 8 1 c 0
 7.68359 0.0507812 8 -1 9 -1 c 0
 10 -1 11 -1 13 1 c 9
 15 -3 l 17
15 23 m 9
 13 16 l 17
 12 18 11 20 9 21 c 0
 8.10547 21.4473 7.68359 20.9492 8 20 c 0
 9 17 10 14 9 12 c 0
 8 10 4 9 2 8 c 9
 2 12 l 17
 4 11 4.29297 11.293 5 12 c 0
 6 13 5.89453 16.2109 5 18 c 0
 4 20 4.83789 24 8 24 c 0
 10 24 12 24 15 23 c 9
EndSplineSet
EndChar

StartChar: braceright
Encoding: 125 125 188
Width: 17
VWidth: 0
Flags: HW
LayerCount: 2
Fore
SplineSet
2 -3 m 13
 4 1 l 21
 6 -1 7 -1 8 -1 c 4
 9 -1 9.31641 0.0507812 9 1 c 4
 8 4 7 6 8 8 c 4
 9 10 13 11 15 12 c 13
 15 8 l 21
 13 9 12.707 8.70703 12 8 c 4
 11 7 11.1055 3.78906 12 2 c 4
 13 0 11.1621 -4 8 -4 c 4
 6 -4 5 -4 2 -3 c 13
2 23 m 21
 5 24 7 24 9 24 c 4
 12.1621 24 13 20 12 18 c 4
 11.1055 16.2109 11 13 12 12 c 4
 12.707 11.293 13 11 15 12 c 13
 15 8 l 21
 13 9 9 10 8 12 c 4
 7 14 8 17 9 20 c 4
 9.31641 20.9492 8.89453 21.4473 8 21 c 4
 6 20 5 18 4 16 c 13
 2 23 l 21
EndSplineSet
EndChar

StartChar: asciitilde
Encoding: 126 126 189
Width: 18
VWidth: 0
Flags: HW
LayerCount: 2
Fore
SplineSet
2 11 m 17
 3 12 4 13 6 13 c 0
 8 13 9 11 11 10 c 0
 12.7891 9.10547 14 11 15 13 c 9
 16 8 l 17
 15 7 14 6 12 6 c 0
 10 6 9 8 7 9 c 0
 5.21094 9.89453 4 8 3 6 c 9
 2 11 l 17
EndSplineSet
EndChar

StartChar: currency
Encoding: 164 164 190
Width: 20
VWidth: 0
Flags: HW
LayerCount: 2
Fore
SplineSet
6 0 m 29
 2 4 l 25
 6 6 l 25
 8 4 l 25
 6 0 l 29
18 4 m 25
 14 0 l 25
 12 4 l 25
 14 6 l 25
 18 4 l 25
14 20 m 25
 18 16 l 25
 14 14 l 25
 12 16 l 25
 14 20 l 25
6 20 m 25
 8 16 l 25
 6 14 l 25
 2 16 l 25
 6 20 l 25
11 14 m 0
 10 14 8 13 8 11 c 0
 8 9 9 8 10 8 c 0
 12 8 13 9 13 11 c 0
 13 13 12 14 11 14 c 0
10 3 m 0
 6 3 4 5 4 9 c 0
 4 14 8 17 11 17 c 0
 14 17 16 14 16 9 c 0
 16 5 13 3 10 3 c 0
EndSplineSet
EndChar

StartChar: sterling
Encoding: 163 163 191
Width: 17
VWidth: 0
Flags: HW
LayerCount: 2
Fore
SplineSet
11 12 m 25
 12 7 l 25
 2 7 l 25
 2 10 l 25
 11 12 l 25
15 0 m 25
 2 0 l 25
 4 3 l 25
 14 4 l 25
 15 0 l 25
2 0 m 17
 4 4 4 5.83789 4 9 c 0
 4 14 4 20 10 20 c 0
 12 20 13 20 15 19 c 9
 14 14 l 17
 13 15 12 16 10 16 c 0
 6.39445 16 7 12 7 9 c 0
 7 5.83789 6 3 5 1 c 9
 2 0 l 17
EndSplineSet
EndChar

StartChar: section
Encoding: 167 167 192
Width: 17
VWidth: 0
Flags: HW
LayerCount: 2
Fore
SplineSet
5 6 m 9
 6 9 l 17
 8 8 9 8 10 8 c 0
 11 8 11.6328 8.73535 11 10 c 0
 10 12 8 12 6 12 c 0
 4 12 2 15 2 18 c 0
 2 21 6 22 9 22 c 0
 11 22 13 21 15 20 c 9
 14 16 l 17
 11 18 10 18 9 18 c 0
 8 18 6 18 6 17 c 0
 6 16 7.58594 15 9 15 c 0
 11 15 15 13 15 10 c 0
 15 7 13 5 11 5 c 0
 9 5 8 5 5 6 c 9
12 14 m 9
 11 11 l 17
 9 12 8 12 7 12 c 0
 6 12 5.36719 11.2646 6 10 c 0
 7 8 9 8 11 8 c 0
 13 8 15 5 15 2 c 0
 15 -1 11 -2 8 -2 c 0
 6 -2 4 -1 2 0 c 9
 3 4 l 17
 6 2 7 2 8 2 c 0
 9 2 11 2 11 3 c 0
 11 4 9.41406 5 8 5 c 0
 6 5 2 7 2 10 c 0
 2 13 4 15 6 15 c 0
 8 15 9 15 12 14 c 9
EndSplineSet
EndChar

StartChar: arrowup
Encoding: 8593 8593 193
Width: 20
VWidth: 0
Flags: HW
LayerCount: 2
Fore
SplineSet
11 19 m 1
 12.333 15.667 14 13.333 18 10 c 9
 14 6 l 25
 12 11 l 25
 13 1 l 25
 7 1 l 29
 9 11 l 25
 5 6 l 25
 2 10 l 17
 6.66699 13.333 9 15.667 11 19 c 1
EndSplineSet
EndChar

StartChar: uni30B3
Encoding: 12467 12467 197
Width: 21
VWidth: 0
Flags: HW
LayerCount: 2
Fore
SplineSet
2 20 m 25
 19 20 l 25
 19 0 l 25
 2 0 l 25
 3 4 l 25
 14 3 l 25
 16 17 l 25
 3 15 l 25
 2 20 l 25
EndSplineSet
EndChar

StartChar: uni30B4
Encoding: 12468 12468 198
Width: 21
VWidth: 0
Flags: HW
LayerCount: 2
Fore
SplineSet
15 21 m 29
 14 20 l 29
 11 24 l 29
 14 25 l 29
 15 21 l 29
19 21 m 29
 18 20 l 29
 15 24 l 29
 18 25 l 29
 19 21 l 29
EndSplineSet
Refer: 197 12467 N 1 0 0 1 0 0 2
EndChar

StartChar: uni30ED
Encoding: 12525 12525 199
Width: 21
VWidth: 0
Flags: HW
LayerCount: 2
Fore
SplineSet
5 4 m 25
 14 3 l 25
 16 17 l 25
 5 15 l 25
 5 4 l 25
2 20 m 25
 19 20 l 25
 19 0 l 25
 2 0 l 29
 2 20 l 25
EndSplineSet
EndChar

StartChar: uni30C8
Encoding: 12488 12488 200
Width: 21
VWidth: 0
Flags: HW
LayerCount: 2
Fore
SplineSet
18 10 m 25
 16 6 l 25
 6 12 l 25
 7 14 l 25
 18 10 l 25
4 0 m 25
 4 20 l 25
 7 20 l 25
 9 1 l 25
 4 0 l 25
EndSplineSet
EndChar

StartChar: uni30C9
Encoding: 12489 12489 201
Width: 21
VWidth: 0
Flags: HW
LayerCount: 2
Fore
SplineSet
13 19 m 29
 12 18 l 29
 9 22 l 29
 12 23 l 29
 13 19 l 29
17 19 m 29
 16 18 l 29
 13 22 l 29
 16 23 l 29
 17 19 l 29
EndSplineSet
Refer: 200 12488 N 1 0 0 1 0 0 2
EndChar

StartChar: uni30A8
Encoding: 12456 12456 202
Width: 21
VWidth: 0
Flags: HW
LayerCount: 2
Fore
SplineSet
13 4 m 25
 8 4 l 25
 10 16 l 25
 13 16 l 25
 13 4 l 25
4 18 m 25
 16 18 l 25
 17 15 l 25
 4 13 l 25
 4 18 l 25
19 2 m 25
 3 2 l 25
 2 5 l 25
 19 7 l 25
 19 2 l 25
EndSplineSet
EndChar

StartChar: uni30A7
Encoding: 12455 12455 203
Width: 17
VWidth: 0
Flags: HW
LayerCount: 2
Fore
SplineSet
11 4 m 25
 6 4 l 25
 9 12 l 25
 11 12 l 25
 11 4 l 25
4 14 m 25
 14 14 l 25
 14 11 l 25
 4 10 l 25
 4 14 l 25
15 2 m 25
 2 2 l 25
 2 5 l 25
 15 7 l 25
 15 2 l 25
EndSplineSet
EndChar

StartChar: uni30D5
Encoding: 12501 12501 204
Width: 21
VWidth: 0
Flags: HW
LayerCount: 2
Fore
SplineSet
2 20 m 25
 19 20 l 17
 18 12 14 5 10 0 c 9
 5 3 l 17
 10 7 13 11 15 17 c 9
 3 15 l 25
 2 20 l 25
EndSplineSet
EndChar

StartChar: uni30D6
Encoding: 12502 12502 205
Width: 21
VWidth: 0
Flags: HW
LayerCount: 2
Fore
SplineSet
15 21 m 29
 14 20 l 29
 11 24 l 29
 14 25 l 29
 15 21 l 29
19 21 m 29
 18 20 l 29
 15 24 l 29
 18 25 l 29
 19 21 l 29
EndSplineSet
Refer: 204 12501 N 1 0 0 1 0 0 2
EndChar

StartChar: uni30D7
Encoding: 12503 12503 206
Width: 21
VWidth: 0
Flags: HW
LayerCount: 2
Fore
SplineSet
15 24 m 4
 15 24 14 24 14 23 c 4
 14 22 15 22 15 22 c 4
 15 22 16 22 16 23 c 4
 16 24 15 24 15 24 c 4
15 26 m 4
 17 26 18 24 18 23 c 4
 18 21 17 20 15 20 c 28
 13 20 12 21 12 23 c 4
 12 24 13 26 15 26 c 4
EndSplineSet
Refer: 204 12501 N 1 0 0 1 0 0 2
EndChar

StartChar: uni30EF
Encoding: 12527 12527 207
Width: 21
VWidth: 0
Flags: HW
LayerCount: 2
Fore
SplineSet
3 11 m 25
 2 20 l 25
 5 20 l 25
 7 12 l 25
 3 11 l 25
2 20 m 25
 19 20 l 17
 18 12 14 5 10 0 c 9
 5 3 l 17
 10 7 13 11 15 17 c 9
 3 16 l 25
 2 20 l 25
EndSplineSet
EndChar

StartChar: uni30F7
Encoding: 12535 12535 208
Width: 21
VWidth: 0
Flags: HW
LayerCount: 2
Fore
SplineSet
15 21 m 29
 14 20 l 29
 11 24 l 29
 14 25 l 29
 15 21 l 29
19 21 m 29
 18 20 l 29
 15 24 l 29
 18 25 l 29
 19 21 l 29
EndSplineSet
Refer: 207 12527 N 1 0 0 1 0 0 2
EndChar

StartChar: uni30EE
Encoding: 12526 12526 209
Width: 17
VWidth: 0
Flags: HW
LayerCount: 2
Fore
SplineSet
2 8 m 25
 2 14 l 25
 5 14 l 25
 6 8 l 25
 2 8 l 25
2 14 m 25
 15 14 l 17
 14 6 11 3 7 0 c 9
 3 3 l 17
 6 4 9 5 11 11 c 9
 3 10 l 25
 2 14 l 25
EndSplineSet
EndChar

StartChar: uni30A6
Encoding: 12454 12454 210
Width: 21
VWidth: 0
Flags: HW
LayerCount: 2
Fore
SplineSet
12 22 m 29
 12 17 l 25
 9 17 l 25
 8 22 l 25
 12 22 l 29
3 9 m 25
 2 18 l 25
 5 18 l 25
 7 10 l 25
 3 9 l 25
2 18 m 25
 19 18 l 17
 18 10 14 5 10 0 c 9
 5 3 l 17
 10 6 13 9 15 15 c 9
 3 14 l 25
 2 18 l 25
EndSplineSet
EndChar

StartChar: uni30A5
Encoding: 12453 12453 211
Width: 17
VWidth: 0
Flags: HW
LayerCount: 2
Fore
SplineSet
10 16 m 29
 10 12 l 25
 7 12 l 25
 6 16 l 25
 10 16 l 29
2 7 m 25
 2 13 l 25
 5 13 l 25
 6 7 l 25
 2 7 l 25
2 13 m 25
 15 13 l 17
 14 5 11 3 7 0 c 9
 3 3 l 17
 6 4 9 4 11 10 c 9
 3 9 l 25
 2 13 l 25
EndSplineSet
EndChar

StartChar: uni30CE
Encoding: 12494 12494 212
Width: 21
VWidth: 0
Flags: HW
LayerCount: 2
Fore
SplineSet
19 19 m 17
 16.8658 4.59543 9.62752 1.2589 3 0 c 9
 2 4 l 17
 10.0033 4.0025 13.0029 9.33887 13 20 c 9
 19 19 l 17
EndSplineSet
EndChar

StartChar: uni30F2
Encoding: 12530 12530 213
Width: 21
VWidth: 0
Flags: HW
LayerCount: 2
Fore
SplineSet
4 13 m 25
 15 13 l 25
 15 11 l 25
 4 8 l 25
 4 13 l 25
2 20 m 25
 19 20 l 17
 18 12 14 5 10 0 c 9
 5 3 l 17
 10 7 13 11 15 17 c 9
 3 15 l 25
 2 20 l 25
EndSplineSet
EndChar

StartChar: uni30FA
Encoding: 12538 12538 214
Width: 21
VWidth: 0
Flags: HW
LayerCount: 2
Fore
SplineSet
15 21 m 29
 14 20 l 29
 11 24 l 29
 14 25 l 29
 15 21 l 29
19 21 m 29
 18 20 l 29
 15 24 l 29
 18 25 l 29
 19 21 l 29
EndSplineSet
Refer: 213 12530 N 1 0 0 1 0 0 2
EndChar

StartChar: uni30BD
Encoding: 12477 12477 215
Width: 21
VWidth: 0
Flags: HW
LayerCount: 2
Fore
SplineSet
9 21 m 25
 9 14 l 25
 7 13 l 25
 4 20 l 25
 9 21 l 25
19 19 m 17
 16.8658 4.59543 9.62752 1.2589 3 0 c 9
 2 4 l 17
 10.0033 4.0025 13.0029 9.33887 13 20 c 9
 19 19 l 17
EndSplineSet
EndChar

StartChar: uni30C4
Encoding: 12484 12484 216
Width: 21
VWidth: 0
Flags: HW
LayerCount: 2
Fore
SplineSet
6 18 m 25
 6 11 l 25
 4 10 l 25
 1 17 l 25
 6 18 l 25
11 21 m 29
 11 14 l 29
 9 13 l 29
 6 20 l 29
 11 21 l 29
19 19 m 17
 16.8658 4.59543 9.62752 1.2589 3 0 c 9
 2 4 l 17
 10.0033 4.0025 13.0029 9.33887 13 20 c 9
 19 19 l 17
EndSplineSet
EndChar

StartChar: uni30BE
Encoding: 12478 12478 217
Width: 21
VWidth: 0
Flags: HW
LayerCount: 2
Fore
SplineSet
15 22 m 29
 14 21 l 29
 11 25 l 29
 14 26 l 29
 15 22 l 29
19 22 m 29
 18 21 l 29
 15 25 l 29
 18 26 l 29
 19 22 l 29
EndSplineSet
Refer: 215 12477 N 1 0 0 1 0 0 2
EndChar

StartChar: uni30C5
Encoding: 12485 12485 218
Width: 21
VWidth: 0
Flags: HW
LayerCount: 2
Fore
SplineSet
15 22 m 29
 14 21 l 29
 11 25 l 29
 14 26 l 29
 15 22 l 29
19 22 m 29
 18 21 l 29
 15 25 l 29
 18 26 l 29
 19 22 l 29
EndSplineSet
Refer: 216 12484 N 1 0 0 1 0 0 2
EndChar

StartChar: uni30F3
Encoding: 12531 12531 219
Width: 21
VWidth: 0
Flags: HW
LayerCount: 2
Fore
SplineSet
3 19 m 25
 10 15 l 25
 9 13 l 25
 2 14 l 25
 3 19 l 25
19 19 m 17
 16.8658 4.59543 9.62752 1.2589 3 0 c 9
 2 4 l 17
 10.0033 4.0025 13.0029 9.33887 13 20 c 9
 19 19 l 17
EndSplineSet
EndChar

StartChar: uni30B7
Encoding: 12471 12471 220
Width: 21
VWidth: 0
Flags: HW
LayerCount: 2
Fore
SplineSet
4 21 m 25
 11 17 l 25
 11 15 l 25
 3 16 l 25
 4 21 l 25
2 15 m 25
 9 12 l 25
 9 10 l 25
 1 10 l 25
 2 15 l 25
19 19 m 17
 16.8662 4.5957 9.62752 1.2589 3 0 c 9
 2 4 l 17
 10.0033 4.0025 13.0029 9.33887 13 20 c 9
 19 19 l 17
EndSplineSet
EndChar

StartChar: uni30B8
Encoding: 12472 12472 221
Width: 21
VWidth: 0
Flags: HW
LayerCount: 2
Fore
SplineSet
15 22 m 25
 14 21 l 25
 11 25 l 25
 14 26 l 25
 15 22 l 25
19 22 m 25
 18 21 l 25
 15 25 l 25
 18 26 l 25
 19 22 l 25
EndSplineSet
Refer: 220 12471 N 1 0 0 1 0 0 2
EndChar

StartChar: uni30B9
Encoding: 12473 12473 222
Width: 21
VWidth: 0
Flags: HW
LayerCount: 2
Fore
SplineSet
19 4 m 25
 15 0 l 25
 10 7 l 25
 12 9 l 25
 19 4 l 25
2 20 m 25
 19 20 l 17
 18 13 10 4 5 0 c 9
 2 3 l 17
 7 6 13 12 15 17 c 9
 3 15 l 25
 2 20 l 25
EndSplineSet
EndChar

StartChar: uni30BA
Encoding: 12474 12474 223
Width: 21
VWidth: 0
Flags: HW
LayerCount: 2
Fore
SplineSet
15 21 m 29
 14 20 l 29
 11 24 l 29
 14 25 l 29
 15 21 l 29
19 21 m 29
 18 20 l 29
 15 24 l 29
 18 25 l 29
 19 21 l 29
EndSplineSet
Refer: 222 12473 N 1 0 0 1 0 0 2
EndChar

StartChar: uni30AA
Encoding: 12458 12458 319
Width: 21
VWidth: 0
Flags: HW
LayerCount: 2
Fore
SplineSet
2 6 m 25
 11 13 l 25
 12 12 l 25
 6 2 l 25
 2 6 l 25
15 20 m 25
 15 0 l 25
 10 0 l 25
 12 20 l 25
 15 20 l 25
2 16 m 25
 19 16 l 25
 18 11 l 25
 2 14 l 25
 2 16 l 25
EndSplineSet
EndChar

StartChar: uni30A9
Encoding: 12457 12457 320
Width: 17
VWidth: 0
Flags: HW
LayerCount: 2
Fore
SplineSet
2 4 m 25
 9 11 l 25
 10 10 l 25
 5 1 l 25
 2 4 l 25
13 16 m 25
 13 0 l 25
 9 0 l 25
 10 16 l 25
 13 16 l 25
2 13 m 25
 15 13 l 25
 15 9 l 25
 2 11 l 25
 2 13 l 25
EndSplineSet
EndChar

StartChar: uni30C6
Encoding: 12486 12486 321
Width: 21
VWidth: 0
Flags: HW
LayerCount: 2
Fore
SplineSet
10 12 m 9
 13 11 l 17
 13 8 11 3 10 0 c 9
 4 2 l 17
 7.66699 4.66602 10 9 10 12 c 9
4 16 m 25
 3 19 l 25
 17 21 l 25
 17 16 l 25
 4 16 l 25
2 13 m 25
 19 13 l 25
 19 10 l 25
 2 10 l 25
 2 13 l 25
EndSplineSet
EndChar

StartChar: uni30C7
Encoding: 12487 12487 322
Width: 21
VWidth: 0
Flags: HW
LayerCount: 2
Fore
SplineSet
15 21 m 25
 14 20 l 25
 11 24 l 25
 14 25 l 25
 15 21 l 25
19 21 m 25
 18 20 l 25
 15 24 l 25
 18 25 l 25
 19 21 l 25
EndSplineSet
Refer: 321 12486 N 1 0 0 1 0 0 2
EndChar

StartChar: uni30C1
Encoding: 12481 12481 323
Width: 21
VWidth: 0
Flags: HW
LayerCount: 2
Fore
SplineSet
11 18 m 9
 14 17 l 17
 14 8 14 4 7 0 c 9
 4 4 l 17
 12 7 11 11 11 18 c 9
4 16 m 25
 3 19 l 25
 18 21 l 25
 18 16 l 25
 4 16 l 25
2 13 m 25
 19 13 l 25
 19 10 l 25
 2 10 l 25
 2 13 l 25
EndSplineSet
EndChar

StartChar: uni30C2
Encoding: 12482 12482 324
Width: 21
VWidth: 0
Flags: HW
LayerCount: 2
Fore
SplineSet
15 21 m 29
 14 20 l 29
 11 24 l 29
 14 25 l 29
 15 21 l 29
19 21 m 29
 18 20 l 29
 15 24 l 29
 18 25 l 29
 19 21 l 29
EndSplineSet
Refer: 323 12481 N 1 0 0 1 0 0 2
EndChar

StartChar: uni30C3
Encoding: 12483 12483 325
Width: 17
VWidth: 0
Flags: HW
LayerCount: 2
Fore
SplineSet
4 14 m 25
 5 7 l 25
 3 7 l 25
 1 13 l 25
 4 14 l 25
8 16 m 25
 9 9 l 25
 7 9 l 25
 5 15 l 25
 8 16 l 25
15 13 m 17
 15 4 8 0 3 0 c 9
 2 4 l 17
 5 4 10.0029 3.33887 10 14 c 9
 15 13 l 17
EndSplineSet
EndChar

StartChar: uni30CB
Encoding: 12491 12491 326
Width: 21
VWidth: 0
Flags: HW
LayerCount: 2
Fore
SplineSet
4 16 m 25
 17 16 l 25
 17 13 l 25
 5 11 l 25
 4 16 l 25
2 3 m 25
 2 6 l 25
 18 8 l 25
 19 3 l 25
 2 3 l 25
EndSplineSet
EndChar

StartChar: uni30B5
Encoding: 12469 12469 327
Width: 21
VWidth: 0
Flags: HW
LayerCount: 2
Fore
SplineSet
16 22 m 17
 17 13 17 2 9 0 c 9
 6 4 l 17
 15 7 14 13 13 21 c 9
 16 22 l 17
6 9 m 25
 5 22 l 25
 9 22 l 25
 9 9 l 25
 6 9 l 25
2 18 m 25
 19 18 l 25
 19 15 l 25
 3 13 l 25
 2 18 l 25
EndSplineSet
EndChar

StartChar: uni30B6
Encoding: 12470 12470 328
Width: 21
VWidth: 0
Flags: HW
LayerCount: 2
Fore
SplineSet
15 22 m 29
 14 21 l 29
 11 25 l 29
 14 26 l 29
 15 22 l 29
19 22 m 29
 18 21 l 29
 15 25 l 29
 18 26 l 29
 19 22 l 29
EndSplineSet
Refer: 327 12469 N 1 0 0 1 0 0 2
EndChar

StartChar: uni30F4
Encoding: 12532 12532 331
Width: 21
VWidth: 0
Flags: HW
LayerCount: 2
Fore
SplineSet
15 21 m 29
 14 20 l 29
 11 24 l 29
 14 25 l 29
 15 21 l 29
19 21 m 29
 18 20 l 29
 15 24 l 29
 18 25 l 29
 19 21 l 29
EndSplineSet
Refer: 210 12454 N 1 0 0 1 0 0 2
EndChar

StartChar: uni30E8
Encoding: 12520 12520 332
Width: 21
VWidth: 0
Flags: HW
LayerCount: 2
Fore
SplineSet
5 12 m 25
 16 12 l 25
 16 10 l 25
 5 8 l 25
 5 12 l 25
2 20 m 25
 19 20 l 25
 19 0 l 25
 2 0 l 25
 3 5 l 25
 14 3 l 25
 16 17 l 25
 3 15 l 25
 2 20 l 25
EndSplineSet
EndChar

StartChar: uni30E7
Encoding: 12519 12519 333
Width: 17
VWidth: 0
Flags: HW
LayerCount: 2
Fore
SplineSet
5 9 m 25
 12 9 l 25
 12 7 l 25
 5 6 l 25
 5 9 l 25
2 14 m 25
 15 14 l 25
 15 0 l 25
 2 0 l 25
 2 4 l 25
 11 3 l 25
 12 11 l 25
 2 10 l 25
 2 14 l 25
EndSplineSet
EndChar

StartChar: uni30E1
Encoding: 12513 12513 334
Width: 21
VWidth: 0
Flags: HW
LayerCount: 2
Fore
SplineSet
2 10 m 9
 3 15 l 17
 10.9999 13.6667 15 11 19 6 c 9
 17 4 l 17
 13 8 8.04007 10.2882 2 10 c 9
18 19 m 21
 15 8 13 5 6 0 c 13
 4 2 l 21
 10 6 12.0029 9.33887 12 20 c 13
 18 19 l 21
EndSplineSet
EndChar

StartChar: uni30E2
Encoding: 12514 12514 335
Width: 21
VWidth: 0
Flags: HW
LayerCount: 2
Fore
SplineSet
19 1 m 17
 15 0 13 0 10 0 c 0
 7.76393 0 5 2 5 5 c 0
 5 9 6 14 7 19 c 9
 12 18 l 17
 10 12 9 8 9 5 c 0
 9 4 10 3 12 3 c 0
 13 3 16 4 18 6 c 9
 19 1 l 17
2 11 m 25
 15 12 l 25
 15 8 l 25
 2 8 l 25
 2 11 l 25
3 20 m 25
 18 20 l 25
 17 15 l 25
 3 17 l 25
 3 20 l 25
EndSplineSet
EndChar

StartChar: uni30CA
Encoding: 12490 12490 336
Width: 21
VWidth: 0
Flags: HW
LayerCount: 2
Fore
SplineSet
2 16 m 25
 19 14 l 25
 19 11 l 25
 2 11 l 25
 2 16 l 25
15 19 m 17
 14 7 10 3 7 0 c 9
 4 2 l 17
 10 8 10 10 9 20 c 9
 15 19 l 17
EndSplineSet
EndChar

StartChar: uni30CC
Encoding: 12492 12492 337
Width: 21
VWidth: 0
Flags: HW
LayerCount: 2
Fore
SplineSet
18 5 m 29
 16 3 l 29
 6 10 l 29
 9 13 l 29
 18 5 l 29
2 20 m 25
 19 20 l 17
 18 12 14 5 10 0 c 9
 5 3 l 17
 10 7 13 11 15 17 c 9
 3 15 l 25
 2 20 l 25
EndSplineSet
EndChar

StartChar: uni30E9
Encoding: 12521 12521 338
Width: 21
VWidth: 0
Flags: HW
LayerCount: 2
Fore
SplineSet
18 18 m 25
 3 18 l 25
 4 22 l 25
 18 20 l 25
 18 18 l 25
2 15 m 25
 19 15 l 17
 18 7 13 2 9 0 c 9
 5 3 l 17
 10 5 13 6 15 12 c 9
 3 10 l 25
 2 15 l 25
EndSplineSet
EndChar

StartChar: uni30AF
Encoding: 12463 12463 339
Width: 21
VWidth: 0
Flags: HW
LayerCount: 2
Fore
SplineSet
2 13 m 17
 5 14 9 18 9 22 c 9
 12 22 l 17
 12 19 10 12 6 10 c 9
 2 13 l 17
8 18 m 25
 19 18 l 17
 18 10 14 5 10 0 c 9
 5 3 l 17
 10 6 13 9 15 15 c 9
 8 15 l 25
 8 18 l 25
EndSplineSet
EndChar

StartChar: uni30B0
Encoding: 12464 12464 340
Width: 21
VWidth: 0
Flags: HW
LayerCount: 2
Fore
SplineSet
16 20 m 29
 15 19 l 29
 12 23 l 29
 15 24 l 29
 16 20 l 29
20 20 m 29
 19 19 l 29
 16 23 l 29
 19 24 l 29
 20 20 l 29
EndSplineSet
Refer: 339 12463 N 1 0 0 1 0 0 2
EndChar

StartChar: uni30B1
Encoding: 12465 12465 341
Width: 21
VWidth: 0
Flags: HW
LayerCount: 2
Fore
SplineSet
19 18 m 25
 19 14 l 25
 9 15 l 25
 10 18 l 25
 19 18 l 25
2 13 m 17
 5 14 8 18 8 22 c 9
 11 22 l 17
 11 19 10 12 6 10 c 9
 2 13 l 17
7 18 m 25
 15 18 l 17
 15 11 14 5 11 0 c 9
 6 2 l 17
 10 7 11 9 12 15 c 9
 7 15 l 25
 7 18 l 25
EndSplineSet
EndChar

StartChar: uni30B2
Encoding: 12466 12466 342
Width: 21
VWidth: 0
Flags: HW
LayerCount: 2
Fore
SplineSet
16 20 m 29
 15 19 l 29
 12 23 l 29
 15 24 l 29
 16 20 l 29
20 20 m 29
 19 19 l 29
 16 23 l 29
 19 24 l 29
 20 20 l 29
EndSplineSet
Refer: 341 12465 N 1 0 0 1 0 0 2
EndChar

StartChar: uni30A4
Encoding: 12452 12452 343
Width: 21
VWidth: 0
Flags: HW
LayerCount: 2
Fore
SplineSet
13 0 m 25
 8 0 l 25
 10 11 l 25
 13 11 l 25
 13 0 l 25
15 20 m 9
 19 15 l 17
 15 11 9.66661 8.6667 3 8 c 9
 2 11 l 17
 6 11 13 13 15 20 c 9
EndSplineSet
EndChar

StartChar: uni30A3
Encoding: 12451 12451 344
Width: 17
VWidth: 0
Flags: HW
LayerCount: 2
Fore
SplineSet
11 0 m 25
 6 0 l 25
 8 7 l 25
 11 7 l 25
 11 0 l 25
11 14 m 9
 15 12 l 17
 12 6 9.66699 5.66699 3 5 c 9
 2 8 l 17
 7 8 10 8 11 14 c 9
EndSplineSet
EndChar

StartChar: uni30AD
Encoding: 12461 12461 345
Width: 21
VWidth: 0
Flags: HW
LayerCount: 2
Fore
SplineSet
19 6 m 25
 4 3 l 25
 3 7 l 25
 19 9 l 25
 19 6 l 25
2 14 m 25
 17 17 l 25
 18 13 l 25
 2 11 l 25
 2 14 l 25
10 20 m 17
 11 14 12 6 15 1 c 9
 10 0 l 17
 9 6 8 14 5 19 c 9
 10 20 l 17
EndSplineSet
EndChar

StartChar: uni30AE
Encoding: 12462 12462 346
Width: 21
VWidth: 0
Flags: HW
LayerCount: 2
Fore
SplineSet
15 20 m 29
 14 19 l 29
 11 23 l 29
 14 24 l 29
 15 20 l 29
19 20 m 29
 18 19 l 29
 15 23 l 29
 18 24 l 29
 19 20 l 29
EndSplineSet
Refer: 345 12461 N 1 0 0 1 0 0 2
EndChar

StartChar: uni30E6
Encoding: 12518 12518 347
Width: 21
VWidth: 0
Flags: HW
LayerCount: 2
Fore
SplineSet
16 18 m 29
 16 3 l 25
 10 3 l 25
 13 15 l 25
 4 14 l 25
 4 18 l 25
 16 18 l 29
19 0 m 25
 2 0 l 25
 2 3 l 25
 19 5 l 25
 19 0 l 25
EndSplineSet
EndChar

StartChar: uni30E5
Encoding: 12517 12517 348
Width: 17
VWidth: 0
Flags: HW
LayerCount: 2
Fore
SplineSet
12 12 m 25
 12 3 l 25
 7 3 l 25
 9 9 l 25
 4 8 l 25
 4 12 l 25
 12 12 l 25
15 0 m 25
 2 0 l 25
 2 3 l 25
 15 5 l 25
 15 0 l 25
EndSplineSet
EndChar

StartChar: uni30CD
Encoding: 12493 12493 349
Width: 21
VWidth: 0
Flags: HW
LayerCount: 2
Fore
SplineSet
16 2 m 25
 12 8 l 25
 14 9 l 25
 19 5 l 25
 16 2 l 25
8 0 m 25
 9 6 l 25
 12 8 l 25
 12 0 l 25
 8 0 l 25
8 22 m 25
 12 22 l 25
 12 16 l 25
 9 16 l 25
 8 22 l 25
2 18 m 25
 19 18 l 17
 18 11 10 5 5 3 c 9
 3 6 l 17
 8 8 13 10 15 15 c 9
 3 13 l 25
 2 18 l 25
EndSplineSet
EndChar

StartChar: uni30EC
Encoding: 12524 12524 350
Width: 21
VWidth: 0
Flags: HW
LayerCount: 2
Fore
SplineSet
2 0 m 9
 2 20 l 25
 7 20 l 25
 5 4 l 17
 11 4 13 6 15 10 c 9
 19 6 l 17
 13 1 9 0 2 0 c 9
EndSplineSet
EndChar

StartChar: uni30E0
Encoding: 12512 12512 351
Width: 21
VWidth: 0
Flags: HW
LayerCount: 2
Fore
SplineSet
19 0 m 25
 16 0 l 25
 12 12 l 25
 17 13 l 25
 19 0 l 25
2 0 m 25
 6 20 l 25
 12 19 l 25
 5 3 l 25
 16 6 l 25
 16 3 l 25
 2 0 l 25
EndSplineSet
EndChar

StartChar: uni30D8
Encoding: 12504 12504 352
Width: 21
VWidth: 0
Flags: HW
LayerCount: 2
Fore
SplineSet
2 11 m 25
 9 18 l 25
 19 6 l 25
 15 3 l 25
 9 13 l 25
 5 8 l 25
 2 11 l 25
EndSplineSet
EndChar

StartChar: uni30D9
Encoding: 12505 12505 353
Width: 21
VWidth: 0
Flags: HW
LayerCount: 2
Fore
SplineSet
15 17 m 29
 14 16 l 29
 11 20 l 29
 14 21 l 29
 15 17 l 29
19 17 m 29
 18 16 l 29
 15 20 l 29
 18 21 l 29
 19 17 l 29
EndSplineSet
Refer: 352 12504 N 1 0 0 1 0 0 2
EndChar

StartChar: uni30DA
Encoding: 12506 12506 354
Width: 21
VWidth: 0
Flags: HW
LayerCount: 2
Fore
SplineSet
15 20 m 4
 15 20 14 20 14 19 c 4
 14 18 15 18 15 18 c 4
 15 18 16 18 16 19 c 4
 16 20 15 20 15 20 c 4
15 22 m 4
 17 22 18 20 18 19 c 4
 18 17 17 16 15 16 c 28
 13 16 12 17 12 19 c 4
 12 20 13 22 15 22 c 4
EndSplineSet
Refer: 352 12504 N 1 0 0 1 0 0 2
EndChar

StartChar: uni30A2
Encoding: 12450 12450 355
Width: 21
VWidth: 0
Flags: HW
LayerCount: 2
Fore
SplineSet
10 -1 m 9
 5 0 l 17
 7.01336 3.95993 8.86703 8.3989 10 15 c 9
 12 14 l 17
 12 7 11 2 10 -1 c 9
2 20 m 25
 19 19 l 17
 19 12 14 7 10 8 c 9
 10 11 l 17
 12 10 15 12 15 16 c 9
 3 15 l 25
 2 20 l 25
EndSplineSet
EndChar

StartChar: uni30A1
Encoding: 12449 12449 356
Width: 17
VWidth: 0
Flags: HW
LayerCount: 2
Fore
SplineSet
8 -1 m 9
 3 0 l 17
 5 2 7 5 7 9 c 9
 9 9 l 17
 9 6 9 3 8 -1 c 9
2 14 m 25
 15 14 l 17
 15 8 11 3 8 3 c 9
 8 6 l 17
 10 6 11 9 11 11 c 9
 3 9 l 25
 2 14 l 25
EndSplineSet
EndChar

StartChar: uni30DE
Encoding: 12510 12510 358
Width: 21
VWidth: 0
Flags: HW
LayerCount: 2
Fore
SplineSet
14 0 m 25
 4 7 l 25
 7 11 l 25
 16 2 l 25
 14 0 l 25
2 20 m 25
 19 20 l 25
 13 5 l 25
 9 8 l 25
 15 17 l 25
 2 15 l 25
 2 20 l 25
EndSplineSet
EndChar

StartChar: uni30DB
Encoding: 12507 12507 359
Width: 21
VWidth: 0
Flags: HW
LayerCount: 2
Fore
SplineSet
8 12 m 25
 6 3 l 25
 2 4 l 25
 5 13 l 25
 8 12 l 25
13 12 m 25
 16 13 l 25
 19 4 l 25
 14 3 l 25
 13 12 l 25
12 22 m 25
 12 0 l 25
 7 0 l 17
 8 5 9 10 9 22 c 9
 12 22 l 25
2 18 m 25
 19 18 l 25
 19 15 l 25
 2 14 l 25
 2 18 l 25
EndSplineSet
EndChar

StartChar: uni30DC
Encoding: 12508 12508 360
Width: 21
VWidth: 0
Flags: HW
LayerCount: 2
Fore
SplineSet
15 21 m 29
 14 20 l 29
 11 24 l 29
 14 25 l 29
 15 21 l 29
19 21 m 29
 18 20 l 29
 15 24 l 29
 18 25 l 29
 19 21 l 29
EndSplineSet
Refer: 359 12507 N 1 0 0 1 0 0 2
EndChar

StartChar: uni30DD
Encoding: 12509 12509 361
Width: 21
VWidth: 0
Flags: HW
LayerCount: 2
Fore
SplineSet
15 24 m 4
 15 24 14 24 14 23 c 4
 14 22 15 22 15 22 c 4
 15 22 16 22 16 23 c 4
 16 24 15 24 15 24 c 4
15 26 m 4
 17 26 18 24 18 23 c 4
 18 21 17 20 15 20 c 28
 13 20 12 21 12 23 c 4
 12 24 13 26 15 26 c 4
EndSplineSet
Refer: 359 12507 N 1 0 0 1 0 0 2
EndChar

StartChar: uni30E4
Encoding: 12516 12516 362
Width: 21
VWidth: 0
Flags: HW
LayerCount: 2
Fore
SplineSet
1 15 m 25
 19 17 l 25
 16 6 l 25
 12 9 l 25
 15 13 l 25
 2 11 l 25
 1 15 l 25
9 0 m 17
 5 9 5 15 5 19 c 9
 10 20 l 17
 9 13 9 7 13 2 c 9
 9 0 l 17
EndSplineSet
EndChar

StartChar: uni30E3
Encoding: 12515 12515 363
Width: 17
VWidth: 0
Flags: HW
LayerCount: 2
Fore
SplineSet
1 10 m 25
 15 12 l 25
 13 3 l 25
 9 5 l 25
 11 8 l 25
 1 6 l 25
 1 10 l 25
6 -1 m 17
 4 5 3 10 3 14 c 9
 7 14 l 17
 7 7 8 4 10 1 c 9
 6 -1 l 17
EndSplineSet
EndChar

StartChar: uni30F6
Encoding: 12534 12534 364
Width: 17
VWidth: 0
Flags: HW
LayerCount: 2
Fore
SplineSet
15 12 m 25
 15 8 l 25
 7 9 l 25
 8 12 l 25
 15 12 l 25
2 9 m 17
 5 10 6 12 6 16 c 9
 9 16 l 17
 9 13 9 8 5 6 c 9
 2 9 l 17
5 12 m 25
 13 12 l 17
 13 7 11 3 9 0 c 9
 4 2 l 17
 7 4 9 6 10 9 c 9
 5 9 l 25
 5 12 l 25
EndSplineSet
EndChar

StartChar: uni30EB
Encoding: 12523 12523 365
Width: 21
VWidth: 0
Flags: HW
LayerCount: 2
Fore
SplineSet
8 20 m 17
 8 13 8 6 6 0 c 9
 2 2 l 17
 4 7 5 12 5 20 c 9
 8 20 l 17
9 1 m 1
 10 7 10 14 10 20 c 9
 14 20 l 17
 14 15 14 13 13 4 c 1
 14 4 16 7 16 9 c 9
 19 6 l 17
 17 1 13 -2 9 1 c 1
EndSplineSet
EndChar

StartChar: uni30EA
Encoding: 12522 12522 366
Width: 21
VWidth: 0
Flags: HW
LayerCount: 2
Fore
SplineSet
3 19 m 25
 8 20 l 25
 8 9 l 25
 5 9 l 25
 3 19 l 25
18 19 m 17
 17 3 13 0 7 0 c 9
 6 4 l 17
 13 4 13 7 13 20 c 9
 18 19 l 17
EndSplineSet
EndChar

StartChar: uni30BF
Encoding: 12479 12479 367
Width: 21
VWidth: 0
Flags: HW
LayerCount: 2
Fore
SplineSet
18 5 m 25
 16 3 l 25
 7 9 l 25
 10 12 l 25
 18 5 l 25
2 13 m 17
 5 14 9 18 9 22 c 9
 12 22 l 17
 12 19 9 12 5 10 c 9
 2 13 l 17
8 18 m 25
 19 18 l 17
 18 10 14 5 10 0 c 9
 5 3 l 17
 10 6 13 9 15 15 c 9
 8 15 l 25
 8 18 l 25
EndSplineSet
EndChar

StartChar: uni30C0
Encoding: 12480 12480 368
Width: 21
VWidth: 0
Flags: HW
LayerCount: 2
Fore
SplineSet
15 21 m 29
 14 20 l 29
 11 24 l 29
 14 25 l 29
 15 21 l 29
19 21 m 29
 18 20 l 29
 15 24 l 29
 18 25 l 29
 19 21 l 29
EndSplineSet
Refer: 367 12479 N 1 0 0 1 0 0 2
EndChar

StartChar: uni30AB
Encoding: 12459 12459 369
Width: 21
VWidth: 0
Flags: HW
LayerCount: 2
Fore
SplineSet
2 16 m 25
 19 17 l 25
 19 13 19 11.4717 19 7 c 0
 19 3 16 0 12 0 c 9
 11 5 l 17
 14 5 16 5 16 8 c 0
 16 11 16 11 16 13 c 25
 2 11 l 25
 2 16 l 25
3 1 m 25
 6 20 l 25
 9 20 l 25
 8 0 l 25
 3 1 l 25
EndSplineSet
EndChar

StartChar: uni30AC
Encoding: 12460 12460 370
Width: 21
VWidth: 0
Flags: HW
LayerCount: 2
Fore
SplineSet
15 19 m 29
 14 18 l 29
 11 22 l 29
 14 23 l 29
 15 19 l 29
19 19 m 29
 18 18 l 29
 15 22 l 29
 18 23 l 29
 19 19 l 29
EndSplineSet
Refer: 369 12459 N 1 0 0 1 0 0 2
EndChar

StartChar: uni30D2
Encoding: 12498 12498 371
Width: 21
VWidth: 0
Flags: HW
LayerCount: 2
Fore
SplineSet
17 16 m 25
 18 11 l 25
 5 9 l 25
 5 12 l 25
 17 16 l 25
8 19 m 17
 7 15 6 12 6 6 c 0
 6 5 7 4 9 4 c 0
 12 4 15 5 18 6 c 9
 19 1 l 17
 14 0 11 0 8 0 c 0
 4.83772 0 2 2.83772 2 6 c 0
 2 9 2 13 3 20 c 9
 8 19 l 17
EndSplineSet
EndChar

StartChar: uni30D3
Encoding: 12499 12499 372
Width: 21
VWidth: 0
Flags: HW
LayerCount: 2
Fore
SplineSet
14 19 m 29
 13 18 l 29
 10 22 l 29
 13 23 l 29
 14 19 l 29
18 19 m 29
 17 18 l 29
 14 22 l 29
 17 23 l 29
 18 19 l 29
EndSplineSet
Refer: 371 12498 N 1 0 0 1 0 0 2
EndChar

StartChar: uni30D4
Encoding: 12500 12500 373
Width: 21
VWidth: 0
Flags: HW
LayerCount: 2
Fore
SplineSet
14 22 m 4
 14 22 13 22 13 21 c 4
 13 20 14 20 14 20 c 4
 14 20 15 20 15 21 c 4
 15 22 14 22 14 22 c 4
14 24 m 4
 16 24 17 22 17 21 c 4
 17 19 16 18 14 18 c 28
 12 18 11 19 11 21 c 4
 11 22 12 24 14 24 c 4
EndSplineSet
Refer: 371 12498 N 1 0 0 1 0 0 2
EndChar

StartChar: uni30CF
Encoding: 12495 12495 374
Width: 21
VWidth: 0
Flags: HW
LayerCount: 2
Fore
SplineSet
14 2 m 17
 14 7 13 13 12 17 c 9
 15 18 l 17
 16 15 18 8 19 3 c 9
 14 2 l 17
7 2 m 9
 2 4 l 17
 5 9 7 13 7 18 c 9
 10 17 l 17
 10 12 9 6 7 2 c 9
EndSplineSet
EndChar

StartChar: uni30D0
Encoding: 12496 12496 375
Width: 21
VWidth: 0
Flags: HW
LayerCount: 2
Fore
SplineSet
15 20 m 29
 14 19 l 29
 11 23 l 29
 14 24 l 29
 15 20 l 29
19 20 m 29
 18 19 l 29
 15 23 l 29
 18 24 l 29
 19 20 l 29
EndSplineSet
Refer: 374 12495 N 1 0 0 1 0 0 2
EndChar

StartChar: uni30D1
Encoding: 12497 12497 376
Width: 21
VWidth: 0
Flags: HW
LayerCount: 2
Fore
SplineSet
15 23 m 0
 15 23 14 23 14 22 c 0
 14 21 15 21 15 21 c 0
 15 21 16 21 16 22 c 0
 16 23 15 23 15 23 c 0
15 25 m 0
 17 25 18 23 18 22 c 0
 18 20 17 19 15 19 c 24
 13 19 12 20 12 22 c 0
 12 23 13 25 15 25 c 0
EndSplineSet
Refer: 374 12495 N 1 0 0 1 0 0 2
EndChar

StartChar: uni30BB
Encoding: 12475 12475 377
Width: 21
VWidth: 0
Flags: HW
LayerCount: 2
Fore
SplineSet
2 16 m 25
 18 17 l 25
 19 14 l 25
 14 7 l 25
 11 11 l 25
 16 14 l 25
 2 11 l 25
 2 16 l 25
5 20 m 9
 9 20 l 17
 8 12 8 8 8 5 c 0
 8 4 9 3 10 3 c 0
 12 3 14 4 18 7 c 9
 19 1 l 17
 15 0 12 -1 7 0 c 0
 4.80762 0.438477 4 3 4 5 c 0
 4 8 4 13 5 20 c 9
EndSplineSet
EndChar

StartChar: uni30BC
Encoding: 12476 12476 378
Width: 21
VWidth: 0
Flags: HW
LayerCount: 2
Fore
SplineSet
15 19 m 29
 14 18 l 29
 11 22 l 29
 14 23 l 29
 15 19 l 29
19 19 m 29
 18 18 l 29
 15 22 l 29
 18 23 l 29
 19 19 l 29
2 16 m 25
 18 17 l 25
 19 14 l 25
 14 7 l 25
 11 11 l 25
 16 14 l 25
 2 11 l 25
 2 16 l 25
5 20 m 9
 9 20 l 17
 8 12 8 8 8 5 c 0
 8 4 9 3 10 3 c 0
 12 3 14 4 18 7 c 9
 19 1 l 17
 15 0 12 -1 7 0 c 0
 4.80762 0.438477 4 3 4 5 c 0
 4 8 4 13 5 20 c 9
EndSplineSet
EndChar

StartChar: uni30F5
Encoding: 12533 12533 379
Width: 17
VWidth: 0
Flags: HW
LayerCount: 2
Fore
SplineSet
2 11 m 25
 15 11 l 25
 15 9 15 9.47168 15 5 c 0
 15 1 13 0 10 0 c 9
 10 3 l 17
 11 3 12 3 12 6 c 0
 12 9 12 7 12 8 c 25
 2 7 l 25
 2 11 l 25
3 0 m 25
 5 14 l 25
 8 14 l 25
 7 0 l 25
 3 0 l 25
EndSplineSet
EndChar

StartChar: uni30DF
Encoding: 12511 12511 380
Width: 21
VWidth: 0
Flags: HW
LayerCount: 2
Fore
SplineSet
2 6 m 17
 6 6 11 6 19 4 c 9
 18 0 l 17
 12 2 6 3 2 3 c 9
 2 6 l 17
4 12 m 17
 8 12 11 12 17 10 c 9
 16 7 l 17
 12 8.66699 8 9 4 9 c 9
 4 12 l 17
3 18 m 17
 8 18 14 18 19 16 c 9
 18 12 l 17
 12 15 7 15 3 15 c 9
 3 18 l 17
EndSplineSet
EndChar

StartChar: uni30F1
Encoding: 12529 12529 381
Width: 21
VWidth: 0
Flags: HW
LayerCount: 2
Fore
SplineSet
12 4 m 25
 7 4 l 25
 9 16 l 25
 12 16 l 25
 12 4 l 25
4 18 m 25
 18 18 l 25
 19 15 l 17
 18 11 14 9 13 9 c 1
 12 11 l 1
 13 11 15 13 15 15 c 1
 4 13 l 9
 4 18 l 25
19 2 m 25
 3 2 l 25
 2 5 l 25
 19 7 l 25
 19 2 l 25
EndSplineSet
EndChar

StartChar: uni30F9
Encoding: 12537 12537 382
Width: 21
VWidth: 0
Flags: HW
LayerCount: 2
Fore
SplineSet
15 20 m 29
 14 19 l 29
 11 23 l 29
 14 24 l 29
 15 20 l 29
19 20 m 29
 18 19 l 29
 15 23 l 29
 18 24 l 29
 19 20 l 29
EndSplineSet
Refer: 381 12529 N 1 0 0 1 0 0 2
EndChar

StartChar: uni30F0
Encoding: 12528 12528 383
Width: 21
VWidth: 0
Flags: HW
LayerCount: 2
Fore
SplineSet
6 20 m 25
 9 20 l 25
 9 4 l 25
 5 4 l 25
 6 20 l 25
19 17 m 25
 19 14 l 25
 3 13 l 25
 3 17 l 25
 19 17 l 25
19 4 m 25
 2 4 l 25
 2 7 l 25
 19 8 l 25
 19 4 l 25
17 0 m 25
 12 0 l 25
 14 20 l 25
 17 20 l 25
 17 0 l 25
EndSplineSet
EndChar

StartChar: uni30F8
Encoding: 12536 12536 384
Width: 21
VWidth: 0
Flags: HW
LayerCount: 2
Fore
SplineSet
15 21 m 29
 14 20 l 29
 11 24 l 29
 14 25 l 29
 15 21 l 29
19 21 m 29
 18 20 l 29
 15 24 l 29
 18 25 l 29
 19 21 l 29
EndSplineSet
Refer: 383 12528 N 1 0 0 1 0 0 2
EndChar

StartChar: uniFF9F
Encoding: 65439 65439 441
Width: 12
VWidth: 0
Flags: HW
LayerCount: 2
Fore
SplineSet
6 18 m 0
 6 18 5 18 5 17 c 0
 5 16 6 16 6 16 c 0
 6 16 7 16 7 17 c 0
 7 18 6 18 6 18 c 0
6 20 m 0
 8 20 9 18 9 17 c 0
 9 15 8 14 6 14 c 24
 4 14 3 15 3 17 c 0
 3 18 4 20 6 20 c 0
EndSplineSet
EndChar

StartChar: uniFF9E
Encoding: 65438 65438 442
Width: 12
VWidth: 0
Flags: HW
LayerCount: 2
Fore
SplineSet
6 16 m 25
 5 15 l 25
 2 19 l 25
 5 20 l 25
 6 16 l 25
10 16 m 25
 9 15 l 25
 6 19 l 25
 9 20 l 25
 10 16 l 25
EndSplineSet
EndChar

StartChar: uni3057
Encoding: 12375 12375 443
Width: 21
VWidth: 0
Flags: HW
LayerCount: 2
Fore
SplineSet
9 19 m 17
 7 13 6 9 6 6 c 0
 6 5 7 3 9 3 c 0
 11 3 13 5 16 8 c 9
 18 3 l 17
 14 1 12 0 9 0 c 0
 5.83789 0 3 2.83789 3 6 c 0
 3 9 3 13 4 20 c 9
 9 19 l 17
EndSplineSet
EndChar

StartChar: uni3058
Encoding: 12376 12376 444
Width: 21
VWidth: 0
Flags: HW
LayerCount: 2
Fore
SplineSet
14 12 m 29
 13 11 l 29
 10 15 l 29
 13 16 l 29
 14 12 l 29
17 14 m 29
 16 13 l 29
 13 17 l 29
 16 18 l 29
 17 14 l 29
EndSplineSet
Refer: 443 12375 N 1 0 0 1 0 0 2
EndChar

StartChar: uni305B
Encoding: 12379 12379 445
Width: 21
VWidth: 0
Flags: HW
LayerCount: 2
Fore
SplineSet
16 20 m 17
 17 14 17 9 16 8 c 0
 14.4189 6.41895 13 6 10 6 c 9
 10 10 l 17
 13 10 14 9.76367 14 12 c 0
 14 13 14 14 13 20 c 9
 16 20 l 17
2 17 m 25
 19 17 l 25
 19 14 l 25
 2 12 l 25
 2 17 l 25
5 20 m 9
 9 19 l 17
 7 11 7 9 7 6 c 0
 7 4 9 3 10 3 c 0
 12 3 14 3 18 6 c 9
 19 1 l 17
 15 0 13 -1 8 0 c 0
 5.80762 0.438477 4 3 4 5 c 0
 4 8 4 13 5 20 c 9
EndSplineSet
EndChar

StartChar: uni305C
Encoding: 12380 12380 446
Width: 21
VWidth: 0
Flags: HW
LayerCount: 2
Fore
SplineSet
15 21 m 25
 14 20 l 25
 11 24 l 25
 14 25 l 25
 15 21 l 25
19 21 m 25
 18 20 l 25
 15 24 l 25
 18 25 l 25
 19 21 l 25
EndSplineSet
Refer: 445 12379 N 1 0 0 1 0 0 2
EndChar

StartChar: uni3078
Encoding: 12408 12408 447
Width: 21
VWidth: 0
Flags: HW
LayerCount: 2
Fore
SplineSet
2 12 m 17
 4.33329 12.946 7 15 9 18 c 1
 11 15 15 10 19 7 c 9
 15 3 l 17
 12.3209 6.66682 10 11 9 14 c 1
 8 12 6 9 5 8 c 9
 2 12 l 17
EndSplineSet
EndChar

StartChar: uni3079
Encoding: 12409 12409 448
Width: 21
VWidth: 0
Flags: HW
LayerCount: 2
Fore
SplineSet
15 17 m 29
 14 16 l 29
 11 20 l 29
 14 21 l 29
 15 17 l 29
19 17 m 29
 18 16 l 29
 15 20 l 29
 18 21 l 29
 19 17 l 29
EndSplineSet
Refer: 447 12408 N 1 0 0 1 0 0 2
EndChar

StartChar: uni307A
Encoding: 12410 12410 449
Width: 21
VWidth: 0
Flags: HW
LayerCount: 2
Fore
SplineSet
15 20 m 4
 15 20 14 20 14 19 c 4
 14 18 15 18 15 18 c 4
 15 18 16 18 16 19 c 4
 16 20 15 20 15 20 c 4
15 22 m 4
 17 22 18 20 18 19 c 4
 18 17 17 16 15 16 c 28
 13 16 12 17 12 19 c 4
 12 20 13 22 15 22 c 4
EndSplineSet
Refer: 447 12408 N 1 0 0 1 0 0 2
EndChar

StartChar: uni305F
Encoding: 12383 12383 450
Width: 21
VWidth: 0
Flags: HW
LayerCount: 2
Fore
SplineSet
19 4 m 25
 18 0 l 25
 9 4 l 25
 10 6 l 25
 19 4 l 25
19 11 m 25
 19 7 l 25
 11 8 l 25
 11 10 l 25
 19 11 l 25
2 15 m 25
 15 16 l 25
 15 12 l 25
 2 12 l 25
 2 15 l 25
2 0 m 17
 4 6 5 13 5 20 c 9
 10 20 l 17
 8 13 7 6 7 0 c 9
 2 0 l 17
EndSplineSet
EndChar

StartChar: uni3060
Encoding: 12384 12384 451
Width: 21
VWidth: 0
Flags: HW
LayerCount: 2
Fore
SplineSet
15 19 m 29
 14 18 l 29
 11 22 l 29
 14 23 l 29
 15 19 l 29
19 19 m 29
 18 18 l 29
 15 22 l 29
 18 23 l 29
 19 19 l 29
EndSplineSet
Refer: 450 12383 N 1 0 0 1 0 0 2
EndChar

StartChar: uni3064
Encoding: 12388 12388 452
Width: 21
VWidth: 0
Flags: HW
LayerCount: 2
Fore
SplineSet
4 12 m 9
 2 18 l 17
 4 19 8 20 11 20 c 0
 15.4721 20 19 18 19 12 c 0
 19 6 13 2 9 0 c 9
 7 4 l 17
 11 5 15 9 15 12 c 0
 15 15 13 16 11 16 c 0
 8 16 6 14 4 12 c 9
EndSplineSet
EndChar

StartChar: uni3065
Encoding: 12389 12389 453
Width: 21
VWidth: 0
Flags: HW
LayerCount: 2
Fore
SplineSet
15 21 m 25
 14 20 l 25
 11 24 l 25
 14 25 l 25
 15 21 l 25
19 21 m 25
 18 20 l 25
 15 24 l 25
 18 25 l 25
 19 21 l 25
EndSplineSet
Refer: 452 12388 N 1 0 0 1 0 0 2
EndChar

StartChar: uni3063
Encoding: 12387 12387 454
Width: 17
VWidth: 0
Flags: HW
LayerCount: 2
Fore
SplineSet
4 7 m 9
 2 12 l 17
 4 13 6 14 9 14 c 0
 12 14 15 13 15 10 c 0
 15 3 11 1 8 0 c 9
 6 4 l 17
 10 4 12 7 12 9 c 0
 12 10 12 11 10 11 c 0
 7 11 5 9 4 7 c 9
EndSplineSet
EndChar

StartChar: uni3066
Encoding: 12390 12390 455
Width: 21
VWidth: 0
Flags: HW
LayerCount: 2
Fore
SplineSet
2 19 m 25
 18 20 l 29
 19 17 l 21
 14 14 9 10 8 7 c 0
 6.73535 3.20508 14 5 18 6 c 9
 19 1 l 17
 14 0 13 0 11 0 c 0
 6.87695 0 2.73535 3.20508 4 7 c 0
 5 10 9 14 14 17 c 9
 3 14 l 25
 2 19 l 25
EndSplineSet
EndChar

StartChar: uni3067
Encoding: 12391 12391 456
Width: 21
VWidth: 0
Flags: HW
LayerCount: 2
Fore
SplineSet
15 7 m 25
 14 6 l 25
 11 10 l 25
 14 11 l 25
 15 7 l 25
18 9 m 25
 17 8 l 25
 14 12 l 25
 17 13 l 25
 18 9 l 25
EndSplineSet
Refer: 455 12390 N 1 0 0 1 0 0 2
EndChar

StartChar: uni304F
Encoding: 12367 12367 457
Width: 21
VWidth: 0
Flags: HW
LayerCount: 2
Fore
SplineSet
3 10 m 25
 14 20 l 25
 17 16 l 25
 7 10 l 25
 17 4 l 25
 13 0 l 25
 3 10 l 25
EndSplineSet
EndChar

StartChar: uni3050
Encoding: 12368 12368 458
Width: 21
VWidth: 0
Flags: HW
LayerCount: 2
Fore
SplineSet
15 8 m 25
 14 7 l 25
 11 11 l 25
 14 12 l 25
 15 8 l 25
18 10 m 25
 17 9 l 25
 14 13 l 25
 17 14 l 25
 18 10 l 25
EndSplineSet
Refer: 457 12367 N 1 0 0 1 0 0 2
EndChar

StartChar: uni3046
Encoding: 12358 12358 459
Width: 21
VWidth: 0
Flags: HW
LayerCount: 2
Fore
SplineSet
17 18 m 29
 4 18 l 29
 5 22 l 29
 17 20 l 29
 17 18 l 29
4 9 m 9
 2 14 l 17
 4 15 7 16 10 16 c 0
 14.4717 16 19 16 19 10 c 0
 19 4 13 1 9 0 c 9
 7 4 l 17
 11 4 15 7 15 10 c 0
 15 13 13 13 11 13 c 0
 9 13 6 11 4 9 c 9
EndSplineSet
EndChar

StartChar: uni3045
Encoding: 12357 12357 460
Width: 17
VWidth: 0
Flags: HW
LayerCount: 2
Fore
SplineSet
13 12 m 25
 4 12 l 25
 4 15 l 25
 13 14 l 25
 13 12 l 25
4 5 m 9
 2 9 l 17
 6 11 7 11 10 11 c 0
 13 11 15 10 15 6 c 0
 15 1 10 0 7 0 c 9
 6 3 l 17
 10 3 12 4 12 6 c 0
 12 7 11 8 10 8 c 0
 8 8 6 7 4 5 c 9
EndSplineSet
EndChar

StartChar: uni3068
Encoding: 12392 12392 461
Width: 21
VWidth: 0
Flags: HW
LayerCount: 2
Fore
SplineSet
4 18 m 25
 9 20 l 25
 11 13 l 25
 8 12 l 25
 4 18 l 25
19 1 m 17
 15 0 12 0 8 0 c 0
 5 0 2 2.39445 2 6 c 0
 2 11 12 15 18 15 c 9
 17 10 l 17
 10 11 7 8 7 6 c 0
 7 5 8 4 10 4 c 0
 14 4 14 4 18 6 c 9
 19 1 l 17
EndSplineSet
EndChar

StartChar: uni3069
Encoding: 12393 12393 462
Width: 21
VWidth: 0
Flags: HW
LayerCount: 2
Fore
SplineSet
15 18 m 29
 14 17 l 29
 11 21 l 29
 14 22 l 29
 15 18 l 29
19 18 m 29
 18 17 l 29
 15 21 l 29
 18 22 l 29
 19 18 l 29
EndSplineSet
Refer: 461 12392 N 1 0 0 1 0 0 2
EndChar

StartChar: uni3053
Encoding: 12371 12371 463
Width: 21
VWidth: 0
Flags: HW
LayerCount: 2
Fore
SplineSet
9 12 m 25
 18 16 l 25
 17 11 l 25
 10 10 l 25
 9 12 l 25
3 17 m 17
 8 19 13 19 18 16 c 9
 17 11 l 17
 15 15 9 16 4 14 c 9
 3 17 l 17
19 3 m 17
 14 1 8 1 2 3 c 9
 3 8 l 17
 8 4 13 4 18 6 c 9
 19 3 l 17
EndSplineSet
EndChar

StartChar: uni3054
Encoding: 12372 12372 464
Width: 21
VWidth: 0
Flags: HW
LayerCount: 2
Fore
SplineSet
15 20 m 25
 14 19 l 25
 11 23 l 25
 14 24 l 25
 15 20 l 25
19 20 m 25
 18 19 l 25
 15 23 l 25
 18 24 l 25
 19 20 l 25
EndSplineSet
Refer: 463 12371 N 1 0 0 1 0 0 2
EndChar

StartChar: uni304A
Encoding: 12362 12362 465
Width: 21
VWidth: 0
Flags: HW
LayerCount: 2
Fore
SplineSet
18 21 m 17
 19 18 19 16 19 15 c 9
 16 15 l 17
 16 17 15 19 14 20 c 9
 18 21 l 17
2 15 m 25
 14 17 l 25
 14 13 l 25
 3 12 l 25
 2 15 l 25
4 19 m 9
 9 20 l 17
 10 15 11 11 11 6 c 0
 11 3 9 0 6 0 c 0
 3 0 1.45767 2.8307 2 5 c 0
 3 9 7 11 12 11 c 24
 15 11 18 9 19 6 c 24
 20 3 17 1 15 0 c 9
 12 2 l 17
 14 3 16 4 16 6 c 0
 16 7 14 8 12 8 c 24
 9 8 6 7 5 5 c 0
 4.36754 3.73509 5 3 6 3 c 24
 7 3 8 5 8 6 c 0
 8 11 7 13 4 19 c 9
EndSplineSet
EndChar

StartChar: uni3049
Encoding: 12361 12361 466
Width: 17
VWidth: 0
Flags: HW
LayerCount: 2
Fore
SplineSet
14 15 m 17
 15 12 15 11 15 10 c 9
 13 10 l 17
 13 11 12 13 11 14 c 9
 14 15 l 17
2 10 m 25
 12 12 l 25
 12 9 l 25
 3 8 l 25
 2 10 l 25
4 14 m 9
 8 15 l 17
 9 11 10 9 10 5 c 0
 10 3 8 0 5 0 c 0
 4 0 2 0.764648 2 3 c 0
 2 7 6 8 10 8 c 0
 12 8 15 6 15 4 c 0
 15 3 15 2 13 0 c 9
 10 1 l 17
 11 2 12 3 12 4 c 0
 12 5 11 6 10 6 c 24
 8 6 6 6 5 4 c 0
 4.36719 2.73535 6 3 6 3 c 24
 7 3 7 4 7 5 c 0
 7 7 6 10 4 14 c 9
EndSplineSet
EndChar

StartChar: uni3094
Encoding: 12436 12436 467
Width: 21
VWidth: 0
Flags: HW
LayerCount: 2
Fore
SplineSet
15 21 m 29
 14 20 l 29
 11 24 l 29
 14 25 l 29
 15 21 l 29
19 21 m 29
 18 20 l 29
 15 24 l 29
 18 25 l 29
 19 21 l 29
EndSplineSet
Refer: 459 12358 N 1 0 0 1 0 0 2
EndChar

StartChar: uni306F
Encoding: 12399 12399 468
Width: 21
VWidth: 0
Flags: HW
LayerCount: 2
Fore
SplineSet
19 17 m 29
 19 13 l 29
 8 13 l 29
 8 16 l 29
 19 17 l 29
14 20 m 21
 15 10 15 7 15 4 c 4
 15 2 13 -0 11 0 c 28
 9 0 7 1 7 5 c 4
 7 8 10.8377 9 14 9 c 4
 18 9 19 4 19 0 c 13
 16 0 l 21
 16 2 16 5 14 6 c 4
 12.7354 6.63281 10 6 10 5 c 4
 10 4 10 3 11 3 c 28
 12 3 12 4 12 5 c 4
 12 8 11 16 10 19 c 13
 14 20 l 21
2 0 m 17
 2 1 2 8 3 20 c 9
 7 19 l 17
 5 14 5 6 6 0 c 9
 2 0 l 17
EndSplineSet
EndChar

StartChar: uni3070
Encoding: 12400 12400 469
Width: 21
VWidth: 0
Flags: HW
LayerCount: 2
Fore
SplineSet
15 21 m 29
 14 20 l 29
 11 24 l 29
 14 25 l 29
 15 21 l 29
19 21 m 29
 18 20 l 29
 15 24 l 29
 18 25 l 29
 19 21 l 29
EndSplineSet
Refer: 468 12399 N 1 0 0 1 0 0 2
EndChar

StartChar: uni307B
Encoding: 12411 12411 470
Width: 21
VWidth: 0
Flags: HW
LayerCount: 2
Fore
SplineSet
18 14 m 25
 18 11 l 25
 8 11 l 25
 8 13 l 25
 18 14 l 25
18 20 m 25
 19 16 l 25
 8 16 l 25
 8 18 l 25
 18 20 l 25
14 19 m 17
 15 9 15 7 15 4 c 0
 15 2 13 -0 11 0 c 24
 9 0 7 1 7 5 c 0
 7 8 10.8377 9 14 9 c 0
 18 9 19 4 19 0 c 9
 16 0 l 17
 16 2 16 5 14 6 c 0
 12.7354 6.63281 10 6 10 5 c 0
 10 4 10 3 11 3 c 24
 12 3 12 4 12 5 c 0
 12 8 12 15 11 18 c 9
 14 19 l 17
2 0 m 17
 2 1 2 8 3 20 c 9
 7 19 l 17
 5 14 5 6 6 0 c 9
 2 0 l 17
EndSplineSet
EndChar

StartChar: uni307C
Encoding: 12412 12412 471
Width: 21
VWidth: 0
Flags: HW
LayerCount: 2
Fore
SplineSet
15 21 m 29
 14 20 l 29
 11 24 l 29
 14 25 l 29
 15 21 l 29
19 21 m 29
 18 20 l 29
 15 24 l 29
 18 25 l 29
 19 21 l 29
EndSplineSet
Refer: 470 12411 N 1 0 0 1 0 0 2
EndChar

StartChar: uni307D
Encoding: 12413 12413 472
Width: 21
VWidth: 0
Flags: HW
LayerCount: 2
Fore
SplineSet
15 24 m 4
 15 24 14 24 14 23 c 4
 14 22 15 22 15 22 c 4
 15 22 16 22 16 23 c 4
 16 24 15 24 15 24 c 4
15 26 m 4
 17 26 18 24 18 23 c 4
 18 21 17 20 15 20 c 28
 13 20 12 21 12 23 c 4
 12 24 13 26 15 26 c 4
EndSplineSet
Refer: 470 12411 N 1 0 0 1 0 0 2
EndChar

StartChar: uni307E
Encoding: 12414 12414 473
Width: 21
VWidth: 0
Flags: HW
LayerCount: 2
Fore
SplineSet
18 13 m 25
 18 10 l 25
 3 10 l 25
 3 12 l 25
 18 13 l 25
18 19 m 25
 19 15 l 25
 2 15 l 25
 2 17 l 25
 18 19 l 25
11 21 m 17
 12 15 12 7 12 4 c 0
 12 2 10 0 8 0 c 24
 5 0 2 0 2 4 c 0
 2 8 5 9 11 9 c 0
 15 9 19 4 19 1 c 9
 14 0 l 17
 14 2 14.4205 4.85982 11 6 c 0
 8 7 6 6 5 5 c 0
 4.29289 4.29289 5 3 7 3 c 0
 8 3 9 4 9 5 c 0
 9 8 7 17 6 20 c 9
 11 21 l 17
EndSplineSet
EndChar

StartChar: uni3088
Encoding: 12424 12424 474
Width: 21
VWidth: 0
Flags: HW
LayerCount: 2
Fore
SplineSet
18 17 m 25
 19 13 l 25
 9 13 l 25
 9 15 l 25
 18 17 l 25
11 21 m 17
 12 15 12 7 12 4 c 0
 12 2 9 0 7 0 c 0
 4 0 2 2 2 6 c 0
 2 10 5 11 11 11 c 0
 15 11 19 4 19 1 c 9
 14 0 l 17
 14 2 14.4209 5.85938 11 7 c 0
 8 8 6 7 5 6 c 0
 4.29297 5.29297 5 3 7 3 c 0
 8 3 9 4 9 5 c 0
 9 8 7 17 6 20 c 9
 11 21 l 17
EndSplineSet
EndChar

StartChar: uni3087
Encoding: 12423 12423 475
Width: 17
VWidth: 0
Flags: HW
LayerCount: 2
Fore
SplineSet
15 13 m 25
 15 9 l 25
 7 9 l 25
 7 11 l 29
 15 13 l 25
9 15 m 17
 10 5 10 6 10 3 c 0
 10 1 8 0 6 0 c 24
 4 0 2 0 2 3 c 0
 2 5 4.83789 8 8 8 c 0
 12 8 15 4 15 0 c 9
 12 0 l 17
 12 2 11 4 9 5 c 0
 7 6 5 4 5 3 c 0
 5 2 6 2 6 2 c 24
 7 2 7 3 7 4 c 0
 7 7 6 11 5 14 c 9
 9 15 l 17
EndSplineSet
EndChar

StartChar: uni306E
Encoding: 12398 12398 476
Width: 21
VWidth: 0
Flags: HW
LayerCount: 2
Fore
SplineSet
7 16 m 9
 11 18 l 17
 13 14 13 12 13 9 c 0
 13 6 10 1 7 1 c 0
 2 1 2 6.76465 2 9 c 0
 2 13 5 20 11 20 c 24
 16 20 19 15 19 10 c 0
 19 5.87695 18 2 16 -1 c 13
 12 2 l 21
 14 4 16 8 16 10 c 0
 16 15 14 17 11 17 c 24
 7 17 5 13 5 10 c 0
 5 8.58594 5 6 7 6 c 24
 9 6 10 8 10 9 c 0
 10 12 9 14 7 16 c 9
EndSplineSet
EndChar

StartChar: uni3071
Encoding: 12401 12401 477
Width: 21
VWidth: 0
Flags: HW
LayerCount: 2
Fore
SplineSet
15 24 m 4
 15 24 14 24 14 23 c 4
 14 22 15 22 15 22 c 4
 15 22 16 22 16 23 c 4
 16 24 15 24 15 24 c 4
15 26 m 4
 17 26 18 24 18 23 c 4
 18 21 17 20 15 20 c 28
 13 20 12 21 12 23 c 4
 12 24 13 26 15 26 c 4
EndSplineSet
Refer: 468 12399 N 1 0 0 1 0 0 2
EndChar

StartChar: uni3082
Encoding: 12418 12418 478
Width: 21
VWidth: 0
Flags: HW
LayerCount: 2
Fore
SplineSet
16 12 m 25
 16 8 l 25
 2 9 l 25
 2 11 l 25
 16 12 l 25
18 17 m 25
 18 13 l 25
 3 15 l 25
 3 17 l 25
 18 17 l 25
12 19 m 17
 10 13 9 9 9 6 c 0
 9 5 9 3 11 3 c 0
 12 3 14 3 17 6 c 9
 19 2 l 17
 15 0 13 0 11 0 c 0
 7.83789 0 6 2.83789 6 6 c 0
 6 9 7 13 8 20 c 9
 12 19 l 17
EndSplineSet
EndChar

StartChar: uni3061
Encoding: 12385 12385 479
Width: 21
VWidth: 0
Flags: HW
LayerCount: 2
Fore
SplineSet
2 17 m 25
 18 16 l 25
 18 14 l 25
 2 12 l 25
 2 17 l 25
4 7 m 9
 6 20 l 25
 12 19 l 25
 8 10 l 17
 11 12 19 13 19 6 c 0
 19 2.83772 15 0 12 0 c 4
 9.76367 0 7 0 4 1 c 9
 6 5 l 17
 9 3 10 3 11 3 c 0
 13 3 15 4.58594 15 6 c 0
 15 10 9 8 4 7 c 9
EndSplineSet
EndChar

StartChar: uni3062
Encoding: 12386 12386 480
Width: 21
VWidth: 0
Flags: HW
LayerCount: 2
Fore
SplineSet
15 19 m 29
 14 18 l 29
 11 22 l 29
 14 23 l 29
 15 19 l 29
19 19 m 29
 18 18 l 29
 15 22 l 29
 18 23 l 29
 19 19 l 29
EndSplineSet
Refer: 479 12385 N 1 0 0 1 0 0 2
EndChar

StartChar: uni3055
Encoding: 12373 12373 481
Width: 21
VWidth: 0
Flags: HW
LayerCount: 2
Fore
SplineSet
3 12 m 25
 2 16 l 25
 18 16 l 25
 18 14 l 25
 3 12 l 25
5 19 m 25
 10 20 l 25
 15 7 l 17
 12 8 6 8 6 5 c 0
 6 2 14 3 18 6 c 9
 19 1 l 17
 12 -2 2 0 2 5 c 0
 2 9 6 10 10 10 c 9
 5 19 l 25
EndSplineSet
EndChar

StartChar: uni3056
Encoding: 12374 12374 482
Width: 21
VWidth: 0
Flags: HW
LayerCount: 2
Fore
SplineSet
15 19 m 29
 14 18 l 29
 11 22 l 29
 14 23 l 29
 15 19 l 29
19 19 m 29
 18 18 l 29
 15 22 l 29
 18 23 l 29
 19 19 l 29
EndSplineSet
Refer: 481 12373 N 1 0 0 1 0 0 2
EndChar

StartChar: uni304D
Encoding: 12365 12365 483
Width: 21
VWidth: 0
Flags: HW
LayerCount: 2
Fore
SplineSet
3 10 m 25
 3 13 l 25
 17 14 l 25
 17 12 l 25
 3 10 l 25
2 14 m 25
 2 17 l 25
 16 18 l 25
 16 16 l 25
 2 14 l 25
5 19 m 25
 10 20 l 25
 15 7 l 17
 12 7 6 7 6 4 c 0
 6 2 14 3 18 5 c 9
 19 1 l 17
 12 -1 2 -1 2 4 c 0
 2 8 6 9 10 9 c 9
 5 19 l 25
EndSplineSet
EndChar

StartChar: uni304E
Encoding: 12366 12366 484
Width: 21
VWidth: 0
Flags: HW
LayerCount: 2
Fore
SplineSet
15 20 m 29
 14 19 l 29
 11 23 l 29
 14 24 l 29
 15 20 l 29
19 20 m 29
 18 19 l 29
 15 23 l 29
 18 24 l 29
 19 20 l 29
EndSplineSet
Refer: 483 12365 N 1 0 0 1 0 0 2
EndChar

StartChar: uni306A
Encoding: 12394 12394 485
Width: 21
VWidth: 0
Flags: HW
LayerCount: 2
Fore
SplineSet
16 12 m 17
 16 14 15 16 13 18 c 9
 17 20 l 17
 18 18 19 13 19 12 c 9
 16 12 l 17
13 12 m 21
 15 10 17 8 17 5 c 4
 17 3 15 1 12 1 c 4
 10 1 8 1 8 4 c 4
 8 7 9.83789 8 13 8 c 4
 17 8 19 5 19 1 c 13
 16 0 l 21
 16 2 15 6 13 6 c 4
 11.5859 6 11 5 11 4 c 4
 11 3 12 3 12 3 c 4
 13 3 14 4 14 5 c 4
 14 8 12 9 10 10 c 13
 13 12 l 21
2 14 m 25
 12 17 l 25
 12 13 l 25
 2 12 l 25
 2 14 l 25
2 3 m 17
 4 9 4 12 4 19 c 9
 9 20 l 17
 7 13 6 8 6 2 c 9
 2 3 l 17
EndSplineSet
EndChar

StartChar: uni3051
Encoding: 12369 12369 486
Width: 21
VWidth: 0
Flags: HW
LayerCount: 2
Fore
SplineSet
19 16 m 25
 19 12 l 25
 9 12 l 25
 9 15 l 25
 19 16 l 25
15 0 m 9
 10 1 l 17
 12 5 13 14 13 20 c 9
 16 20 l 17
 16 13 16.002 5.98633 15 0 c 9
3 0 m 17
 2 6 2 15 4 20 c 9
 7 19 l 17
 6 14 6 9 7 1 c 9
 3 0 l 17
EndSplineSet
EndChar

StartChar: uni3052
Encoding: 12370 12370 487
Width: 21
VWidth: 0
Flags: HW
LayerCount: 2
Fore
SplineSet
15 21 m 29
 14 20 l 29
 11 24 l 29
 14 25 l 29
 15 21 l 29
19 21 m 29
 18 20 l 29
 15 24 l 29
 18 25 l 29
 19 21 l 29
EndSplineSet
Refer: 486 12369 N 1 0 0 1 0 0 2
EndChar

StartChar: uni3096
Encoding: 12438 12438 488
Width: 17
VWidth: 0
Flags: HW
LayerCount: 2
Fore
SplineSet
15 12 m 25
 15 8 l 25
 7 8 l 25
 7 10 l 25
 15 12 l 25
13 0 m 9
 8 0 l 17
 10 4 11 8 9 14 c 9
 12 14 l 17
 13 11 14.002 5.98633 13 0 c 9
2 0 m 17
 1 6 2 11 3 15 c 9
 6 14 l 17
 4 9 5 5 6 1 c 9
 2 0 l 17
EndSplineSet
EndChar

StartChar: uni304B
Encoding: 12363 12363 489
Width: 21
VWidth: 0
Flags: HW
LayerCount: 2
Fore
SplineSet
18 14 m 17
 17 16 15 18 13 19 c 9
 16 21 l 17
 18 19 20 16 20 15 c 9
 18 14 l 17
2 16 m 17
 3 17 5 18 9 18 c 0
 14 18 18 13 18 9 c 0
 18 6 17 2 16 0 c 9
 10 2 l 17
 12 3 14 8 14 11 c 0
 14 13 12 15 9 15 c 0
 5.83789 15 5 14 3 12 c 9
 2 16 l 17
2 1 m 17
 4 6 6 14 6 22 c 9
 9 22 l 17
 9.33301 14 8 4 7 0 c 9
 2 1 l 17
EndSplineSet
EndChar

StartChar: uni304C
Encoding: 12364 12364 490
Width: 21
VWidth: 0
Flags: HW
LayerCount: 2
Fore
SplineSet
15 22 m 29
 14 21 l 29
 11 25 l 29
 14 26 l 29
 15 22 l 29
19 22 m 29
 18 21 l 29
 15 25 l 29
 18 26 l 29
 19 22 l 29
EndSplineSet
Refer: 489 12363 N 1 0 0 1 0 0 2
EndChar

StartChar: uni306B
Encoding: 12395 12395 491
Width: 21
VWidth: 0
Flags: HW
LayerCount: 2
Fore
SplineSet
19 17 m 25
 19 12 l 25
 9 12 l 25
 9 15 l 25
 19 17 l 25
19 7 m 25
 17 2 l 25
 8 6 l 25
 9 9 l 25
 19 7 l 25
3 0 m 17
 2 6 2 13 3 20 c 9
 8 19 l 17
 5 14 6 5 8 1 c 9
 3 0 l 17
EndSplineSet
EndChar

StartChar: uni3072
Encoding: 12402 12402 492
Width: 21
VWidth: 0
Flags: HW
LayerCount: 2
Fore
SplineSet
1 17 m 25
 9 18 l 17
 7 13 6 12 6 8 c 0
 6 6 7 3 10 3 c 0
 12 3 14 5 14 8 c 0
 14 11 12 17 11 20 c 9
 19 18 l 25
 18 13 l 25
 15 16 l 17
 17 12 17 9 17 7 c 0
 17 3 13 0 9 0 c 24
 5 -0 2 1.87689 2 6 c 0
 2 9 3 11 5 15 c 13
 2 13 l 25
 1 17 l 25
EndSplineSet
EndChar

StartChar: uni3073
Encoding: 12403 12403 493
Width: 21
VWidth: 0
Flags: HW
LayerCount: 2
Fore
SplineSet
15 21 m 29
 14 20 l 29
 11 24 l 29
 14 25 l 29
 15 21 l 29
19 21 m 29
 18 20 l 29
 15 24 l 29
 18 25 l 29
 19 21 l 29
EndSplineSet
Refer: 492 12402 N 1 0 0 1 0 0 2
EndChar

StartChar: uni3074
Encoding: 12404 12404 494
Width: 21
VWidth: 0
Flags: HW
LayerCount: 2
Fore
SplineSet
15 24 m 4
 15 24 14 24 14 23 c 4
 14 22 15 22 15 22 c 4
 15 22 16 22 16 23 c 4
 16 24 15 24 15 24 c 4
15 26 m 4
 17 26 18 24 18 23 c 4
 18 21 17 20 15 20 c 28
 13 20 12 21 12 23 c 4
 12 24 13 26 15 26 c 4
EndSplineSet
Refer: 492 12402 N 1 0 0 1 0 0 2
EndChar

StartChar: uni3095
Encoding: 12437 12437 495
Width: 17
VWidth: 0
Flags: HW
LayerCount: 2
Fore
SplineSet
14 10 m 17
 13 12 12 13 10 14 c 9
 13 16 l 17
 14 15 15 13 16 11 c 9
 14 10 l 17
2 10 m 17
 3 11 5 12 9 12 c 0
 13 12 15 8 15 5 c 0
 15 3 15 2 14 0 c 9
 10 2 l 17
 11 3 12 4 12 6 c 0
 12 8 10 9 9 9 c 0
 5.83789 9 5 9 3 7 c 9
 2 10 l 17
3 1 m 17
 5 6 5 8 5 16 c 9
 8 16 l 17
 8.33301 8 8 4 7 0 c 9
 3 1 l 17
EndSplineSet
EndChar

StartChar: uni3044
Encoding: 12356 12356 496
Width: 21
VWidth: 0
Flags: HW
LayerCount: 2
Fore
SplineSet
17 20 m 17
 18.002 14.0137 18 9 17 2 c 9
 14 2 l 17
 15 8 14 15 12 19 c 9
 17 20 l 17
4 19 m 9
 8 18 l 17
 6 9 6 4 10 3 c 9
 8 0 l 17
 3 1 3 8 4 19 c 9
EndSplineSet
EndChar

StartChar: uni3043
Encoding: 12355 12355 497
Width: 15
VWidth: 0
Flags: HW
LayerCount: 2
Fore
SplineSet
13 14 m 17
 14 10 14 6 13 2 c 9
 10 3 l 17
 12 8 11 10 9 13 c 9
 13 14 l 17
2 14 m 9
 6 13 l 17
 4 4 6 3 8 3 c 9
 7 0 l 17
 2 1 1 3 2 14 c 9
EndSplineSet
EndChar

StartChar: uni308A
Encoding: 12426 12426 498
Width: 21
VWidth: 0
Flags: HW
LayerCount: 2
Fore
SplineSet
15 0 m 9
 9 3 l 17
 14 7 15 10 15 14 c 0
 15 16 14 17 13 17 c 0
 9.39453 17 8 10 8 7 c 9
 5 8 l 17
 5 11 7.61523 20 13 20 c 0
 17 20 19 17 19 13 c 0
 19 7.90098 18 6 15 0 c 9
2 19 m 25
 7 20 l 25
 8 7 l 25
 5 6 l 25
 2 19 l 25
EndSplineSet
EndChar

StartChar: uni3093
Encoding: 12435 12435 499
Width: 21
VWidth: 0
Flags: HW
LayerCount: 2
Fore
SplineSet
19 3 m 17
 16 1 14 0 13 0 c 0
 10 0 10 4 8 4 c 24
 6 4 5 2 4 0 c 9
 3 1 l 17
 4 4 7 7 9 7 c 0
 12 7 12 4 13 4 c 0
 14 4 15 5 17 8 c 9
 19 3 l 17
4 0 m 25
 2 1 l 25
 7 20 l 25
 13 18 l 25
 4 0 l 25
EndSplineSet
EndChar

StartChar: uni3075
Encoding: 12405 12405 500
Width: 21
VWidth: 0
Flags: HW
LayerCount: 2
Fore
SplineSet
8 22 m 17
 10 22 13 20 14 19 c 9
 13 17 l 17
 12 18 9 19.333 7 19 c 9
 8 22 l 17
20 7 m 9
 17 6 l 17
 17.333 8 15 12 14 13 c 9
 16 14 l 17
 17 13 20 9 20 7 c 9
1 6 m 17
 1 8 4 12 5 13 c 9
 7 12 l 17
 6 11 4.66699 7 5 5 c 9
 1 6 l 17
5 1 m 9
 7 6 l 17
 8 4 10 3 11 3 c 0
 12 3 13 4 13 5 c 4
 13 8 7 9 7 16 c 9
 11 17 l 17
 11 11 16 9 16 4 c 0
 16 1 14 0 11 0 c 0
 8.76367 0 6 0 5 1 c 9
EndSplineSet
EndChar

StartChar: uni3076
Encoding: 12406 12406 501
Width: 21
VWidth: 0
Flags: HW
LayerCount: 2
Fore
SplineSet
15 21 m 29
 14 20 l 29
 11 24 l 29
 14 25 l 29
 15 21 l 29
19 21 m 29
 18 20 l 29
 15 24 l 29
 18 25 l 29
 19 21 l 29
EndSplineSet
Refer: 500 12405 N 1 0 0 1 0 0 2
EndChar

StartChar: uni3077
Encoding: 12407 12407 502
Width: 21
VWidth: 0
Flags: HW
LayerCount: 2
Fore
SplineSet
15 24 m 4
 15 24 14 24 14 23 c 4
 14 22 15 22 15 22 c 4
 15 22 16 22 16 23 c 4
 16 24 15 24 15 24 c 4
15 26 m 4
 17 26 18 24 18 23 c 4
 18 21 17 20 15 20 c 28
 13 20 12 21 12 23 c 4
 12 24 13 26 15 26 c 4
EndSplineSet
Refer: 500 12405 N 1 0 0 1 0 0 2
EndChar

StartChar: uni3081
Encoding: 12417 12417 503
Width: 21
VWidth: 0
Flags: HW
LayerCount: 2
Fore
SplineSet
2 18 m 9
 6 20 l 17
 7 13 12 7 14 6 c 9
 12 4 l 17
 10 6 3 13 2 18 c 9
7 2 m 0
 4.17188 2 2 4 2 9 c 0
 2 12 6 18 11 18 c 0
 15.123 18 19 15 19 10 c 0
 19 5.87695 18 2 16 -1 c 9
 12 2 l 17
 14 4 16 8 16 10 c 0
 16 12 13 15 11 15 c 0
 8 15 5 12 5 9 c 0
 5 7.58594 5.58594 5 7 5 c 0
 9 5 14 16 14 20 c 9
 19 18 l 17
 16 10 10 2 7 2 c 0
EndSplineSet
EndChar

StartChar: uni306C
Encoding: 12396 12396 504
Width: 21
VWidth: 0
Flags: HW
LayerCount: 2
Fore
SplineSet
2 18 m 9
 6 20 l 17
 7 13 10 9 12 8 c 9
 10 6 l 17
 8 8 3 13 2 18 c 9
7 3 m 0
 4.17188 3 2 5 2 10 c 0
 2 13 6 18 11 18 c 0
 15.123 18 19 16 19 10 c 0
 19 5.87695 17 0 14 0 c 0
 12 0 10 1 10 3 c 24
 10 5 13 7 15 7 c 0
 19 7 20 3 20 1 c 1
 18 0 l 1
 18 3 16.333 5 15 5 c 0
 14 5 13 4 13 3 c 0
 13 2 13 2 14 2 c 0
 16 2 16 8 16 10 c 0
 16 13 13 15 11 15 c 0
 8 15 5 13 5 10 c 0
 5 8.58594 5.58594 6 7 6 c 0
 9 6 14 16 14 20 c 9
 19 18 l 17
 16 10 10 3 7 3 c 0
EndSplineSet
EndChar

StartChar: uni3059
Encoding: 12377 12377 505
Width: 21
VWidth: 0
Flags: HW
LayerCount: 2
Fore
SplineSet
18 18 m 25
 18 15 l 25
 3 14 l 29
 2 18 l 29
 18 18 l 25
13 21 m 17
 14 15 13 13 13 10 c 0
 13 8 10 5 8 5 c 0
 6 5 4 6 4 8 c 0
 4 11 7.63359 15.6832 13 13 c 0
 17 11 16 1 6 -1 c 9
 5 3 l 17
 12 3 14.4209 9.85938 11 11 c 0
 8 12 7 10 7 9 c 0
 7 8 8 8 9 8 c 0
 10 8 10 9 10 10 c 0
 10 13 9 17 8 20 c 9
 13 21 l 17
EndSplineSet
EndChar

StartChar: uni305A
Encoding: 12378 12378 506
Width: 21
VWidth: 0
Flags: HW
LayerCount: 2
Fore
SplineSet
15 21 m 29
 14 20 l 29
 11 24 l 29
 14 25 l 29
 15 21 l 29
19 21 m 29
 18 20 l 29
 15 24 l 29
 18 25 l 29
 19 21 l 29
EndSplineSet
Refer: 505 12377 N 1 0 0 1 0 0 2
EndChar

StartChar: uni305D
Encoding: 12381 12381 507
Width: 21
VWidth: 0
Flags: HW
LayerCount: 2
Fore
SplineSet
4 20 m 25
 16 20 l 25
 17 17 l 25
 3 8 l 25
 2 12 l 25
 13 17 l 25
 4 16 l 25
 4 20 l 25
2 12 m 25
 18 13 l 25
 19 10 l 17
 14 9 9 6 8 5 c 0
 5.17124 2.17124 14 4 17 6 c 9
 18 1 l 17
 13 0 13 0 11 0 c 0
 6.87695 0 3 1 4 4 c 0
 5 7 9 9 14 11 c 9
 3 8 l 25
 2 12 l 25
EndSplineSet
EndChar

StartChar: uni305E
Encoding: 12382 12382 508
Width: 21
VWidth: 0
Flags: HW
LayerCount: 2
Fore
SplineSet
15 21 m 29
 14 20 l 29
 11 24 l 29
 14 25 l 29
 15 21 l 29
19 21 m 29
 18 20 l 29
 15 24 l 29
 18 25 l 29
 19 21 l 29
EndSplineSet
Refer: 507 12381 N 1 0 0 1 0 0 2
EndChar

StartChar: uni3048
Encoding: 12360 12360 509
Width: 21
VWidth: 0
Flags: HW
LayerCount: 2
Fore
SplineSet
2 2 m 25
 16 14 l 25
 19 12 l 25
 5 0 l 25
 2 2 l 25
2 14 m 25
 18 14 l 25
 19 12 l 25
 3 9 l 25
 2 14 l 25
17 17 m 25
 4 17 l 25
 5 21 l 25
 17 19 l 25
 17 17 l 25
19 0 m 25
 3 0 l 25
 2 2 l 25
 18 5 l 25
 19 0 l 25
EndSplineSet
EndChar

StartChar: uni3047
Encoding: 12359 12359 510
Width: 17
VWidth: 0
Flags: HW
LayerCount: 2
Fore
SplineSet
2 2 m 25
 13 10 l 25
 15 8 l 25
 4 0 l 25
 2 2 l 25
2 10 m 25
 14 10 l 25
 15 8 l 25
 2 6 l 25
 2 10 l 25
14 12 m 25
 3 12 l 25
 4 16 l 25
 14 14 l 25
 14 12 l 25
15 0 m 25
 3 0 l 25
 2 2 l 25
 15 4 l 25
 15 0 l 25
EndSplineSet
EndChar

StartChar: uni3042
Encoding: 12354 12354 511
Width: 21
VWidth: 0
Flags: HW
LayerCount: 2
Fore
SplineSet
2 18 m 25
 18 17 l 25
 18 15 l 25
 2 13 l 25
 2 18 l 25
7 20 m 9
 12 20 l 17
 11 13 12 2 13 -1 c 9
 10 -2 l 17
 9 1 7 15 7 20 c 9
16 0 m 1
 16 4 15 9 9 9 c 0
 7 9 5 8 5 5 c 0
 5 3.58594 6.58594 3 8 3 c 0
 11 3 14 5 16 12 c 9
 19 10 l 17
 17 6 13 0 8 0 c 0
 5.17188 0 2 0 2 5 c 0
 2 8 4 12 9 12 c 0
 18 12 19 4 19 1 c 1
 16 0 l 1
EndSplineSet
EndChar

StartChar: uni3041
Encoding: 12353 12353 512
Width: 17
VWidth: 0
Flags: HW
LayerCount: 2
Fore
SplineSet
2 12 m 25
 14 12 l 25
 14 10 l 25
 2 9 l 25
 2 12 l 25
5 14 m 9
 10 14 l 17
 9 7 9 2 10 -1 c 9
 8 -1 l 17
 7 2 5 9 5 14 c 9
12 0 m 1
 12 4 11 6 7 6 c 0
 6 6 5 5 5 3 c 0
 5 2 6 2 7 2 c 0
 8 2 11 4 12 8 c 9
 15 6 l 17
 13 2 11 0 6 0 c 0
 5 0 2 0 2 3 c 0
 2 6 5 8 7 8 c 0
 13 8 15 3 15 1 c 1
 12 0 l 1
EndSplineSet
EndChar

StartChar: uni3086
Encoding: 12422 12422 513
Width: 21
VWidth: 0
Flags: HW
LayerCount: 2
Fore
SplineSet
13 20 m 25
 13 0 l 25
 10 0 l 25
 8 20 l 25
 13 20 l 25
7 3 m 9
 6 7 l 17
 12 7 15 8 15 12 c 0
 15 14 13 14 12 14 c 0
 10 14 6 12 6 9 c 9
 4 9 l 17
 4 12 7 17 12 17 c 0
 16 17 19 15 19 11 c 0
 19 5.90137 12 4 7 3 c 9
2 16 m 25
 6 17 l 25
 6 9 l 25
 4 9 l 25
 2 16 l 25
EndSplineSet
EndChar

StartChar: uni3085
Encoding: 12421 12421 514
Width: 17
VWidth: 0
Flags: HW
LayerCount: 2
Fore
SplineSet
11 14 m 25
 11 0 l 25
 8 0 l 25
 7 14 l 25
 11 14 l 25
5 2 m 9
 5 5 l 17
 11 4 12 5 12 7 c 0
 12 9 10 9 9 9 c 0
 7 9 6 8 6 7 c 9
 3 6 l 17
 3 8 6 12 9 12 c 0
 13 12 15 11 15 7 c 0
 15 1.90137 10 2 5 2 c 9
2 12 m 25
 5 12 l 25
 6 7 l 25
 3 6 l 25
 2 12 l 25
EndSplineSet
EndChar

StartChar: uni3089
Encoding: 12425 12425 515
Width: 21
VWidth: 0
Flags: HW
LayerCount: 2
Fore
SplineSet
5 20 m 25
 17 20 l 25
 16 15 l 25
 5 17 l 25
 5 20 l 25
12 0 m 9
 8 3 l 17
 11 3 13 4 14 6 c 0
 14.8945 7.78904 14 9 12 9 c 0
 9 9 6 5 6 4 c 9
 4 6 l 17
 5 8 9 12 13 12 c 0
 16 12 18 11 18 8 c 0
 18 4 14 1 12 0 c 9
5 15 m 25
 9 14 l 25
 6 4 l 25
 3 5 l 25
 5 15 l 25
EndSplineSet
EndChar

StartChar: uni308F
Encoding: 12431 12431 516
Width: 21
VWidth: 0
Flags: HW
LayerCount: 2
Fore
SplineSet
1 5 m 25
 11 18 l 25
 12 17 l 25
 3 3 l 25
 1 5 l 25
2 15 m 25
 11 18 l 25
 12 17 l 25
 2 12 l 25
 2 15 l 25
5 0 m 25
 6 20 l 25
 9 20 l 25
 9 0 l 25
 5 0 l 25
3 3 m 9
 1 5 l 17
 3 8 9 15 13 15 c 0
 17.4717 15 19 12 19 8 c 0
 19 6 19 4 16 0 c 9
 12 2 l 17
 14 4 15 7 15 9 c 0
 15 11 15 12 13 12 c 0
 10 12 5 6 3 3 c 9
EndSplineSet
EndChar

StartChar: uni308E
Encoding: 12430 12430 517
Width: 17
VWidth: 0
Flags: HW
LayerCount: 2
Fore
SplineSet
1 5 m 25
 9 13 l 25
 10 11 l 25
 2 3 l 25
 1 5 l 25
1 12 m 25
 9 13 l 25
 10 11 l 25
 1 9 l 25
 1 12 l 25
3 0 m 25
 4 14 l 25
 7 14 l 25
 7 0 l 25
 3 0 l 25
2 3 m 9
 1 5 l 17
 3 7 7 10 11 10 c 0
 14 10 15 9 15 5 c 0
 15 3 13 1 12 0 c 9
 9 2 l 17
 11 3 12 4 12 6 c 0
 12 7 12 8 11 8 c 0
 8 8 4 6 2 3 c 9
EndSplineSet
EndChar

StartChar: uni308C
Encoding: 12428 12428 518
Width: 21
VWidth: 0
Flags: HW
LayerCount: 2
Fore
SplineSet
1 5 m 25
 11 18 l 25
 12 17 l 25
 3 3 l 25
 1 5 l 25
2 15 m 25
 11 18 l 25
 12 17 l 25
 2 12 l 25
 2 15 l 25
5 0 m 25
 6 20 l 25
 9 20 l 25
 9 0 l 25
 5 0 l 25
3 3 m 9
 1 5 l 17
 3 8 8 15 12 15 c 0
 16.4717 15 17 11 16 8 c 0
 14.3877 3.16309 16 4 19 5 c 9
 19 0 l 17
 12 0 11 1 12 5 c 0
 12.542 7.16895 14 12 12 12 c 0
 9 12 5 6 3 3 c 9
EndSplineSet
EndChar

StartChar: uni306D
Encoding: 12397 12397 519
Width: 21
VWidth: 0
Flags: HW
LayerCount: 2
Fore
SplineSet
1 5 m 25
 11 18 l 25
 12 17 l 25
 3 3 l 25
 1 5 l 25
2 15 m 25
 11 18 l 25
 12 17 l 25
 2 12 l 25
 2 15 l 25
5 0 m 25
 6 20 l 25
 9 20 l 25
 9 0 l 25
 5 0 l 25
3 3 m 9
 1 5 l 17
 3 8 9 15 13 15 c 0
 17.4717 15 19 12 19 8 c 0
 19 6 17 0 13 0 c 0
 11 0 10 1 10 3 c 24
 10 5 12 8 14 8 c 0
 16 8 17.667 6.63379 20 2 c 1
 18 0 l 1
 17.3334 2 16 6 14 6 c 0
 13 6 12 5 12 4 c 0
 12 3 13 3 13 3 c 0
 15 3 16 6 16 8 c 0
 16 10 15 12 13 12 c 0
 10 12 5 6 3 3 c 9
EndSplineSet
EndChar

StartChar: uni3084
Encoding: 12420 12420 520
Width: 21
VWidth: 0
Flags: HW
LayerCount: 2
Fore
SplineSet
16 19 m 25
 13 12 l 25
 11 13 l 25
 12 21 l 25
 16 19 l 25
16 5 m 9
 12 8 l 17
 15 10 16 11 16 13 c 0
 16 15 13 15 12 15 c 0
 8.39453 15 7 14 3 11 c 9
 2 16 l 17
 7 18 10 18 12 18 c 0
 15 18 19 16 19 12 c 0
 19 10 19 8 16 5 c 9
4 20 m 25
 7 21 l 25
 11 1 l 25
 6 0 l 25
 4 20 l 25
EndSplineSet
EndChar

StartChar: uni3083
Encoding: 12419 12419 521
Width: 21
VWidth: 0
Flags: HW
LayerCount: 2
Fore
SplineSet
14 13 m 25
 11 7 l 25
 9 8 l 25
 11 14 l 25
 14 13 l 25
13 3 m 9
 10 4 l 17
 11 5 12 6 12 7 c 0
 12 9 10 9 9 9 c 0
 5.39453 9 4 7 3 5 c 9
 2 9 l 17
 4 11 7 12 9 12 c 0
 12 12 15 11 15 8 c 0
 15 6 14 4 13 3 c 9
4 13 m 25
 7 14 l 25
 9 0 l 25
 5 0 l 25
 4 13 l 25
EndSplineSet
EndChar

StartChar: uni307F
Encoding: 12415 12415 522
Width: 21
VWidth: 0
Flags: HW
LayerCount: 2
Fore
SplineSet
16 0 m 9
 11 1 l 17
 13 7 14 11 13 18 c 9
 18 17 l 17
 16 11 15 7 16 0 c 9
4 20 m 17
 8 20 11 18 11 14 c 0
 11 11 11 2 6 2 c 0
 4 2 2 3 2 6 c 0
 2 9 5.83789 12 9 12 c 0
 13 12 17 10 19 9 c 9
 18 4 l 17
 14 8 11 10 9 10 c 0
 7.58594 10 5 9 5 7 c 0
 5 6 5 5 6 5 c 0
 7 5 8 10 8 14 c 0
 8 15 7 17 3 15 c 9
 4 20 l 17
EndSplineSet
EndChar

StartChar: uni3080
Encoding: 12416 12416 523
Width: 21
VWidth: 0
Flags: HW
LayerCount: 2
Fore
SplineSet
14 17 m 9
 17 18 l 17
 18 16 19 13 19 11 c 9
 15 10 l 17
 16 13 15 16 14 17 c 9
13 16 m 25
 13 13 l 25
 2 14 l 25
 2 17 l 25
 13 16 l 25
11 20 m 17
 9 13 9 11 9 8 c 0
 9 6 8 3 6 3 c 0
 4 3 2 5 2 8 c 0
 2 11 6 14 9 9 c 0
 10.8555 5.9082 8 2 18 7 c 9
 19 1 l 17
 7 -2 8.14062 3.5791 7 7 c 0
 6 10 5 9 5 8 c 0
 5 7 5 6 6 6 c 0
 7 6 7.44721 7.10557 7 8 c 0
 6 10 6 15 7 21 c 9
 11 20 l 17
EndSplineSet
EndChar

StartChar: uni308D
Encoding: 12429 12429 524
Width: 21
VWidth: 0
Flags: HW
LayerCount: 2
Fore
SplineSet
2 18 m 25
 16 20 l 25
 17 18 l 25
 11 12 l 17
 15 14 19 12 19 7 c 0
 19 0.291992 10 -1 4 0 c 9
 6 5 l 21
 9 3 16 5.83789 16 9 c 0
 16 11 12 11 7 8 c 9
 6 10 l 25
 13 17 l 25
 3 13 l 25
 2 18 l 25
EndSplineSet
EndChar

StartChar: uni308B
Encoding: 12427 12427 525
Width: 21
VWidth: 0
Flags: HW
LayerCount: 2
Fore
SplineSet
2 18 m 25
 16 20 l 25
 17 18 l 25
 11 12 l 17
 15 14 19 12 19 8 c 0
 19 4 13 0 7 0 c 0
 2 0 1 6 5 7 c 0
 9.94629 8.23633 13 6 17 2 c 5
 14 0 l 5
 11.667 3.2959 9 5 7 5 c 0
 4.89264 5 5.8916 3 8 3 c 0
 11 3 15 5.83789 15 9 c 0
 15 11 12 11 8 9 c 9
 7 11 l 25
 13 17 l 25
 3 13 l 25
 2 18 l 25
EndSplineSet
EndChar

StartChar: uni309B
Encoding: 12443 12443 526
Width: 12
VWidth: 0
Flags: HW
LayerCount: 2
Fore
SplineSet
6 16 m 25
 5 15 l 25
 2 19 l 25
 5 20 l 25
 6 16 l 25
10 16 m 25
 9 15 l 25
 6 19 l 25
 9 20 l 25
 10 16 l 25
EndSplineSet
EndChar

StartChar: uni309C
Encoding: 12444 12444 527
Width: 10
VWidth: 0
Flags: HW
LayerCount: 2
Fore
SplineSet
5 18 m 0
 5 18 4 18 4 17 c 0
 4 16 5 16 5 16 c 0
 5 16 6 16 6 17 c 0
 6 18 5 18 5 18 c 0
5 20 m 0
 7 20 8 18 8 17 c 0
 8 15 7 14 5 14 c 24
 3 14 2 15 2 17 c 0
 2 18 3 20 5 20 c 0
EndSplineSet
EndChar

StartChar: uni3092
Encoding: 12434 12434 530
Width: 21
VWidth: 0
Flags: HW
LayerCount: 2
Fore
SplineSet
18 5 m 9
 19 0 l 17
 13 -1 3 -1 3 3 c 0
 3 8 14 11 17 11 c 9
 17 7 l 17
 13 7 7 6 7 4 c 0
 7 2 14 4 18 5 c 9
13 4 m 9
 10 5 l 17
 12 10 8 10 5 8 c 9
 3 9 l 17
 7 13 16 15 13 4 c 9
6 20 m 25
 11 19 l 25
 5 8 l 25
 3 9 l 25
 6 20 l 25
18 18 m 25
 19 13 l 25
 2 13 l 25
 2 16 l 25
 18 18 l 25
EndSplineSet
EndChar

StartChar: uni3002
Encoding: 12290 12290 531
Width: 21
VWidth: 0
Flags: HW
LayerCount: 2
Fore
SplineSet
6 6 m 24
 5 6 4 5 4 4 c 24
 4 3 5 2 6 2 c 24
 7 2 8 3 8 4 c 24
 8 5 7 6 6 6 c 24
6 0 m 0
 4 0 2 2 2 4 c 0
 2 6 4 8 6 8 c 0
 8 8 10 6 10 4 c 0
 10 2 8 0 6 0 c 0
EndSplineSet
EndChar

StartChar: uni300C
Encoding: 12300 12300 532
Width: 12
VWidth: 0
Flags: HW
LayerCount: 2
Fore
SplineSet
2 24 m 25
 10 24 l 25
 10 20 l 25
 5 21 l 25
 6 11 l 25
 2 11 l 25
 2 24 l 25
EndSplineSet
EndChar

StartChar: uni300E
Encoding: 12302 12302 534
Width: 12
VWidth: 0
Flags: HW
LayerCount: 2
Fore
SplineSet
8 20 m 25
 8 22 l 25
 4 22 l 25
 4 13 l 25
 6 13 l 25
 5 21 l 25
 8 20 l 25
2 24 m 25
 10 24 l 25
 10 18 l 25
 7 19 l 25
 8 11 l 25
 2 11 l 25
 2 24 l 25
EndSplineSet
EndChar

StartChar: uni3010
Encoding: 12304 12304 536
Width: 12
VWidth: 0
Flags: HW
LayerCount: 2
Fore
SplineSet
10 -4 m 25
 2 -4 l 25
 2 24 l 25
 10 24 l 25
 10 21 l 17
 4 22 4 -2 10 -1 c 9
 10 -4 l 25
EndSplineSet
EndChar

StartChar: uni3001
Encoding: 12289 12289 538
Width: 21
VWidth: 0
Flags: HW
LayerCount: 2
Fore
SplineSet
10 1 m 9
 9 0 l 17
 7 2 5 4 2 4 c 9
 5 8 l 17
 8 6 10 2 10 1 c 9
EndSplineSet
EndChar

StartChar: ellipsis
Encoding: 8230 8230 545
Width: 26
VWidth: 0
Flags: HW
LayerCount: 2
Fore
SplineSet
18 0 m 25
 18 6 l 25
 24 6 l 25
 24 0 l 25
 18 0 l 25
10 0 m 25
 10 6 l 25
 16 6 l 25
 16 0 l 25
 10 0 l 25
2 0 m 25
 2 6 l 25
 8 6 l 25
 8 0 l 25
 2 0 l 25
EndSplineSet
EndChar

StartChar: twodotenleader
Encoding: 8229 8229 546
Width: 18
VWidth: 0
Flags: HW
LayerCount: 2
Fore
SplineSet
10 0 m 25
 10 6 l 25
 16 6 l 25
 16 0 l 25
 10 0 l 25
2 0 m 25
 2 6 l 25
 8 6 l 25
 8 0 l 25
 2 0 l 25
EndSplineSet
EndChar
